{"glyphs":{"0":{"ha":806,"x_min":100,"x_max":775,"o":"m 317 -22 q 153 79 206 -22 q 100 356 100 181 q 159 641 100 497 q 324 878 218 785 q 558 972 429 972 q 722 871 669 972 q 775 594 775 769 q 716 309 775 453 q 551 72 657 165 q 317 -22 446 -22 m 314 22 q 465 103 406 22 q 572 331 524 185 q 638 563 613 451 q 664 750 664 674 q 561 928 664 928 q 411 845 472 928 q 303 619 350 763 q 211 199 211 344 q 314 22 211 22 z "},"1":{"ha":806,"x_min":75,"x_max":628,"o":"m 86 44 l 215 44 q 248 53 236 44 q 265 81 260 61 l 456 782 q 407 758 438 769 q 357 740 376 746 q 331 732 338 735 l 283 717 l 274 744 q 453 819 374 774 q 585 950 533 864 l 628 950 l 392 81 q 389 65 389 69 q 397 49 389 54 q 419 44 404 44 l 556 44 l 544 0 l 75 0 l 86 44 z "},"2":{"ha":806,"x_min":44,"x_max":786,"o":"m 424 -24 q 328 6 367 -24 q 254 85 290 35 q 205 140 226 122 q 158 158 183 158 q 116 146 129 158 q 103 97 103 133 q 113 72 103 79 q 131 52 125 61 q 136 32 136 43 q 126 2 136 15 q 94 -11 117 -11 q 58 2 71 -11 q 44 36 44 15 q 94 201 44 125 q 242 326 144 276 l 431 438 q 585 575 518 489 q 653 750 653 661 q 615 876 653 824 q 490 928 578 928 q 388 899 439 928 q 304 827 338 869 q 271 750 271 785 q 294 704 271 704 q 317 713 303 704 q 350 722 336 722 q 396 704 381 722 q 411 658 411 686 q 385 596 411 622 q 317 569 358 569 q 248 603 279 569 q 217 693 217 638 q 259 836 217 772 q 367 936 301 900 q 503 972 433 972 q 710 903 633 972 q 786 725 786 835 q 733 575 786 640 q 613 469 681 510 q 460 389 546 429 l 300 315 q 197 252 232 285 q 161 199 161 219 q 274 167 200 199 q 369 133 326 146 q 457 121 413 121 q 555 144 511 121 q 618 215 599 168 l 644 279 l 671 279 q 588 69 649 161 q 424 -24 526 -24 z "},"3":{"ha":806,"x_min":72,"x_max":775,"o":"m 296 -22 q 193 0 244 -22 q 107 65 142 22 q 72 167 72 108 q 114 270 72 235 q 204 306 156 306 q 260 283 242 306 q 278 231 278 260 q 258 181 278 201 q 208 161 239 161 q 181 168 192 161 q 156 175 169 175 q 138 167 144 175 q 131 146 131 160 q 183 52 131 82 q 300 22 236 22 q 390 47 347 22 q 467 119 433 72 q 524 252 504 175 q 544 386 544 329 q 527 474 544 439 q 444 508 510 508 q 416 503 428 508 q 390 486 404 499 q 326 456 357 456 q 290 465 303 456 q 278 492 278 475 q 292 527 278 511 q 333 543 307 543 l 476 543 q 556 573 517 543 q 622 647 596 603 q 656 799 656 704 q 622 892 656 856 q 515 928 588 928 q 425 912 469 928 q 352 869 381 896 q 324 810 324 842 q 339 781 324 781 q 351 785 343 781 q 374 789 364 789 q 411 776 400 789 q 422 736 422 763 q 402 684 422 706 q 344 663 382 663 q 283 691 307 663 q 258 761 258 719 q 297 873 258 825 q 396 947 335 921 q 524 972 457 972 q 654 942 597 972 q 743 860 711 913 q 775 742 775 807 q 740 635 775 682 q 652 558 704 588 q 553 522 600 529 l 551 513 q 639 444 600 494 q 678 314 678 394 q 641 172 678 240 q 546 58 604 103 q 433 0 499 22 q 296 -22 367 -22 z "},"4":{"ha":806,"x_min":89,"x_max":772,"o":"m 175 44 l 304 44 q 336 53 325 44 q 353 81 347 61 l 408 289 l 89 289 l 103 339 l 403 608 q 553 792 479 683 q 642 964 626 900 l 756 964 q 700 851 744 911 q 568 708 656 792 l 161 339 l 421 339 l 482 550 q 578 640 536 588 q 640 743 619 692 l 664 743 l 553 339 l 772 339 l 758 289 l 540 289 l 485 81 q 482 65 482 69 q 490 49 482 54 q 514 44 497 44 l 643 44 l 631 0 l 163 0 l 175 44 z "},"5":{"ha":806,"x_min":86,"x_max":797,"o":"m 308 -22 q 147 28 208 -22 q 86 158 86 78 q 118 251 86 214 q 194 288 150 288 q 256 267 235 288 q 278 208 278 247 q 259 161 278 181 q 207 142 240 142 l 185 143 q 161 138 172 143 q 147 114 147 128 q 190 48 147 74 q 300 22 233 22 q 421 61 367 22 q 514 175 475 100 q 558 301 540 228 q 575 433 575 375 q 435 581 575 581 q 341 547 388 581 q 271 440 294 514 q 254 410 265 422 q 231 397 243 397 q 190 431 190 397 q 201 470 190 453 q 232 510 211 488 q 281 586 269 550 l 350 813 q 369 914 369 876 q 365 949 369 931 l 399 972 q 476 901 432 933 q 569 869 521 869 q 684 894 633 869 q 776 972 735 918 l 797 951 q 695 833 751 879 q 543 786 639 786 q 406 846 468 786 l 328 588 l 333 583 q 392 614 353 600 q 458 628 431 628 q 641 567 576 628 q 706 394 706 506 q 674 239 706 322 q 582 94 642 156 q 458 9 529 40 q 308 -22 388 -22 z "},"6":{"ha":806,"x_min":125,"x_max":761,"o":"m 350 -22 q 188 57 251 -22 q 125 294 125 136 q 161 520 125 394 q 263 750 197 646 q 423 918 333 864 q 599 972 513 972 q 663 961 632 972 q 715 932 694 950 q 761 826 761 893 q 732 733 761 769 q 663 697 703 697 q 615 713 633 697 q 596 757 596 729 q 616 812 596 794 q 660 833 636 829 q 694 868 694 842 q 690 888 694 879 q 671 910 686 897 q 596 928 646 928 q 463 868 529 928 q 353 714 397 808 q 282 482 299 601 l 292 475 q 382 561 328 531 q 493 592 436 592 q 651 527 594 592 q 707 363 707 463 q 676 216 707 290 q 594 86 644 142 q 495 11 556 44 q 350 -22 435 -22 m 361 22 q 453 55 411 22 q 525 140 496 88 q 570 261 554 194 q 586 394 586 328 q 558 500 586 458 q 475 542 529 542 q 282 368 360 542 q 247 167 247 292 q 278 63 247 103 q 361 22 310 22 z "},"7":{"ha":806,"x_min":200,"x_max":822,"o":"m 289 -24 q 224 1 247 -24 q 200 75 200 26 q 270 244 200 147 q 444 458 340 342 l 706 747 l 700 753 q 672 740 688 744 q 644 736 656 736 q 571 752 601 736 q 503 800 540 768 q 452 838 474 825 q 404 850 431 850 q 331 818 361 850 q 265 715 301 786 l 236 658 l 210 658 l 304 975 l 331 975 q 325 935 325 957 q 331 906 325 917 q 349 894 336 894 q 417 944 385 926 q 492 961 450 961 q 557 939 528 961 q 614 879 586 917 q 663 824 640 843 q 714 806 686 806 q 756 817 743 806 q 769 842 769 828 q 753 868 769 860 q 738 883 743 875 q 733 904 733 890 q 745 935 733 925 q 771 946 757 946 q 822 879 822 946 q 796 803 822 843 q 711 696 769 764 q 508 450 563 522 q 419 297 453 378 q 386 188 394 236 q 378 86 378 140 q 353 6 378 35 q 289 -24 329 -24 z "},"8":{"ha":806,"x_min":94,"x_max":803,"o":"m 344 -22 q 227 6 285 -22 q 132 89 169 33 q 94 224 94 144 q 129 353 94 294 q 214 442 164 411 q 275 474 249 464 q 349 492 301 483 q 284 572 313 518 q 256 690 256 625 q 326 882 256 800 q 427 950 367 928 q 542 972 488 972 q 732 915 661 972 q 803 756 803 858 q 778 642 803 699 q 713 553 754 585 q 637 508 681 528 q 561 482 593 488 q 647 382 619 432 q 675 267 675 332 q 652 149 675 200 q 583 57 629 97 q 481 -1 542 19 q 344 -22 419 -22 m 529 504 q 633 547 588 513 q 703 628 678 581 q 728 725 728 676 q 679 874 728 821 q 536 928 631 928 q 456 909 499 928 q 383 846 414 890 q 353 731 353 801 q 365 663 353 688 q 403 615 376 639 l 529 504 m 361 22 q 467 46 418 22 q 546 110 517 69 q 575 197 575 150 q 522 344 575 299 l 376 467 q 295 442 328 456 q 231 399 263 429 q 177 322 199 368 q 156 225 156 276 q 208 76 156 129 q 361 22 260 22 z "},"9":{"ha":806,"x_min":122,"x_max":758,"o":"m 285 -22 q 220 -11 251 -22 q 168 18 189 0 q 122 124 122 57 q 151 217 122 181 q 221 253 181 253 q 269 237 250 253 q 288 193 288 221 q 267 138 288 156 q 224 117 247 121 q 189 82 189 108 q 193 62 189 71 q 213 40 197 53 q 288 22 238 22 q 420 82 354 22 q 531 236 486 142 q 601 468 585 349 l 592 475 q 501 389 556 419 q 390 358 447 358 q 233 423 289 358 q 176 588 176 488 q 208 734 176 660 q 289 864 239 808 q 388 939 328 906 q 533 972 449 972 q 695 893 632 972 q 758 656 758 814 q 722 430 758 556 q 621 200 686 304 q 460 32 550 86 q 285 -22 371 -22 m 408 408 q 601 582 524 408 q 636 783 636 658 q 605 888 636 847 q 522 928 574 928 q 430 895 472 928 q 358 810 388 863 q 313 689 329 756 q 297 556 297 622 q 326 450 297 492 q 408 408 354 408 z "},"\r":{"ha":389,"x_min":0,"x_max":0,"o":""}," ":{"ha":389,"x_min":0,"x_max":0,"o":""},"A":{"ha":1011,"x_min":-61,"x_max":922,"o":"m -50 44 l 1 44 q 103 74 58 44 q 174 144 149 103 l 744 989 l 778 989 l 778 104 q 797 57 781 69 q 844 44 814 44 l 922 44 l 911 0 l 500 0 l 511 44 l 597 44 q 641 57 626 44 q 656 108 656 69 l 656 339 l 365 339 l 271 200 q 224 92 224 132 q 279 44 224 44 l 356 44 l 344 0 l -61 0 l -50 44 m 396 383 l 656 383 l 656 767 l 396 383 z "},"Á":{"ha":1011,"x_min":-61,"x_max":1000,"o":"m 747 1075 l 894 1246 q 928 1275 913 1267 q 961 1283 943 1283 q 1000 1243 1000 1283 q 956 1179 1000 1206 l 764 1058 l 747 1075 m -50 44 l 1 44 q 103 74 58 44 q 174 144 149 103 l 744 989 l 778 989 l 778 104 q 797 57 781 69 q 844 44 814 44 l 922 44 l 911 0 l 500 0 l 511 44 l 597 44 q 641 57 626 44 q 656 108 656 69 l 656 339 l 365 339 l 271 200 q 224 92 224 132 q 279 44 224 44 l 356 44 l 344 0 l -61 0 l -50 44 m 396 383 l 656 383 l 656 767 l 396 383 z "},"Ă":{"ha":1011,"x_min":-61,"x_max":1049,"o":"m 781 1058 q 660 1106 699 1058 q 622 1218 622 1153 q 629 1272 622 1244 l 668 1272 l 668 1261 q 700 1163 668 1204 q 799 1122 732 1122 q 926 1168 869 1122 q 1010 1272 982 1214 l 1049 1272 q 999 1176 1036 1226 q 906 1092 963 1126 q 781 1058 849 1058 m -50 44 l 1 44 q 103 74 58 44 q 174 144 149 103 l 744 989 l 778 989 l 778 104 q 797 57 781 69 q 844 44 814 44 l 922 44 l 911 0 l 500 0 l 511 44 l 597 44 q 641 57 626 44 q 656 108 656 69 l 656 339 l 365 339 l 271 200 q 224 92 224 132 q 279 44 224 44 l 356 44 l 344 0 l -61 0 l -50 44 m 396 383 l 656 383 l 656 767 l 396 383 z "},"Ắ":{"ha":1011,"x_min":-61,"x_max":1044,"o":"m 792 1274 l 939 1444 q 972 1474 957 1465 q 1006 1482 988 1482 q 1035 1470 1026 1482 q 1044 1442 1044 1458 q 1000 1378 1044 1406 l 808 1257 l 792 1274 m 775 1058 q 666 1104 701 1058 q 631 1210 631 1150 q 636 1253 631 1228 l 667 1253 q 665 1231 665 1246 q 694 1148 665 1182 q 790 1114 722 1114 q 917 1156 867 1114 q 989 1253 967 1199 l 1019 1253 q 976 1169 1010 1215 q 889 1091 942 1124 q 775 1058 836 1058 m -50 44 l 1 44 q 103 74 58 44 q 174 144 149 103 l 744 989 l 778 989 l 778 104 q 797 57 781 69 q 844 44 814 44 l 922 44 l 911 0 l 500 0 l 511 44 l 597 44 q 641 57 626 44 q 656 108 656 69 l 656 339 l 365 339 l 271 200 q 224 92 224 132 q 279 44 224 44 l 356 44 l 344 0 l -61 0 l -50 44 m 396 383 l 656 383 l 656 767 l 396 383 z "},"Ặ":{"ha":1011,"x_min":-61,"x_max":1047,"o":"m -50 44 l 1 44 q 103 74 58 44 q 174 144 149 103 l 744 989 l 778 989 l 778 104 q 797 57 781 69 q 844 44 814 44 l 922 44 l 911 0 l 500 0 l 511 44 l 597 44 q 641 57 626 44 q 656 108 656 69 l 656 339 l 365 339 l 271 200 q 224 92 224 132 q 279 44 224 44 l 356 44 l 344 0 l -61 0 l -50 44 m 396 383 l 656 383 l 656 767 l 396 383 m 367 -281 q 315 -260 335 -281 q 294 -208 294 -240 q 315 -157 294 -178 q 367 -136 335 -136 q 418 -157 397 -136 q 439 -208 439 -178 q 418 -260 439 -240 q 367 -281 397 -281 m 779 1058 q 659 1106 697 1058 q 621 1218 621 1153 q 628 1272 621 1244 l 667 1272 l 667 1261 q 699 1163 667 1204 q 797 1122 731 1122 q 924 1168 868 1122 q 1008 1272 981 1214 l 1047 1272 q 998 1176 1035 1226 q 904 1092 961 1126 q 779 1058 847 1058 z "},"Ằ":{"ha":1011,"x_min":-61,"x_max":1039,"o":"m -50 44 l 1 44 q 103 74 58 44 q 174 144 149 103 l 744 989 l 778 989 l 778 104 q 797 57 781 69 q 844 44 814 44 l 922 44 l 911 0 l 500 0 l 511 44 l 597 44 q 641 57 626 44 q 656 108 656 69 l 656 339 l 365 339 l 271 200 q 224 92 224 132 q 279 44 224 44 l 356 44 l 344 0 l -61 0 l -50 44 m 396 383 l 656 383 l 656 767 l 396 383 m 794 1103 q 685 1149 721 1103 q 650 1254 650 1194 q 656 1297 650 1272 l 686 1297 q 685 1275 685 1290 q 713 1192 685 1226 q 810 1158 742 1158 q 936 1201 886 1158 q 1008 1297 986 1243 l 1039 1297 q 995 1214 1029 1260 q 908 1135 961 1168 q 794 1103 856 1103 m 714 1428 q 694 1476 694 1450 q 706 1510 694 1493 q 744 1526 717 1526 q 778 1514 765 1526 q 800 1472 790 1501 l 856 1307 l 832 1293 l 714 1428 z "},"Ẳ":{"ha":1011,"x_min":-61,"x_max":1039,"o":"m -50 44 l 1 44 q 103 74 58 44 q 174 144 149 103 l 744 989 l 778 989 l 778 104 q 797 57 781 69 q 844 44 814 44 l 922 44 l 911 0 l 500 0 l 511 44 l 597 44 q 641 57 626 44 q 656 108 656 69 l 656 339 l 365 339 l 271 200 q 224 92 224 132 q 279 44 224 44 l 356 44 l 344 0 l -61 0 l -50 44 m 396 383 l 656 383 l 656 767 l 396 383 m 794 1103 q 685 1149 721 1103 q 650 1254 650 1194 q 656 1297 650 1272 l 686 1297 q 685 1275 685 1290 q 713 1192 685 1226 q 810 1158 742 1158 q 936 1201 886 1158 q 1008 1297 986 1243 l 1039 1297 q 995 1214 1029 1260 q 908 1135 961 1168 q 794 1103 856 1103 m 871 1324 q 925 1404 915 1356 q 928 1425 928 1418 q 913 1466 928 1450 q 865 1482 897 1482 q 810 1467 836 1482 q 781 1432 783 1451 q 781 1414 776 1418 q 784 1411 782 1413 q 788 1411 786 1410 q 793 1413 789 1410 q 799 1413 797 1414 q 804 1414 801 1413 q 824 1393 824 1411 q 812 1367 824 1378 q 781 1357 800 1357 q 756 1368 767 1357 q 746 1399 746 1379 q 787 1472 746 1442 q 875 1503 828 1501 q 952 1481 921 1501 q 983 1422 983 1460 q 952 1347 983 1376 q 863 1281 921 1317 l 814 1281 l 871 1324 z "},"Ẵ":{"ha":1011,"x_min":-61,"x_max":1065,"o":"m -50 44 l 1 44 q 103 74 58 44 q 174 144 149 103 l 744 989 l 778 989 l 778 104 q 797 57 781 69 q 844 44 814 44 l 922 44 l 911 0 l 500 0 l 511 44 l 597 44 q 641 57 626 44 q 656 108 656 69 l 656 339 l 365 339 l 271 200 q 224 92 224 132 q 279 44 224 44 l 356 44 l 344 0 l -61 0 l -50 44 m 396 383 l 656 383 l 656 767 l 396 383 m 794 1103 q 685 1149 721 1103 q 650 1254 650 1194 q 656 1297 650 1272 l 686 1297 q 685 1275 685 1290 q 713 1192 685 1226 q 810 1158 742 1158 q 936 1201 886 1158 q 1008 1297 986 1243 l 1039 1297 q 995 1214 1029 1260 q 908 1135 961 1168 q 794 1103 856 1103 m 682 1343 q 711 1435 682 1397 q 793 1474 740 1474 q 847 1466 824 1474 q 900 1443 869 1458 q 945 1424 928 1431 q 985 1418 963 1418 q 1019 1432 1008 1418 q 1035 1474 1031 1446 l 1065 1474 q 1036 1381 1065 1419 q 954 1343 1007 1343 q 901 1351 924 1343 q 847 1374 878 1358 q 802 1392 819 1386 q 763 1399 785 1399 q 728 1385 739 1399 q 713 1343 717 1371 l 682 1343 z "},"Â":{"ha":1011,"x_min":-61,"x_max":989,"o":"m 550 1081 q 794 1278 697 1153 l 850 1278 q 989 1081 882 1153 l 969 1058 q 884 1112 936 1071 q 800 1192 832 1153 q 672 1112 746 1153 q 558 1058 597 1071 l 550 1081 m -50 44 l 1 44 q 103 74 58 44 q 174 144 149 103 l 744 989 l 778 989 l 778 104 q 797 57 781 69 q 844 44 814 44 l 922 44 l 911 0 l 500 0 l 511 44 l 597 44 q 641 57 626 44 q 656 108 656 69 l 656 339 l 365 339 l 271 200 q 224 92 224 132 q 279 44 224 44 l 356 44 l 344 0 l -61 0 l -50 44 m 396 383 l 656 383 l 656 767 l 396 383 z "},"Ấ":{"ha":1011,"x_min":-61,"x_max":1196,"o":"m -50 44 l 1 44 q 103 74 58 44 q 174 144 149 103 l 744 989 l 778 989 l 778 104 q 797 57 781 69 q 844 44 814 44 l 922 44 l 911 0 l 500 0 l 511 44 l 597 44 q 641 57 626 44 q 656 108 656 69 l 656 339 l 365 339 l 271 200 q 224 92 224 132 q 279 44 224 44 l 356 44 l 344 0 l -61 0 l -50 44 m 396 383 l 656 383 l 656 767 l 396 383 m 597 1096 q 808 1306 721 1161 l 864 1306 q 961 1096 876 1161 l 944 1078 q 810 1206 861 1128 q 606 1078 713 1126 l 597 1096 m 943 1206 l 1090 1376 q 1124 1406 1108 1397 q 1157 1414 1139 1414 q 1187 1402 1178 1414 q 1196 1374 1196 1390 q 1151 1310 1196 1338 l 960 1189 l 943 1206 z "},"Ậ":{"ha":1011,"x_min":-61,"x_max":981,"o":"m -50 44 l 1 44 q 103 74 58 44 q 174 144 149 103 l 744 989 l 778 989 l 778 104 q 797 57 781 69 q 844 44 814 44 l 922 44 l 911 0 l 500 0 l 511 44 l 597 44 q 641 57 626 44 q 656 108 656 69 l 656 339 l 365 339 l 271 200 q 224 92 224 132 q 279 44 224 44 l 356 44 l 344 0 l -61 0 l -50 44 m 396 383 l 656 383 l 656 767 l 396 383 m 367 -281 q 315 -260 335 -281 q 294 -208 294 -240 q 315 -157 294 -178 q 367 -136 335 -136 q 418 -157 397 -136 q 439 -208 439 -178 q 418 -260 439 -240 q 367 -281 397 -281 m 542 1081 q 786 1278 689 1153 l 842 1278 q 981 1081 874 1153 l 961 1058 q 876 1112 928 1071 q 792 1192 824 1153 q 663 1112 738 1153 q 550 1058 589 1071 l 542 1081 z "},"Ầ":{"ha":1011,"x_min":-61,"x_max":997,"o":"m -50 44 l 1 44 q 103 74 58 44 q 174 144 149 103 l 744 989 l 778 989 l 778 104 q 797 57 781 69 q 844 44 814 44 l 922 44 l 911 0 l 500 0 l 511 44 l 597 44 q 641 57 626 44 q 656 108 656 69 l 656 339 l 365 339 l 271 200 q 224 92 224 132 q 279 44 224 44 l 356 44 l 344 0 l -61 0 l -50 44 m 396 383 l 656 383 l 656 767 l 396 383 m 597 1096 q 808 1306 721 1161 l 864 1306 q 961 1096 876 1161 l 944 1078 q 810 1206 861 1128 q 606 1078 713 1126 l 597 1096 m 856 1394 q 836 1443 836 1417 q 847 1476 836 1460 q 886 1493 858 1493 q 919 1481 907 1493 q 942 1439 932 1468 l 997 1274 l 974 1260 l 856 1394 z "},"Ẩ":{"ha":1011,"x_min":-61,"x_max":1088,"o":"m -50 44 l 1 44 q 103 74 58 44 q 174 144 149 103 l 744 989 l 778 989 l 778 104 q 797 57 781 69 q 844 44 814 44 l 922 44 l 911 0 l 500 0 l 511 44 l 597 44 q 641 57 626 44 q 656 108 656 69 l 656 339 l 365 339 l 271 200 q 224 92 224 132 q 279 44 224 44 l 356 44 l 344 0 l -61 0 l -50 44 m 396 383 l 656 383 l 656 767 l 396 383 m 597 1096 q 808 1306 721 1161 l 864 1306 q 961 1096 876 1161 l 944 1078 q 810 1206 861 1128 q 606 1078 713 1126 l 597 1096 m 975 1328 q 1029 1408 1019 1360 q 1032 1429 1032 1422 q 1017 1470 1032 1454 q 969 1486 1001 1486 q 914 1471 940 1486 q 885 1436 888 1456 q 885 1418 881 1422 q 888 1415 886 1417 q 892 1415 890 1414 q 897 1417 893 1414 q 903 1417 901 1418 q 908 1418 906 1417 q 928 1397 928 1415 q 916 1372 928 1382 q 885 1361 904 1361 q 860 1372 871 1361 q 850 1403 850 1383 q 891 1476 850 1446 q 979 1507 932 1506 q 1056 1485 1025 1506 q 1088 1426 1088 1464 q 1056 1351 1088 1381 q 967 1285 1025 1321 l 918 1285 l 975 1328 z "},"Ẫ":{"ha":1011,"x_min":-61,"x_max":1056,"o":"m -50 44 l 1 44 q 103 74 58 44 q 174 144 149 103 l 744 989 l 778 989 l 778 104 q 797 57 781 69 q 844 44 814 44 l 922 44 l 911 0 l 500 0 l 511 44 l 597 44 q 641 57 626 44 q 656 108 656 69 l 656 339 l 365 339 l 271 200 q 224 92 224 132 q 279 44 224 44 l 356 44 l 344 0 l -61 0 l -50 44 m 396 383 l 656 383 l 656 767 l 396 383 m 597 1096 q 808 1306 721 1161 l 864 1306 q 961 1096 876 1161 l 944 1078 q 810 1206 861 1128 q 606 1078 713 1126 l 597 1096 m 672 1328 q 701 1420 672 1382 q 783 1458 731 1458 q 837 1451 814 1458 q 890 1428 860 1443 q 935 1409 918 1415 q 975 1403 953 1403 q 1010 1417 999 1403 q 1025 1458 1021 1431 l 1056 1458 q 1026 1366 1056 1404 q 944 1328 997 1328 q 891 1335 914 1328 q 838 1358 868 1343 q 792 1377 810 1371 q 753 1383 775 1383 q 718 1369 729 1383 q 703 1328 707 1356 l 672 1328 z "},"Ȁ":{"ha":1011,"x_min":-61,"x_max":922,"o":"m 535 1193 q 519 1217 525 1203 q 514 1243 514 1232 q 524 1276 514 1260 q 563 1292 535 1292 q 621 1240 604 1292 l 678 1071 l 657 1058 l 535 1193 m 749 1193 q 733 1217 739 1203 q 728 1243 728 1232 q 738 1276 728 1260 q 776 1292 749 1292 q 835 1240 818 1292 l 892 1071 l 871 1058 l 749 1193 m -50 44 l 1 44 q 103 74 58 44 q 174 144 149 103 l 744 989 l 778 989 l 778 104 q 797 57 781 69 q 844 44 814 44 l 922 44 l 911 0 l 500 0 l 511 44 l 597 44 q 641 57 626 44 q 656 108 656 69 l 656 339 l 365 339 l 271 200 q 224 92 224 132 q 279 44 224 44 l 356 44 l 344 0 l -61 0 l -50 44 m 396 383 l 656 383 l 656 767 l 396 383 z "},"Ä":{"ha":1011,"x_min":-61,"x_max":1017,"o":"m 661 1108 q 610 1129 631 1108 q 589 1181 589 1150 q 610 1233 589 1213 q 661 1253 631 1253 q 713 1233 693 1253 q 733 1181 733 1213 q 713 1129 733 1150 q 661 1108 693 1108 m 944 1108 q 893 1129 914 1108 q 872 1181 872 1150 q 893 1233 872 1213 q 944 1253 914 1253 q 997 1233 976 1253 q 1017 1181 1017 1213 q 997 1129 1017 1150 q 944 1108 976 1108 m -50 44 l 1 44 q 103 74 58 44 q 174 144 149 103 l 744 989 l 778 989 l 778 104 q 797 57 781 69 q 844 44 814 44 l 922 44 l 911 0 l 500 0 l 511 44 l 597 44 q 641 57 626 44 q 656 108 656 69 l 656 339 l 365 339 l 271 200 q 224 92 224 132 q 279 44 224 44 l 356 44 l 344 0 l -61 0 l -50 44 m 396 383 l 656 383 l 656 767 l 396 383 z "},"Ạ":{"ha":1011,"x_min":-61,"x_max":922,"o":"m -50 44 l 1 44 q 103 74 58 44 q 174 144 149 103 l 744 989 l 778 989 l 778 104 q 797 57 781 69 q 844 44 814 44 l 922 44 l 911 0 l 500 0 l 511 44 l 597 44 q 641 57 626 44 q 656 108 656 69 l 656 339 l 365 339 l 271 200 q 224 92 224 132 q 279 44 224 44 l 356 44 l 344 0 l -61 0 l -50 44 m 396 383 l 656 383 l 656 767 l 396 383 m 367 -281 q 315 -260 335 -281 q 294 -208 294 -240 q 315 -157 294 -178 q 367 -136 335 -136 q 418 -157 397 -136 q 439 -208 439 -178 q 418 -260 439 -240 q 367 -281 397 -281 z "},"À":{"ha":1011,"x_min":-61,"x_max":922,"o":"m 638 1193 q 622 1217 628 1203 q 617 1243 617 1232 q 627 1276 617 1260 q 665 1292 638 1292 q 724 1240 707 1292 l 781 1071 l 760 1058 l 638 1193 m -50 44 l 1 44 q 103 74 58 44 q 174 144 149 103 l 744 989 l 778 989 l 778 104 q 797 57 781 69 q 844 44 814 44 l 922 44 l 911 0 l 500 0 l 511 44 l 597 44 q 641 57 626 44 q 656 108 656 69 l 656 339 l 365 339 l 271 200 q 224 92 224 132 q 279 44 224 44 l 356 44 l 344 0 l -61 0 l -50 44 m 396 383 l 656 383 l 656 767 l 396 383 z "},"Ả":{"ha":1011,"x_min":-61,"x_max":931,"o":"m -50 44 l 1 44 q 103 74 58 44 q 174 144 149 103 l 744 989 l 778 989 l 778 104 q 797 57 781 69 q 844 44 814 44 l 922 44 l 911 0 l 500 0 l 511 44 l 597 44 q 641 57 626 44 q 656 108 656 69 l 656 339 l 365 339 l 271 200 q 224 92 224 132 q 279 44 224 44 l 356 44 l 344 0 l -61 0 l -50 44 m 396 383 l 656 383 l 656 767 l 396 383 m 818 1113 q 872 1193 863 1144 q 875 1214 875 1207 q 860 1255 875 1239 q 813 1271 844 1271 q 757 1256 783 1271 q 728 1221 731 1240 q 728 1203 724 1207 q 731 1200 729 1201 q 735 1200 733 1199 q 740 1201 736 1199 q 747 1202 744 1203 q 751 1203 749 1201 q 771 1182 771 1200 q 759 1156 771 1167 q 728 1146 747 1146 q 703 1157 714 1146 q 693 1188 693 1168 q 734 1260 693 1231 q 822 1292 775 1290 q 899 1269 868 1290 q 931 1211 931 1249 q 899 1135 931 1165 q 810 1069 868 1106 l 761 1069 l 818 1113 z "},"Ȃ":{"ha":1011,"x_min":-61,"x_max":978,"o":"m 572 1069 q 640 1161 597 1113 q 735 1244 683 1210 q 833 1278 786 1278 q 911 1244 879 1278 q 959 1162 943 1210 q 978 1069 975 1114 l 950 1058 q 904 1161 940 1122 q 813 1200 868 1200 q 701 1160 757 1200 q 600 1058 646 1121 l 572 1069 m -50 44 l 1 44 q 103 74 58 44 q 174 144 149 103 l 744 989 l 778 989 l 778 104 q 797 57 781 69 q 844 44 814 44 l 922 44 l 911 0 l 500 0 l 511 44 l 597 44 q 641 57 626 44 q 656 108 656 69 l 656 339 l 365 339 l 271 200 q 224 92 224 132 q 279 44 224 44 l 356 44 l 344 0 l -61 0 l -50 44 m 396 383 l 656 383 l 656 767 l 396 383 z "},"Ā":{"ha":1011,"x_min":-61,"x_max":1025,"o":"m 575 1142 l 589 1197 l 1025 1197 l 1011 1142 l 575 1142 m -50 44 l 1 44 q 103 74 58 44 q 174 144 149 103 l 744 989 l 778 989 l 778 104 q 797 57 781 69 q 844 44 814 44 l 922 44 l 911 0 l 500 0 l 511 44 l 597 44 q 641 57 626 44 q 656 108 656 69 l 656 339 l 365 339 l 271 200 q 224 92 224 132 q 279 44 224 44 l 356 44 l 344 0 l -61 0 l -50 44 m 396 383 l 656 383 l 656 767 l 396 383 z "},"Ą":{"ha":1011,"x_min":-61,"x_max":922,"o":"m 615 -343 q 533 -316 569 -343 q 497 -235 497 -289 q 674 -7 497 -121 l 672 0 l 500 0 l 511 44 l 597 44 q 641 57 626 44 q 656 108 656 69 l 656 339 l 365 339 l 271 200 q 224 92 224 132 q 279 44 224 44 l 356 44 l 344 0 l -61 0 l -50 44 l 1 44 q 103 74 58 44 q 174 144 149 103 l 744 989 l 778 989 l 778 104 q 797 57 781 69 q 844 44 814 44 l 922 44 l 911 0 l 744 0 q 623 -98 671 -43 q 575 -206 575 -153 q 588 -242 575 -231 q 619 -254 600 -254 q 664 -239 643 -254 q 688 -221 679 -225 q 711 -217 697 -217 q 737 -228 728 -217 q 746 -256 746 -239 q 731 -295 746 -275 q 686 -329 715 -315 q 615 -343 657 -343 m 396 383 l 656 383 l 656 767 l 396 383 z "},"Å":{"ha":1011,"x_min":-61,"x_max":922,"o":"m 768 1047 q 673 1087 713 1047 q 633 1183 633 1126 q 672 1278 633 1239 q 768 1317 711 1317 q 864 1278 825 1317 q 903 1183 903 1239 q 863 1087 903 1126 q 768 1047 824 1047 m 768 1081 q 840 1110 811 1081 q 869 1183 869 1139 q 841 1255 869 1226 q 768 1283 813 1283 q 695 1255 724 1283 q 667 1183 667 1226 q 696 1110 667 1139 q 768 1081 725 1081 m -50 44 l 1 44 q 103 74 58 44 q 174 144 149 103 l 744 989 l 778 989 l 778 104 q 797 57 781 69 q 844 44 814 44 l 922 44 l 911 0 l 500 0 l 511 44 l 597 44 q 641 57 626 44 q 656 108 656 69 l 656 339 l 365 339 l 271 200 q 224 92 224 132 q 279 44 224 44 l 356 44 l 344 0 l -61 0 l -50 44 m 396 383 l 656 383 l 656 767 l 396 383 z "},"Ǻ":{"ha":1011,"x_min":-61,"x_max":961,"o":"m 806 1218 l 889 1297 q 938 1322 914 1322 q 954 1315 947 1322 q 961 1296 961 1307 q 951 1273 961 1282 q 921 1254 940 1264 l 814 1206 l 806 1218 m 789 1017 q 706 1040 739 1017 q 672 1106 672 1064 q 706 1171 672 1147 q 789 1194 739 1194 q 872 1171 839 1194 q 906 1106 906 1147 q 872 1040 906 1064 q 789 1017 839 1017 m 789 1050 q 848 1063 824 1050 q 872 1106 872 1075 q 848 1149 872 1136 q 789 1161 824 1161 q 730 1149 754 1161 q 706 1106 706 1136 q 730 1063 706 1075 q 789 1050 754 1050 m -50 44 l 1 44 q 103 74 58 44 q 174 144 149 103 l 744 989 l 778 989 l 778 104 q 797 57 781 69 q 844 44 814 44 l 922 44 l 911 0 l 500 0 l 511 44 l 597 44 q 641 57 626 44 q 656 108 656 69 l 656 339 l 365 339 l 271 200 q 224 92 224 132 q 279 44 224 44 l 356 44 l 344 0 l -61 0 l -50 44 m 396 383 l 656 383 l 656 767 l 396 383 z "},"Ã":{"ha":1011,"x_min":-61,"x_max":1011,"o":"m 578 1125 q 613 1215 582 1178 q 697 1253 644 1253 q 822 1224 738 1253 q 922 1200 890 1200 q 963 1215 947 1200 q 983 1258 978 1231 l 1011 1256 q 976 1165 1007 1203 q 892 1128 944 1128 q 767 1157 851 1128 q 667 1181 699 1181 q 626 1165 642 1181 q 606 1122 611 1150 l 578 1125 m -50 44 l 1 44 q 103 74 58 44 q 174 144 149 103 l 744 989 l 778 989 l 778 104 q 797 57 781 69 q 844 44 814 44 l 922 44 l 911 0 l 500 0 l 511 44 l 597 44 q 641 57 626 44 q 656 108 656 69 l 656 339 l 365 339 l 271 200 q 224 92 224 132 q 279 44 224 44 l 356 44 l 344 0 l -61 0 l -50 44 m 396 383 l 656 383 l 656 767 l 396 383 z "},"Æ":{"ha":1403,"x_min":-61,"x_max":1464,"o":"m -50 44 l 4 44 q 97 72 57 44 q 172 144 138 100 l 714 821 q 742 854 721 831 q 772 894 763 878 q 782 924 782 911 q 750 944 782 944 l 686 944 l 697 989 l 1464 989 l 1400 672 l 1365 672 q 1368 695 1367 678 q 1369 739 1369 713 q 1332 900 1369 856 q 1219 944 1294 944 l 992 944 q 961 935 972 944 q 944 907 950 926 l 844 533 l 994 533 q 1082 563 1049 533 q 1131 633 1115 593 q 1163 731 1147 674 l 1197 731 l 1076 281 l 1042 281 q 1056 385 1056 342 q 1037 461 1056 433 q 972 489 1018 489 l 832 489 l 721 82 l 718 65 q 747 44 718 44 l 1006 44 q 1090 62 1042 44 q 1178 117 1139 79 q 1249 212 1217 156 q 1301 314 1282 268 q 1325 372 1321 360 l 1358 372 l 1242 0 l 431 0 l 442 44 l 546 44 q 594 82 585 44 l 664 340 l 390 340 l 278 200 q 260 175 275 196 q 233 130 244 154 q 221 85 221 106 q 233 56 221 67 q 271 44 244 44 l 338 44 l 326 0 l -61 0 l -50 44 m 424 385 l 675 385 l 804 861 l 424 385 z "},"Ǽ":{"ha":1403,"x_min":-61,"x_max":1464,"o":"m 1044 1075 l 1192 1246 q 1225 1275 1210 1267 q 1258 1283 1240 1283 q 1297 1243 1297 1283 q 1253 1179 1297 1206 l 1061 1058 l 1044 1075 m -50 44 l 4 44 q 97 72 57 44 q 172 144 138 100 l 714 821 q 742 854 721 831 q 772 894 763 878 q 782 924 782 911 q 750 944 782 944 l 686 944 l 697 989 l 1464 989 l 1400 672 l 1365 672 q 1368 695 1367 678 q 1369 739 1369 713 q 1332 900 1369 856 q 1219 944 1294 944 l 992 944 q 961 935 972 944 q 944 907 950 926 l 844 533 l 994 533 q 1082 563 1049 533 q 1131 633 1115 593 q 1163 731 1147 674 l 1197 731 l 1076 281 l 1042 281 q 1056 385 1056 342 q 1037 461 1056 433 q 972 489 1018 489 l 832 489 l 721 82 l 718 65 q 747 44 718 44 l 1006 44 q 1090 62 1042 44 q 1178 117 1139 79 q 1249 212 1217 156 q 1301 314 1282 268 q 1325 372 1321 360 l 1358 372 l 1242 0 l 431 0 l 442 44 l 546 44 q 594 82 585 44 l 664 340 l 390 340 l 278 200 q 260 175 275 196 q 233 130 244 154 q 221 85 221 106 q 233 56 221 67 q 271 44 244 44 l 338 44 l 326 0 l -61 0 l -50 44 m 424 385 l 675 385 l 804 861 l 424 385 z "},"B":{"ha":958,"x_min":-14,"x_max":981,"o":"m -3 44 l 103 44 q 150 82 140 44 l 374 907 q 376 924 376 918 q 347 944 376 944 l 242 944 l 253 989 l 736 989 q 857 965 801 989 q 947 892 913 940 q 981 776 981 844 q 932 644 981 699 q 813 561 883 590 q 674 522 743 532 l 672 519 q 782 489 731 517 q 864 414 833 461 q 894 306 894 367 q 835 145 894 215 q 684 38 775 75 q 506 0 593 0 l -14 0 l -3 44 m 589 547 q 742 584 685 547 q 824 674 800 621 q 847 779 847 726 q 693 944 847 944 l 547 944 q 500 907 510 944 l 403 547 l 589 547 m 529 44 q 644 83 594 44 q 721 180 694 121 q 747 299 747 239 q 706 448 747 393 q 582 503 664 503 l 390 503 l 276 82 q 274 67 274 71 q 303 44 274 44 l 529 44 z "},"C":{"ha":931,"x_min":128,"x_max":972,"o":"m 422 -25 q 283 15 350 -25 q 172 140 215 56 q 128 350 128 225 q 206 664 128 510 q 406 916 283 818 q 658 1014 529 1014 q 749 994 710 1014 q 813 950 788 975 l 838 925 q 859 906 851 911 q 878 901 867 901 q 919 935 904 901 q 940 1003 935 969 l 972 1003 l 883 578 l 851 578 q 853 665 853 606 q 840 783 853 714 q 793 899 826 853 q 653 969 740 969 q 503 919 571 969 q 369 744 435 868 q 292 531 324 658 q 261 272 261 404 q 288 110 261 165 q 355 37 315 54 q 446 19 394 19 q 596 64 524 19 q 723 181 668 108 q 807 336 778 253 l 850 321 q 692 74 800 174 q 422 -25 585 -25 z "},"Ć":{"ha":931,"x_min":128,"x_max":972,"o":"m 661 1075 l 808 1246 q 842 1275 826 1267 q 875 1283 857 1283 q 914 1243 914 1283 q 869 1179 914 1206 l 678 1058 l 661 1075 m 422 -25 q 283 15 350 -25 q 172 140 215 56 q 128 350 128 225 q 206 664 128 510 q 406 916 283 818 q 658 1014 529 1014 q 749 994 710 1014 q 813 950 788 975 l 838 925 q 859 906 851 911 q 878 901 867 901 q 919 935 904 901 q 940 1003 935 969 l 972 1003 l 883 578 l 851 578 q 853 665 853 606 q 840 783 853 714 q 793 899 826 853 q 653 969 740 969 q 503 919 571 969 q 369 744 435 868 q 292 531 324 658 q 261 272 261 404 q 288 110 261 165 q 355 37 315 54 q 446 19 394 19 q 596 64 524 19 q 723 181 668 108 q 807 336 778 253 l 850 321 q 692 74 800 174 q 422 -25 585 -25 z "},"Č":{"ha":931,"x_min":128,"x_max":972,"o":"m 649 1058 l 508 1258 l 529 1278 l 699 1144 l 940 1278 l 953 1258 l 704 1058 l 649 1058 m 422 -25 q 283 15 350 -25 q 172 140 215 56 q 128 350 128 225 q 206 664 128 510 q 406 916 283 818 q 658 1014 529 1014 q 749 994 710 1014 q 813 950 788 975 l 838 925 q 859 906 851 911 q 878 901 867 901 q 919 935 904 901 q 940 1003 935 969 l 972 1003 l 883 578 l 851 578 q 853 665 853 606 q 840 783 853 714 q 793 899 826 853 q 653 969 740 969 q 503 919 571 969 q 369 744 435 868 q 292 531 324 658 q 261 272 261 404 q 288 110 261 165 q 355 37 315 54 q 446 19 394 19 q 596 64 524 19 q 723 181 668 108 q 807 336 778 253 l 850 321 q 692 74 800 174 q 422 -25 585 -25 z "},"Ç":{"ha":931,"x_min":128,"x_max":972,"o":"m 301 -331 q 224 -302 257 -331 q 192 -228 192 -274 q 209 -179 192 -200 q 251 -158 226 -158 q 284 -169 272 -158 q 296 -199 296 -179 q 263 -244 296 -233 q 251 -262 251 -250 q 263 -288 251 -279 q 307 -297 275 -297 q 379 -266 349 -297 q 410 -193 410 -235 q 390 -122 410 -154 q 365 -62 365 -82 q 375 -21 365 -42 q 254 35 310 -8 q 163 158 199 79 q 128 350 128 238 q 206 664 128 510 q 406 916 283 818 q 658 1014 529 1014 q 749 994 710 1014 q 813 950 788 975 l 838 925 q 860 906 853 911 q 878 901 867 901 q 911 919 899 901 q 930 960 924 936 q 940 1003 936 985 l 972 1003 l 883 578 l 851 578 l 853 665 q 840 783 853 714 q 793 899 826 853 q 653 969 740 969 q 503 919 571 969 q 369 744 435 868 q 292 531 324 658 q 261 272 261 404 q 288 110 261 165 q 355 37 315 54 q 446 19 394 19 q 596 64 524 19 q 723 181 668 108 q 807 336 778 253 l 850 321 q 692 74 800 174 q 422 -25 585 -25 l 417 -25 l 414 -29 q 407 -53 407 -40 q 413 -75 407 -65 q 436 -97 418 -85 q 475 -135 461 -117 q 489 -182 489 -154 q 433 -288 489 -246 q 301 -331 378 -331 z "},"Ḉ":{"ha":931,"x_min":128,"x_max":972,"o":"m 661 1075 l 808 1246 q 842 1275 826 1267 q 875 1283 857 1283 q 914 1243 914 1283 q 869 1179 914 1206 l 678 1058 l 661 1075 m 301 -331 q 224 -302 257 -331 q 192 -228 192 -274 q 209 -179 192 -200 q 251 -158 226 -158 q 284 -169 272 -158 q 296 -199 296 -179 q 263 -244 296 -233 q 251 -262 251 -250 q 263 -288 251 -279 q 307 -297 275 -297 q 379 -266 349 -297 q 410 -193 410 -235 q 390 -122 410 -154 q 365 -62 365 -82 q 375 -21 365 -42 q 254 35 310 -8 q 163 158 199 79 q 128 350 128 238 q 206 664 128 510 q 406 916 283 818 q 658 1014 529 1014 q 749 994 710 1014 q 813 950 788 975 l 838 925 q 860 906 853 911 q 878 901 867 901 q 911 919 899 901 q 930 960 924 936 q 940 1003 936 985 l 972 1003 l 883 578 l 851 578 l 853 665 q 840 783 853 714 q 793 899 826 853 q 653 969 740 969 q 503 919 571 969 q 369 744 435 868 q 292 531 324 658 q 261 272 261 404 q 288 110 261 165 q 355 37 315 54 q 446 19 394 19 q 596 64 524 19 q 723 181 668 108 q 807 336 778 253 l 850 321 q 692 74 800 174 q 422 -25 585 -25 l 417 -25 l 414 -29 q 407 -53 407 -40 q 413 -75 407 -65 q 436 -97 418 -85 q 475 -135 461 -117 q 489 -182 489 -154 q 433 -288 489 -246 q 301 -331 378 -331 z "},"Ĉ":{"ha":931,"x_min":128,"x_max":972,"o":"m 464 1081 q 708 1278 611 1153 l 764 1278 q 903 1081 796 1153 l 883 1058 q 798 1112 850 1071 q 714 1192 746 1153 q 585 1112 660 1153 q 472 1058 511 1071 l 464 1081 m 422 -25 q 283 15 350 -25 q 172 140 215 56 q 128 350 128 225 q 206 664 128 510 q 406 916 283 818 q 658 1014 529 1014 q 749 994 710 1014 q 813 950 788 975 l 838 925 q 859 906 851 911 q 878 901 867 901 q 919 935 904 901 q 940 1003 935 969 l 972 1003 l 883 578 l 851 578 q 853 665 853 606 q 840 783 853 714 q 793 899 826 853 q 653 969 740 969 q 503 919 571 969 q 369 744 435 868 q 292 531 324 658 q 261 272 261 404 q 288 110 261 165 q 355 37 315 54 q 446 19 394 19 q 596 64 524 19 q 723 181 668 108 q 807 336 778 253 l 850 321 q 692 74 800 174 q 422 -25 585 -25 z "},"Ċ":{"ha":931,"x_min":128,"x_max":972,"o":"m 717 1108 q 665 1129 686 1108 q 644 1181 644 1150 q 665 1233 644 1213 q 717 1253 686 1253 q 769 1233 749 1253 q 789 1181 789 1213 q 769 1129 789 1150 q 717 1108 749 1108 m 422 -25 q 283 15 350 -25 q 172 140 215 56 q 128 350 128 225 q 206 664 128 510 q 406 916 283 818 q 658 1014 529 1014 q 749 994 710 1014 q 813 950 788 975 l 838 925 q 859 906 851 911 q 878 901 867 901 q 919 935 904 901 q 940 1003 935 969 l 972 1003 l 883 578 l 851 578 q 853 665 853 606 q 840 783 853 714 q 793 899 826 853 q 653 969 740 969 q 503 919 571 969 q 369 744 435 868 q 292 531 324 658 q 261 272 261 404 q 288 110 261 165 q 355 37 315 54 q 446 19 394 19 q 596 64 524 19 q 723 181 668 108 q 807 336 778 253 l 850 321 q 692 74 800 174 q 422 -25 585 -25 z "},"D":{"ha":1042,"x_min":-14,"x_max":1008,"o":"m -3 44 l 103 44 q 150 82 140 44 l 374 907 q 376 924 376 918 q 347 944 376 944 l 242 944 l 254 989 l 700 989 q 867 943 797 989 q 972 816 936 897 q 1008 629 1008 735 q 968 407 1008 519 q 856 206 928 294 q 683 56 781 113 q 464 0 585 0 l -14 0 l -3 44 m 478 44 q 774 250 658 44 q 847 449 819 332 q 875 694 875 567 q 827 875 875 806 q 669 944 779 944 l 547 944 q 500 907 510 944 l 276 82 q 274 67 274 71 q 303 44 274 44 l 478 44 z "},"Ǳ":{"ha":1986,"x_min":-14,"x_max":1975,"o":"m -3 44 l 103 44 q 150 82 140 44 l 374 907 q 376 924 376 918 q 347 944 376 944 l 242 944 l 254 989 l 700 989 q 867 943 797 989 q 972 816 936 897 q 1008 629 1008 735 q 968 407 1008 519 q 856 206 928 294 q 683 56 781 113 q 464 0 585 0 l -14 0 l -3 44 m 1103 43 l 1808 944 l 1558 944 q 1448 919 1499 944 q 1342 836 1397 893 q 1283 763 1307 800 q 1249 698 1260 725 q 1238 667 1238 671 l 1203 667 l 1319 989 l 1975 989 l 1964 944 l 1261 44 l 1569 44 q 1744 110 1669 44 q 1823 206 1788 147 q 1881 316 1858 264 q 1904 372 1904 368 l 1939 372 l 1819 0 l 1092 0 l 1103 43 m 478 44 q 774 250 658 44 q 847 449 819 332 q 875 694 875 567 q 827 875 875 806 q 669 944 779 944 l 547 944 q 500 907 510 944 l 276 82 q 274 67 274 71 q 303 44 274 44 l 478 44 z "},"Ǆ":{"ha":1986,"x_min":-14,"x_max":1975,"o":"m 1607 1058 l 1467 1258 l 1488 1278 l 1657 1144 l 1899 1278 l 1911 1258 l 1663 1058 l 1607 1058 m -3 44 l 103 44 q 150 82 140 44 l 374 907 q 376 924 376 918 q 347 944 376 944 l 242 944 l 254 989 l 700 989 q 867 943 797 989 q 972 816 936 897 q 1008 629 1008 735 q 968 407 1008 519 q 856 206 928 294 q 683 56 781 113 q 464 0 585 0 l -14 0 l -3 44 m 1103 43 l 1808 944 l 1558 944 q 1448 919 1499 944 q 1342 836 1397 893 q 1283 763 1307 800 q 1249 698 1260 725 q 1238 667 1238 671 l 1203 667 l 1319 989 l 1975 989 l 1964 944 l 1261 44 l 1569 44 q 1744 110 1669 44 q 1823 206 1788 147 q 1881 316 1858 264 q 1904 372 1904 368 l 1939 372 l 1819 0 l 1092 0 l 1103 43 m 478 44 q 774 250 658 44 q 847 449 819 332 q 875 694 875 567 q 827 875 875 806 q 669 944 779 944 l 547 944 q 500 907 510 944 l 276 82 q 274 67 274 71 q 303 44 274 44 l 478 44 z "},"Ð":{"ha":1039,"x_min":-14,"x_max":1008,"o":"m -3 44 l 103 44 q 150 82 140 44 l 261 494 l 106 494 l 117 544 l 275 544 l 374 907 q 376 924 376 918 q 347 944 376 944 l 242 944 l 254 989 l 700 989 q 867 943 797 989 q 972 816 936 897 q 1008 629 1008 735 q 968 407 1008 519 q 856 206 928 294 q 683 56 781 113 q 464 0 585 0 l -14 0 l -3 44 m 478 44 q 774 250 658 44 q 847 449 819 332 q 875 694 875 567 q 827 875 875 806 q 669 944 779 944 l 547 944 q 500 907 510 944 l 401 544 l 583 544 l 572 494 l 389 494 l 276 82 q 274 67 274 71 q 303 44 274 44 l 478 44 z "},"Ď":{"ha":1042,"x_min":-14,"x_max":1008,"o":"m 607 1058 l 467 1258 l 488 1278 l 657 1144 l 899 1278 l 911 1258 l 663 1058 l 607 1058 m -3 44 l 103 44 q 150 82 140 44 l 374 907 q 376 924 376 918 q 347 944 376 944 l 242 944 l 254 989 l 700 989 q 867 943 797 989 q 972 816 936 897 q 1008 629 1008 735 q 968 407 1008 519 q 856 206 928 294 q 683 56 781 113 q 464 0 585 0 l -14 0 l -3 44 m 478 44 q 774 250 658 44 q 847 449 819 332 q 875 694 875 567 q 827 875 875 806 q 669 944 779 944 l 547 944 q 500 907 510 944 l 276 82 q 274 67 274 71 q 303 44 274 44 l 478 44 z "},"Đ":{"ha":1039,"x_min":-14,"x_max":1008,"o":"m -3 44 l 103 44 q 150 82 140 44 l 261 494 l 106 494 l 117 544 l 275 544 l 374 907 q 376 924 376 918 q 347 944 376 944 l 242 944 l 254 989 l 700 989 q 867 943 797 989 q 972 816 936 897 q 1008 629 1008 735 q 968 407 1008 519 q 856 206 928 294 q 683 56 781 113 q 464 0 585 0 l -14 0 l -3 44 m 478 44 q 774 250 658 44 q 847 449 819 332 q 875 694 875 567 q 827 875 875 806 q 669 944 779 944 l 547 944 q 500 907 510 944 l 401 544 l 583 544 l 572 494 l 389 494 l 276 82 q 274 67 274 71 q 303 44 274 44 l 478 44 z "},"Ḍ":{"ha":1042,"x_min":-14,"x_max":1008,"o":"m -3 44 l 103 44 q 150 82 140 44 l 374 907 q 376 924 376 918 q 347 944 376 944 l 242 944 l 254 989 l 700 989 q 867 943 797 989 q 972 816 936 897 q 1008 629 1008 735 q 968 407 1008 519 q 856 206 928 294 q 683 56 781 113 q 464 0 585 0 l -14 0 l -3 44 m 478 44 q 774 250 658 44 q 847 449 819 332 q 875 694 875 567 q 827 875 875 806 q 669 944 779 944 l 547 944 q 500 907 510 944 l 276 82 q 274 67 274 71 q 303 44 274 44 l 478 44 m 261 -281 q 210 -260 231 -281 q 189 -208 189 -240 q 210 -157 189 -178 q 261 -136 231 -136 q 313 -157 293 -136 q 333 -208 333 -178 q 313 -260 333 -240 q 261 -281 293 -281 z "},"Ḏ":{"ha":1042,"x_min":-14,"x_max":1008,"o":"m -3 44 l 103 44 q 150 82 140 44 l 374 907 q 376 924 376 918 q 347 944 376 944 l 242 944 l 254 989 l 700 989 q 867 943 797 989 q 972 816 936 897 q 1008 629 1008 735 q 968 407 1008 519 q 856 206 928 294 q 683 56 781 113 q 464 0 585 0 l -14 0 l -3 44 m 478 44 q 774 250 658 44 q 847 449 819 332 q 875 694 875 567 q 827 875 875 806 q 669 944 779 944 l 547 944 q 500 907 510 944 l 276 82 q 274 67 274 71 q 303 44 274 44 l 478 44 m 39 -233 l 53 -178 l 489 -178 l 475 -233 l 39 -233 z "},"ǲ":{"ha":1653,"x_min":-14,"x_max":1611,"o":"m -3 44 l 103 44 q 150 82 140 44 l 374 907 q 376 924 376 918 q 347 944 376 944 l 242 944 l 254 989 l 700 989 q 867 943 797 989 q 972 816 936 897 q 1008 629 1008 735 q 968 407 1008 519 q 856 206 928 294 q 683 56 781 113 q 464 0 585 0 l -14 0 l -3 44 m 478 44 q 774 250 658 44 q 847 449 819 332 q 875 694 875 567 q 827 875 875 806 q 669 944 779 944 l 547 944 q 500 907 510 944 l 276 82 q 274 67 274 71 q 303 44 274 44 l 478 44 m 1128 -17 q 1092 -1 1106 -17 q 1078 42 1078 15 q 1150 215 1078 139 q 1315 329 1222 290 q 1488 413 1438 379 q 1557 489 1539 446 l 1554 494 q 1483 467 1517 467 q 1434 476 1454 467 q 1390 503 1414 485 q 1356 526 1371 518 q 1322 533 1342 533 q 1228 493 1263 533 q 1172 397 1194 453 l 1150 407 q 1222 559 1171 485 q 1342 633 1272 633 q 1407 612 1379 633 q 1460 554 1435 590 q 1490 519 1478 531 q 1514 508 1501 508 q 1544 515 1533 508 q 1554 533 1554 522 q 1552 544 1554 540 q 1542 553 1550 549 q 1526 567 1533 557 q 1519 589 1519 576 q 1529 621 1519 608 q 1558 633 1539 633 q 1598 615 1585 633 q 1611 567 1611 596 q 1579 469 1611 521 q 1492 373 1547 418 q 1374 300 1438 328 q 1231 235 1276 258 q 1167 194 1186 213 q 1143 149 1149 175 q 1249 108 1201 133 q 1313 81 1283 90 q 1381 72 1343 72 q 1483 122 1443 72 q 1543 238 1522 172 l 1569 226 q 1492 53 1539 124 q 1365 -17 1444 -17 q 1279 5 1314 -17 q 1213 64 1244 26 q 1181 95 1194 85 q 1154 106 1168 106 q 1125 83 1125 106 q 1146 61 1125 68 q 1169 26 1169 51 q 1159 -4 1169 8 q 1128 -17 1149 -17 z "},"ǅ":{"ha":1653,"x_min":-14,"x_max":1689,"o":"m -3 44 l 103 44 q 150 82 140 44 l 374 907 q 376 924 376 918 q 347 944 376 944 l 242 944 l 254 989 l 700 989 q 867 943 797 989 q 972 816 936 897 q 1008 629 1008 735 q 968 407 1008 519 q 856 206 928 294 q 683 56 781 113 q 464 0 585 0 l -14 0 l -3 44 m 478 44 q 774 250 658 44 q 847 449 819 332 q 875 694 875 567 q 827 875 875 806 q 669 944 779 944 l 547 944 q 500 907 510 944 l 276 82 q 274 67 274 71 q 303 44 274 44 l 478 44 m 1421 706 l 1322 918 l 1344 933 l 1472 794 l 1675 933 l 1689 918 l 1476 706 l 1421 706 m 1128 -17 q 1092 -1 1106 -17 q 1078 42 1078 15 q 1150 215 1078 139 q 1315 329 1222 290 q 1488 413 1438 379 q 1557 489 1539 446 l 1554 494 q 1483 467 1517 467 q 1434 476 1454 467 q 1390 503 1414 485 q 1356 526 1371 518 q 1322 533 1342 533 q 1228 493 1263 533 q 1172 397 1194 453 l 1150 407 q 1222 559 1171 485 q 1342 633 1272 633 q 1407 612 1379 633 q 1460 554 1435 590 q 1490 519 1478 531 q 1514 508 1501 508 q 1544 515 1533 508 q 1554 533 1554 522 q 1552 544 1554 540 q 1542 553 1550 549 q 1526 567 1533 557 q 1519 589 1519 576 q 1529 621 1519 608 q 1558 633 1539 633 q 1598 615 1585 633 q 1611 567 1611 596 q 1579 469 1611 521 q 1492 373 1547 418 q 1374 300 1438 328 q 1231 235 1276 258 q 1167 194 1186 213 q 1143 149 1149 175 q 1249 108 1201 133 q 1313 81 1283 90 q 1381 72 1343 72 q 1483 122 1443 72 q 1543 238 1522 172 l 1569 226 q 1492 53 1539 124 q 1365 -17 1444 -17 q 1279 5 1314 -17 q 1213 64 1244 26 q 1181 95 1194 85 q 1154 106 1168 106 q 1125 83 1125 106 q 1146 61 1125 68 q 1169 26 1169 51 q 1159 -4 1169 8 q 1128 -17 1149 -17 z "},"E":{"ha":972,"x_min":-14,"x_max":1019,"o":"m -3 44 l 103 44 q 150 82 140 44 l 374 907 q 376 924 376 918 q 347 944 376 944 l 242 944 l 253 989 l 1019 989 l 956 672 l 921 672 q 924 695 922 678 q 925 739 925 713 q 888 900 925 856 q 775 944 850 944 l 547 944 q 500 907 510 944 l 399 533 l 549 533 q 636 563 603 533 q 685 633 669 593 q 717 731 701 674 l 751 731 l 632 281 l 597 281 q 611 385 611 342 q 592 461 611 433 q 528 489 574 489 l 388 489 l 276 82 q 274 67 274 71 q 303 44 274 44 l 561 44 q 646 62 597 44 q 733 117 694 79 q 805 212 772 156 q 857 314 838 268 q 881 372 876 360 l 914 372 l 797 0 l -14 0 l -3 44 z "},"É":{"ha":972,"x_min":-14,"x_max":1019,"o":"m 647 1075 l 794 1246 q 828 1275 813 1267 q 861 1283 843 1283 q 900 1243 900 1283 q 856 1179 900 1206 l 664 1058 l 647 1075 m -3 44 l 103 44 q 150 82 140 44 l 374 907 q 376 924 376 918 q 347 944 376 944 l 242 944 l 253 989 l 1019 989 l 956 672 l 921 672 q 924 695 922 678 q 925 739 925 713 q 888 900 925 856 q 775 944 850 944 l 547 944 q 500 907 510 944 l 399 533 l 549 533 q 636 563 603 533 q 685 633 669 593 q 717 731 701 674 l 751 731 l 632 281 l 597 281 q 611 385 611 342 q 592 461 611 433 q 528 489 574 489 l 388 489 l 276 82 q 274 67 274 71 q 303 44 274 44 l 561 44 q 646 62 597 44 q 733 117 694 79 q 805 212 772 156 q 857 314 838 268 q 881 372 876 360 l 914 372 l 797 0 l -14 0 l -3 44 z "},"Ĕ":{"ha":972,"x_min":-14,"x_max":1019,"o":"m 681 1058 q 560 1106 599 1058 q 522 1218 522 1153 q 529 1272 522 1244 l 568 1272 l 568 1261 q 600 1163 568 1204 q 699 1122 632 1122 q 826 1168 769 1122 q 910 1272 882 1214 l 949 1272 q 899 1176 936 1226 q 806 1092 863 1126 q 681 1058 749 1058 m -3 44 l 103 44 q 150 82 140 44 l 374 907 q 376 924 376 918 q 347 944 376 944 l 242 944 l 253 989 l 1019 989 l 956 672 l 921 672 q 924 695 922 678 q 925 739 925 713 q 888 900 925 856 q 775 944 850 944 l 547 944 q 500 907 510 944 l 399 533 l 549 533 q 636 563 603 533 q 685 633 669 593 q 717 731 701 674 l 751 731 l 632 281 l 597 281 q 611 385 611 342 q 592 461 611 433 q 528 489 574 489 l 388 489 l 276 82 q 274 67 274 71 q 303 44 274 44 l 561 44 q 646 62 597 44 q 733 117 694 79 q 805 212 772 156 q 857 314 838 268 q 881 372 876 360 l 914 372 l 797 0 l -14 0 l -3 44 z "},"Ě":{"ha":972,"x_min":-14,"x_max":1019,"o":"m 635 1058 l 494 1258 l 515 1278 l 685 1144 l 926 1278 l 939 1258 l 690 1058 l 635 1058 m -3 44 l 103 44 q 150 82 140 44 l 374 907 q 376 924 376 918 q 347 944 376 944 l 242 944 l 253 989 l 1019 989 l 956 672 l 921 672 q 924 695 922 678 q 925 739 925 713 q 888 900 925 856 q 775 944 850 944 l 547 944 q 500 907 510 944 l 399 533 l 549 533 q 636 563 603 533 q 685 633 669 593 q 717 731 701 674 l 751 731 l 632 281 l 597 281 q 611 385 611 342 q 592 461 611 433 q 528 489 574 489 l 388 489 l 276 82 q 274 67 274 71 q 303 44 274 44 l 561 44 q 646 62 597 44 q 733 117 694 79 q 805 212 772 156 q 857 314 838 268 q 881 372 876 360 l 914 372 l 797 0 l -14 0 l -3 44 z "},"Ḝ":{"ha":972,"x_min":-14,"x_max":1019,"o":"m 681 1058 q 560 1106 599 1058 q 522 1218 522 1153 q 529 1272 522 1244 l 568 1272 l 568 1261 q 600 1163 568 1204 q 699 1122 632 1122 q 826 1168 769 1122 q 910 1272 882 1214 l 949 1272 q 899 1176 936 1226 q 806 1092 863 1126 q 681 1058 749 1058 m 346 -331 q 269 -302 301 -331 q 236 -228 236 -274 q 253 -179 236 -200 q 296 -158 271 -158 q 328 -169 317 -158 q 340 -199 340 -179 q 307 -244 340 -233 q 296 -262 296 -250 q 308 -288 296 -279 q 351 -297 319 -297 q 424 -266 393 -297 q 454 -193 454 -235 q 435 -122 454 -154 q 410 -62 410 -82 q 422 -15 410 -39 l 432 0 l -14 0 l -3 44 l 103 44 q 150 82 140 44 l 374 907 q 376 924 376 918 q 347 944 376 944 l 242 944 l 253 989 l 1019 989 l 956 672 l 921 672 q 924 695 922 678 q 925 739 925 713 q 888 900 925 856 q 775 944 850 944 l 547 944 q 500 907 510 944 l 399 533 l 549 533 q 636 563 603 533 q 685 633 669 593 q 717 731 701 674 l 751 731 l 632 281 l 597 281 q 611 385 611 342 q 592 461 611 433 q 528 489 574 489 l 388 489 l 276 82 q 274 67 274 71 q 303 44 274 44 l 561 44 q 646 62 597 44 q 733 117 694 79 q 805 212 772 156 q 857 314 838 268 q 881 372 876 360 l 914 372 l 797 0 l 475 0 l 458 -29 q 451 -53 451 -40 q 457 -75 451 -65 q 481 -97 463 -85 q 519 -135 506 -117 q 533 -182 533 -154 q 478 -288 533 -246 q 346 -331 422 -331 z "},"Ê":{"ha":972,"x_min":-14,"x_max":1019,"o":"m 450 1081 q 694 1278 597 1153 l 750 1278 q 889 1081 782 1153 l 869 1058 q 784 1112 836 1071 q 700 1192 732 1153 q 572 1112 646 1153 q 458 1058 497 1071 l 450 1081 m -3 44 l 103 44 q 150 82 140 44 l 374 907 q 376 924 376 918 q 347 944 376 944 l 242 944 l 253 989 l 1019 989 l 956 672 l 921 672 q 924 695 922 678 q 925 739 925 713 q 888 900 925 856 q 775 944 850 944 l 547 944 q 500 907 510 944 l 399 533 l 549 533 q 636 563 603 533 q 685 633 669 593 q 717 731 701 674 l 751 731 l 632 281 l 597 281 q 611 385 611 342 q 592 461 611 433 q 528 489 574 489 l 388 489 l 276 82 q 274 67 274 71 q 303 44 274 44 l 561 44 q 646 62 597 44 q 733 117 694 79 q 805 212 772 156 q 857 314 838 268 q 881 372 876 360 l 914 372 l 797 0 l -14 0 l -3 44 z "},"Ế":{"ha":972,"x_min":-14,"x_max":1106,"o":"m -3 44 l 103 44 q 150 82 140 44 l 374 907 q 376 924 376 918 q 347 944 376 944 l 242 944 l 253 989 l 1019 989 l 956 672 l 921 672 q 924 695 922 678 q 925 739 925 713 q 888 900 925 856 q 775 944 850 944 l 547 944 q 500 907 510 944 l 399 533 l 549 533 q 636 563 603 533 q 685 633 669 593 q 717 731 701 674 l 751 731 l 632 281 l 597 281 q 611 385 611 342 q 592 461 611 433 q 528 489 574 489 l 388 489 l 276 82 q 274 67 274 71 q 303 44 274 44 l 561 44 q 646 62 597 44 q 733 117 694 79 q 805 212 772 156 q 857 314 838 268 q 881 372 876 360 l 914 372 l 797 0 l -14 0 l -3 44 m 507 1096 q 718 1306 631 1161 l 774 1306 q 871 1096 786 1161 l 854 1078 q 719 1206 771 1128 q 515 1078 622 1126 l 507 1096 m 853 1206 l 1000 1376 q 1033 1406 1018 1397 q 1067 1414 1049 1414 q 1097 1402 1088 1414 q 1106 1374 1106 1390 q 1061 1310 1106 1338 l 869 1189 l 853 1206 z "},"Ệ":{"ha":972,"x_min":-14,"x_max":1019,"o":"m -3 44 l 103 44 q 150 82 140 44 l 374 907 q 376 924 376 918 q 347 944 376 944 l 242 944 l 253 989 l 1019 989 l 956 672 l 921 672 q 924 695 922 678 q 925 739 925 713 q 888 900 925 856 q 775 944 850 944 l 547 944 q 500 907 510 944 l 399 533 l 549 533 q 636 563 603 533 q 685 633 669 593 q 717 731 701 674 l 751 731 l 632 281 l 597 281 q 611 385 611 342 q 592 461 611 433 q 528 489 574 489 l 388 489 l 276 82 q 274 67 274 71 q 303 44 274 44 l 561 44 q 646 62 597 44 q 733 117 694 79 q 805 212 772 156 q 857 314 838 268 q 881 372 876 360 l 914 372 l 797 0 l -14 0 l -3 44 m 347 -281 q 295 -260 315 -281 q 275 -208 275 -240 q 295 -157 275 -178 q 347 -136 315 -136 q 399 -157 378 -136 q 419 -208 419 -178 q 399 -260 419 -240 q 347 -281 378 -281 m 451 1081 q 696 1278 599 1153 l 751 1278 q 890 1081 783 1153 l 871 1058 q 785 1112 838 1071 q 701 1192 733 1153 q 573 1112 647 1153 q 460 1058 499 1071 l 451 1081 z "},"Ề":{"ha":972,"x_min":-14,"x_max":1019,"o":"m -3 44 l 103 44 q 150 82 140 44 l 374 907 q 376 924 376 918 q 347 944 376 944 l 242 944 l 253 989 l 1019 989 l 956 672 l 921 672 q 924 695 922 678 q 925 739 925 713 q 888 900 925 856 q 775 944 850 944 l 547 944 q 500 907 510 944 l 399 533 l 549 533 q 636 563 603 533 q 685 633 669 593 q 717 731 701 674 l 751 731 l 632 281 l 597 281 q 611 385 611 342 q 592 461 611 433 q 528 489 574 489 l 388 489 l 276 82 q 274 67 274 71 q 303 44 274 44 l 561 44 q 646 62 597 44 q 733 117 694 79 q 805 212 772 156 q 857 314 838 268 q 881 372 876 360 l 914 372 l 797 0 l -14 0 l -3 44 m 507 1096 q 718 1306 631 1161 l 774 1306 q 871 1096 786 1161 l 854 1078 q 719 1206 771 1128 q 515 1078 622 1126 l 507 1096 m 765 1394 q 746 1443 746 1417 q 757 1476 746 1460 q 796 1493 768 1493 q 829 1481 817 1493 q 851 1439 842 1468 l 907 1274 l 883 1260 l 765 1394 z "},"Ể":{"ha":972,"x_min":-14,"x_max":1019,"o":"m -3 44 l 103 44 q 150 82 140 44 l 374 907 q 376 924 376 918 q 347 944 376 944 l 242 944 l 253 989 l 1019 989 l 956 672 l 921 672 q 924 695 922 678 q 925 739 925 713 q 888 900 925 856 q 775 944 850 944 l 547 944 q 500 907 510 944 l 399 533 l 549 533 q 636 563 603 533 q 685 633 669 593 q 717 731 701 674 l 751 731 l 632 281 l 597 281 q 611 385 611 342 q 592 461 611 433 q 528 489 574 489 l 388 489 l 276 82 q 274 67 274 71 q 303 44 274 44 l 561 44 q 646 62 597 44 q 733 117 694 79 q 805 212 772 156 q 857 314 838 268 q 881 372 876 360 l 914 372 l 797 0 l -14 0 l -3 44 m 507 1096 q 718 1306 631 1161 l 774 1306 q 871 1096 786 1161 l 854 1078 q 719 1206 771 1128 q 515 1078 622 1126 l 507 1096 m 885 1328 q 939 1408 929 1360 q 942 1429 942 1422 q 926 1470 942 1454 q 879 1486 911 1486 q 824 1471 850 1486 q 794 1436 797 1456 q 794 1418 790 1422 q 798 1415 796 1417 q 801 1415 800 1414 q 807 1417 803 1414 q 813 1417 811 1418 q 818 1418 815 1417 q 838 1397 838 1415 q 826 1372 838 1382 q 794 1361 814 1361 q 770 1372 781 1361 q 760 1403 760 1383 q 801 1476 760 1446 q 889 1507 842 1506 q 966 1485 935 1506 q 997 1426 997 1464 q 966 1351 997 1381 q 876 1285 935 1321 l 828 1285 l 885 1328 z "},"Ễ":{"ha":972,"x_min":-14,"x_max":1019,"o":"m -3 44 l 103 44 q 150 82 140 44 l 374 907 q 376 924 376 918 q 347 944 376 944 l 242 944 l 253 989 l 1019 989 l 956 672 l 921 672 q 924 695 922 678 q 925 739 925 713 q 888 900 925 856 q 775 944 850 944 l 547 944 q 500 907 510 944 l 399 533 l 549 533 q 636 563 603 533 q 685 633 669 593 q 717 731 701 674 l 751 731 l 632 281 l 597 281 q 611 385 611 342 q 592 461 611 433 q 528 489 574 489 l 388 489 l 276 82 q 274 67 274 71 q 303 44 274 44 l 561 44 q 646 62 597 44 q 733 117 694 79 q 805 212 772 156 q 857 314 838 268 q 881 372 876 360 l 914 372 l 797 0 l -14 0 l -3 44 m 507 1096 q 718 1306 631 1161 l 774 1306 q 871 1096 786 1161 l 854 1078 q 719 1206 771 1128 q 515 1078 622 1126 l 507 1096 m 582 1328 q 611 1420 582 1382 q 693 1458 640 1458 q 747 1451 724 1458 q 800 1428 769 1443 q 845 1409 828 1415 q 885 1403 863 1403 q 919 1417 908 1403 q 935 1458 931 1431 l 965 1458 q 936 1366 965 1404 q 854 1328 907 1328 q 801 1335 824 1328 q 747 1358 778 1343 q 702 1377 719 1371 q 663 1383 685 1383 q 628 1369 639 1383 q 613 1328 617 1356 l 582 1328 z "},"Ȅ":{"ha":972,"x_min":-14,"x_max":1019,"o":"m 435 1193 q 419 1217 425 1203 q 414 1243 414 1232 q 424 1276 414 1260 q 463 1292 435 1292 q 521 1240 504 1292 l 578 1071 l 557 1058 l 435 1193 m 649 1193 q 633 1217 639 1203 q 628 1243 628 1232 q 638 1276 628 1260 q 676 1292 649 1292 q 735 1240 718 1292 l 792 1071 l 771 1058 l 649 1193 m -3 44 l 103 44 q 150 82 140 44 l 374 907 q 376 924 376 918 q 347 944 376 944 l 242 944 l 253 989 l 1019 989 l 956 672 l 921 672 q 924 695 922 678 q 925 739 925 713 q 888 900 925 856 q 775 944 850 944 l 547 944 q 500 907 510 944 l 399 533 l 549 533 q 636 563 603 533 q 685 633 669 593 q 717 731 701 674 l 751 731 l 632 281 l 597 281 q 611 385 611 342 q 592 461 611 433 q 528 489 574 489 l 388 489 l 276 82 q 274 67 274 71 q 303 44 274 44 l 561 44 q 646 62 597 44 q 733 117 694 79 q 805 212 772 156 q 857 314 838 268 q 881 372 876 360 l 914 372 l 797 0 l -14 0 l -3 44 z "},"Ë":{"ha":972,"x_min":-14,"x_max":1019,"o":"m 561 1108 q 510 1129 531 1108 q 489 1181 489 1150 q 510 1233 489 1213 q 561 1253 531 1253 q 613 1233 593 1253 q 633 1181 633 1213 q 613 1129 633 1150 q 561 1108 593 1108 m 844 1108 q 793 1129 814 1108 q 772 1181 772 1150 q 793 1233 772 1213 q 844 1253 814 1253 q 897 1233 876 1253 q 917 1181 917 1213 q 897 1129 917 1150 q 844 1108 876 1108 m -3 44 l 103 44 q 150 82 140 44 l 374 907 q 376 924 376 918 q 347 944 376 944 l 242 944 l 253 989 l 1019 989 l 956 672 l 921 672 q 924 695 922 678 q 925 739 925 713 q 888 900 925 856 q 775 944 850 944 l 547 944 q 500 907 510 944 l 399 533 l 549 533 q 636 563 603 533 q 685 633 669 593 q 717 731 701 674 l 751 731 l 632 281 l 597 281 q 611 385 611 342 q 592 461 611 433 q 528 489 574 489 l 388 489 l 276 82 q 274 67 274 71 q 303 44 274 44 l 561 44 q 646 62 597 44 q 733 117 694 79 q 805 212 772 156 q 857 314 838 268 q 881 372 876 360 l 914 372 l 797 0 l -14 0 l -3 44 z "},"Ė":{"ha":972,"x_min":-14,"x_max":1019,"o":"m 703 1108 q 651 1129 672 1108 q 631 1181 631 1150 q 651 1233 631 1213 q 703 1253 672 1253 q 755 1233 735 1253 q 775 1181 775 1213 q 755 1129 775 1150 q 703 1108 735 1108 m -3 44 l 103 44 q 150 82 140 44 l 374 907 q 376 924 376 918 q 347 944 376 944 l 242 944 l 253 989 l 1019 989 l 956 672 l 921 672 q 924 695 922 678 q 925 739 925 713 q 888 900 925 856 q 775 944 850 944 l 547 944 q 500 907 510 944 l 399 533 l 549 533 q 636 563 603 533 q 685 633 669 593 q 717 731 701 674 l 751 731 l 632 281 l 597 281 q 611 385 611 342 q 592 461 611 433 q 528 489 574 489 l 388 489 l 276 82 q 274 67 274 71 q 303 44 274 44 l 561 44 q 646 62 597 44 q 733 117 694 79 q 805 212 772 156 q 857 314 838 268 q 881 372 876 360 l 914 372 l 797 0 l -14 0 l -3 44 z "},"Ẹ":{"ha":972,"x_min":-14,"x_max":1019,"o":"m -3 44 l 103 44 q 150 82 140 44 l 374 907 q 376 924 376 918 q 347 944 376 944 l 242 944 l 253 989 l 1019 989 l 956 672 l 921 672 q 924 695 922 678 q 925 739 925 713 q 888 900 925 856 q 775 944 850 944 l 547 944 q 500 907 510 944 l 399 533 l 549 533 q 636 563 603 533 q 685 633 669 593 q 717 731 701 674 l 751 731 l 632 281 l 597 281 q 611 385 611 342 q 592 461 611 433 q 528 489 574 489 l 388 489 l 276 82 q 274 67 274 71 q 303 44 274 44 l 561 44 q 646 62 597 44 q 733 117 694 79 q 805 212 772 156 q 857 314 838 268 q 881 372 876 360 l 914 372 l 797 0 l -14 0 l -3 44 m 347 -281 q 295 -260 315 -281 q 275 -208 275 -240 q 295 -157 275 -178 q 347 -136 315 -136 q 399 -157 378 -136 q 419 -208 419 -178 q 399 -260 419 -240 q 347 -281 378 -281 z "},"È":{"ha":972,"x_min":-14,"x_max":1019,"o":"m 538 1193 q 522 1217 528 1203 q 517 1243 517 1232 q 527 1276 517 1260 q 565 1292 538 1292 q 624 1240 607 1292 l 681 1071 l 660 1058 l 538 1193 m -3 44 l 103 44 q 150 82 140 44 l 374 907 q 376 924 376 918 q 347 944 376 944 l 242 944 l 253 989 l 1019 989 l 956 672 l 921 672 q 924 695 922 678 q 925 739 925 713 q 888 900 925 856 q 775 944 850 944 l 547 944 q 500 907 510 944 l 399 533 l 549 533 q 636 563 603 533 q 685 633 669 593 q 717 731 701 674 l 751 731 l 632 281 l 597 281 q 611 385 611 342 q 592 461 611 433 q 528 489 574 489 l 388 489 l 276 82 q 274 67 274 71 q 303 44 274 44 l 561 44 q 646 62 597 44 q 733 117 694 79 q 805 212 772 156 q 857 314 838 268 q 881 372 876 360 l 914 372 l 797 0 l -14 0 l -3 44 z "},"Ẻ":{"ha":972,"x_min":-14,"x_max":1019,"o":"m -3 44 l 103 44 q 150 82 140 44 l 374 907 q 376 924 376 918 q 347 944 376 944 l 242 944 l 253 989 l 1019 989 l 956 672 l 921 672 q 924 695 922 678 q 925 739 925 713 q 888 900 925 856 q 775 944 850 944 l 547 944 q 500 907 510 944 l 399 533 l 549 533 q 636 563 603 533 q 685 633 669 593 q 717 731 701 674 l 751 731 l 632 281 l 597 281 q 611 385 611 342 q 592 461 611 433 q 528 489 574 489 l 388 489 l 276 82 q 274 67 274 71 q 303 44 274 44 l 561 44 q 646 62 597 44 q 733 117 694 79 q 805 212 772 156 q 857 314 838 268 q 881 372 876 360 l 914 372 l 797 0 l -14 0 l -3 44 m 728 1113 q 782 1193 772 1144 q 785 1214 785 1207 q 769 1255 785 1239 q 722 1271 754 1271 q 667 1256 693 1271 q 638 1221 640 1240 q 638 1203 633 1207 q 641 1200 639 1201 q 644 1200 643 1199 q 650 1201 646 1199 q 656 1202 654 1203 q 661 1203 658 1201 q 681 1182 681 1200 q 669 1156 681 1167 q 638 1146 657 1146 q 613 1157 624 1146 q 603 1188 603 1168 q 644 1260 603 1231 q 732 1292 685 1290 q 809 1269 778 1290 q 840 1211 840 1249 q 809 1135 840 1165 q 719 1069 778 1106 l 671 1069 l 728 1113 z "},"Ȇ":{"ha":972,"x_min":-14,"x_max":1019,"o":"m 472 1069 q 540 1161 497 1113 q 635 1244 583 1210 q 733 1278 686 1278 q 811 1244 779 1278 q 859 1162 843 1210 q 878 1069 875 1114 l 850 1058 q 804 1161 840 1122 q 713 1200 768 1200 q 601 1160 657 1200 q 500 1058 546 1121 l 472 1069 m -3 44 l 103 44 q 150 82 140 44 l 374 907 q 376 924 376 918 q 347 944 376 944 l 242 944 l 253 989 l 1019 989 l 956 672 l 921 672 q 924 695 922 678 q 925 739 925 713 q 888 900 925 856 q 775 944 850 944 l 547 944 q 500 907 510 944 l 399 533 l 549 533 q 636 563 603 533 q 685 633 669 593 q 717 731 701 674 l 751 731 l 632 281 l 597 281 q 611 385 611 342 q 592 461 611 433 q 528 489 574 489 l 388 489 l 276 82 q 274 67 274 71 q 303 44 274 44 l 561 44 q 646 62 597 44 q 733 117 694 79 q 805 212 772 156 q 857 314 838 268 q 881 372 876 360 l 914 372 l 797 0 l -14 0 l -3 44 z "},"Ē":{"ha":972,"x_min":-14,"x_max":1019,"o":"m 475 1142 l 489 1197 l 925 1197 l 911 1142 l 475 1142 m -3 44 l 103 44 q 150 82 140 44 l 374 907 q 376 924 376 918 q 347 944 376 944 l 242 944 l 253 989 l 1019 989 l 956 672 l 921 672 q 924 695 922 678 q 925 739 925 713 q 888 900 925 856 q 775 944 850 944 l 547 944 q 500 907 510 944 l 399 533 l 549 533 q 636 563 603 533 q 685 633 669 593 q 717 731 701 674 l 751 731 l 632 281 l 597 281 q 611 385 611 342 q 592 461 611 433 q 528 489 574 489 l 388 489 l 276 82 q 274 67 274 71 q 303 44 274 44 l 561 44 q 646 62 597 44 q 733 117 694 79 q 805 212 772 156 q 857 314 838 268 q 881 372 876 360 l 914 372 l 797 0 l -14 0 l -3 44 z "},"Ḗ":{"ha":972,"x_min":-14,"x_max":1019,"o":"m 668 1163 l 769 1281 q 801 1312 788 1301 q 831 1322 815 1322 q 859 1310 849 1322 q 869 1285 869 1299 q 819 1228 869 1256 l 679 1150 l 668 1163 m 469 1078 l 483 1128 l 897 1128 l 883 1078 l 469 1078 m -3 44 l 103 44 q 150 82 140 44 l 374 907 q 376 924 376 918 q 347 944 376 944 l 242 944 l 253 989 l 1019 989 l 956 672 l 921 672 q 924 695 922 678 q 925 739 925 713 q 888 900 925 856 q 775 944 850 944 l 547 944 q 500 907 510 944 l 399 533 l 549 533 q 636 563 603 533 q 685 633 669 593 q 717 731 701 674 l 751 731 l 632 281 l 597 281 q 611 385 611 342 q 592 461 611 433 q 528 489 574 489 l 388 489 l 276 82 q 274 67 274 71 q 303 44 274 44 l 561 44 q 646 62 597 44 q 733 117 694 79 q 805 212 772 156 q 857 314 838 268 q 881 372 876 360 l 914 372 l 797 0 l -14 0 l -3 44 z "},"Ḕ":{"ha":972,"x_min":-14,"x_max":1019,"o":"m 654 1243 q 633 1288 633 1264 q 644 1311 633 1300 q 671 1322 654 1322 q 715 1279 696 1322 l 767 1158 l 750 1147 l 654 1243 m 469 1078 l 483 1128 l 897 1128 l 883 1078 l 469 1078 m -3 44 l 103 44 q 150 82 140 44 l 374 907 q 376 924 376 918 q 347 944 376 944 l 242 944 l 253 989 l 1019 989 l 956 672 l 921 672 q 924 695 922 678 q 925 739 925 713 q 888 900 925 856 q 775 944 850 944 l 547 944 q 500 907 510 944 l 399 533 l 549 533 q 636 563 603 533 q 685 633 669 593 q 717 731 701 674 l 751 731 l 632 281 l 597 281 q 611 385 611 342 q 592 461 611 433 q 528 489 574 489 l 388 489 l 276 82 q 274 67 274 71 q 303 44 274 44 l 561 44 q 646 62 597 44 q 733 117 694 79 q 805 212 772 156 q 857 314 838 268 q 881 372 876 360 l 914 372 l 797 0 l -14 0 l -3 44 z "},"Ę":{"ha":972,"x_min":-14,"x_max":1019,"o":"m 549 -343 q 467 -316 503 -343 q 431 -235 431 -289 q 607 -7 431 -121 l 606 0 l -14 0 l -3 44 l 103 44 q 150 82 140 44 l 374 907 q 376 924 376 918 q 347 944 376 944 l 242 944 l 253 989 l 1019 989 l 956 672 l 921 672 q 924 695 922 678 q 925 739 925 713 q 888 900 925 856 q 775 944 850 944 l 547 944 q 500 907 510 944 l 399 533 l 549 533 q 636 563 603 533 q 685 633 669 593 q 717 731 701 674 l 751 731 l 632 281 l 597 281 q 611 385 611 342 q 592 461 611 433 q 528 489 574 489 l 388 489 l 276 82 q 274 67 274 71 q 303 44 274 44 l 561 44 q 646 62 597 44 q 733 117 694 79 q 805 212 772 156 q 857 314 838 268 q 881 372 876 360 l 914 372 l 797 0 l 678 0 q 556 -98 604 -43 q 508 -206 508 -153 q 521 -242 508 -231 q 553 -254 533 -254 q 597 -239 576 -254 q 622 -221 613 -225 q 644 -217 631 -217 q 670 -228 661 -217 q 679 -256 679 -239 q 664 -295 679 -275 q 619 -329 649 -315 q 549 -343 590 -343 z "},"Ẽ":{"ha":972,"x_min":-14,"x_max":1019,"o":"m -3 44 l 103 44 q 150 82 140 44 l 374 907 q 376 924 376 918 q 347 944 376 944 l 242 944 l 253 989 l 1019 989 l 956 672 l 921 672 q 924 695 922 678 q 925 739 925 713 q 888 900 925 856 q 775 944 850 944 l 547 944 q 500 907 510 944 l 399 533 l 549 533 q 636 563 603 533 q 685 633 669 593 q 717 731 701 674 l 751 731 l 632 281 l 597 281 q 611 385 611 342 q 592 461 611 433 q 528 489 574 489 l 388 489 l 276 82 q 274 67 274 71 q 303 44 274 44 l 561 44 q 646 62 597 44 q 733 117 694 79 q 805 212 772 156 q 857 314 838 268 q 881 372 876 360 l 914 372 l 797 0 l -14 0 l -3 44 m 479 1125 q 515 1215 483 1178 q 599 1253 546 1253 q 724 1224 639 1253 q 824 1200 792 1200 q 864 1215 849 1200 q 885 1258 879 1231 l 913 1256 q 877 1165 908 1203 q 793 1128 846 1128 q 668 1157 753 1128 q 568 1181 600 1181 q 528 1165 543 1181 q 507 1122 513 1150 l 479 1125 z "},"F":{"ha":944,"x_min":-14,"x_max":1019,"o":"m -3 44 l 103 44 q 150 82 140 44 l 374 907 q 376 924 376 918 q 347 944 376 944 l 242 944 l 253 989 l 1019 989 l 956 672 l 921 672 q 924 695 922 678 q 925 739 925 713 q 888 900 925 856 q 775 944 850 944 l 547 944 q 500 907 510 944 l 399 533 l 547 533 q 635 563 601 533 q 684 633 668 593 q 715 731 700 674 l 750 731 l 631 281 l 596 281 q 610 385 610 342 q 591 461 610 433 q 526 489 572 489 l 388 489 l 276 82 q 274 67 274 71 q 303 44 274 44 l 458 44 l 447 0 l -14 0 l -3 44 z "},"G":{"ha":1028,"x_min":128,"x_max":1014,"o":"m 422 -25 q 274 21 342 -25 q 167 151 207 67 q 128 350 128 236 q 205 664 128 510 q 405 916 282 818 q 658 1014 528 1014 q 853 939 768 1014 q 888 909 876 917 q 913 901 900 901 q 974 1003 956 901 l 1006 1003 l 917 578 l 885 578 q 886 665 886 604 q 826 899 886 829 q 747 952 794 935 q 653 969 700 969 q 503 919 569 969 q 369 744 436 869 q 292 531 324 658 q 261 272 261 404 q 312 68 261 117 q 436 19 363 19 q 567 64 506 19 q 669 176 628 108 q 724 311 710 244 l 739 385 q 740 400 740 390 q 711 422 740 422 l 572 422 l 583 467 l 1014 467 l 1003 422 l 914 422 q 865 385 876 422 l 781 -19 l 746 -19 l 746 78 q 725 135 746 135 q 701 125 714 135 q 674 97 689 115 q 422 -25 558 -25 z "},"Ğ":{"ha":1028,"x_min":128,"x_max":1014,"o":"m 694 1058 q 574 1106 613 1058 q 536 1218 536 1153 q 543 1272 536 1244 l 582 1272 l 582 1261 q 614 1163 582 1204 q 713 1122 646 1122 q 840 1168 783 1122 q 924 1272 896 1214 l 963 1272 q 913 1176 950 1226 q 819 1092 876 1126 q 694 1058 763 1058 m 422 -25 q 274 21 342 -25 q 167 151 207 67 q 128 350 128 236 q 205 664 128 510 q 405 916 282 818 q 658 1014 528 1014 q 853 939 768 1014 q 888 909 876 917 q 913 901 900 901 q 974 1003 956 901 l 1006 1003 l 917 578 l 885 578 q 886 665 886 604 q 826 899 886 829 q 747 952 794 935 q 653 969 700 969 q 503 919 569 969 q 369 744 436 869 q 292 531 324 658 q 261 272 261 404 q 312 68 261 117 q 436 19 363 19 q 567 64 506 19 q 669 176 628 108 q 724 311 710 244 l 739 385 q 740 400 740 390 q 711 422 740 422 l 572 422 l 583 467 l 1014 467 l 1003 422 l 914 422 q 865 385 876 422 l 781 -19 l 746 -19 l 746 78 q 725 135 746 135 q 701 125 714 135 q 674 97 689 115 q 422 -25 558 -25 z "},"Ĝ":{"ha":1028,"x_min":128,"x_max":1014,"o":"m 464 1081 q 708 1278 611 1153 l 764 1278 q 903 1081 796 1153 l 883 1058 q 798 1112 850 1071 q 714 1192 746 1153 q 585 1112 660 1153 q 472 1058 511 1071 l 464 1081 m 422 -25 q 274 21 342 -25 q 167 151 207 67 q 128 350 128 236 q 205 664 128 510 q 405 916 282 818 q 658 1014 528 1014 q 853 939 768 1014 q 888 909 876 917 q 913 901 900 901 q 974 1003 956 901 l 1006 1003 l 917 578 l 885 578 q 886 665 886 604 q 826 899 886 829 q 747 952 794 935 q 653 969 700 969 q 503 919 569 969 q 369 744 436 869 q 292 531 324 658 q 261 272 261 404 q 312 68 261 117 q 436 19 363 19 q 567 64 506 19 q 669 176 628 108 q 724 311 710 244 l 739 385 q 740 400 740 390 q 711 422 740 422 l 572 422 l 583 467 l 1014 467 l 1003 422 l 914 422 q 865 385 876 422 l 781 -19 l 746 -19 l 746 78 q 725 135 746 135 q 701 125 714 135 q 674 97 689 115 q 422 -25 558 -25 z "},"Ģ":{"ha":1028,"x_min":128,"x_max":1014,"o":"m 422 -25 q 274 21 342 -25 q 167 151 207 67 q 128 350 128 236 q 205 664 128 510 q 405 916 282 818 q 658 1014 528 1014 q 853 939 768 1014 q 888 909 876 917 q 913 901 900 901 q 974 1003 956 901 l 1006 1003 l 917 578 l 885 578 q 886 665 886 604 q 826 899 886 829 q 747 952 794 935 q 653 969 700 969 q 503 919 569 969 q 369 744 436 869 q 292 531 324 658 q 261 272 261 404 q 312 68 261 117 q 436 19 363 19 q 567 64 506 19 q 669 176 628 108 q 724 311 710 244 l 739 385 q 740 400 740 390 q 711 422 740 422 l 572 422 l 583 467 l 1014 467 l 1003 422 l 914 422 q 865 385 876 422 l 781 -19 l 746 -19 l 746 78 q 725 135 746 135 q 701 125 714 135 q 674 97 689 115 q 422 -25 558 -25 m 272 -321 q 401 -196 401 -268 q 389 -172 401 -181 q 368 -169 381 -169 q 330 -154 343 -169 q 317 -117 317 -139 q 335 -72 317 -89 q 379 -56 353 -56 q 433 -76 411 -56 q 456 -136 456 -97 q 406 -264 456 -212 q 283 -344 357 -315 l 272 -321 z "},"Ġ":{"ha":1028,"x_min":128,"x_max":1014,"o":"m 717 1108 q 665 1129 686 1108 q 644 1181 644 1150 q 665 1233 644 1213 q 717 1253 686 1253 q 769 1233 749 1253 q 789 1181 789 1213 q 769 1129 789 1150 q 717 1108 749 1108 m 422 -25 q 274 21 342 -25 q 167 151 207 67 q 128 350 128 236 q 205 664 128 510 q 405 916 282 818 q 658 1014 528 1014 q 853 939 768 1014 q 888 909 876 917 q 913 901 900 901 q 974 1003 956 901 l 1006 1003 l 917 578 l 885 578 q 886 665 886 604 q 826 899 886 829 q 747 952 794 935 q 653 969 700 969 q 503 919 569 969 q 369 744 436 869 q 292 531 324 658 q 261 272 261 404 q 312 68 261 117 q 436 19 363 19 q 567 64 506 19 q 669 176 628 108 q 724 311 710 244 l 739 385 q 740 400 740 390 q 711 422 740 422 l 572 422 l 583 467 l 1014 467 l 1003 422 l 914 422 q 865 385 876 422 l 781 -19 l 746 -19 l 746 78 q 725 135 746 135 q 701 125 714 135 q 674 97 689 115 q 422 -25 558 -25 z "},"Ḡ":{"ha":1028,"x_min":128,"x_max":1014,"o":"m 489 1142 l 503 1197 l 939 1197 l 925 1142 l 489 1142 m 422 -25 q 274 21 342 -25 q 167 151 207 67 q 128 350 128 236 q 205 664 128 510 q 405 916 282 818 q 658 1014 528 1014 q 853 939 768 1014 q 888 909 876 917 q 913 901 900 901 q 974 1003 956 901 l 1006 1003 l 917 578 l 885 578 q 886 665 886 604 q 826 899 886 829 q 747 952 794 935 q 653 969 700 969 q 503 919 569 969 q 369 744 436 869 q 292 531 324 658 q 261 272 261 404 q 312 68 261 117 q 436 19 363 19 q 567 64 506 19 q 669 176 628 108 q 724 311 710 244 l 739 385 q 740 400 740 390 q 711 422 740 422 l 572 422 l 583 467 l 1014 467 l 1003 422 l 914 422 q 865 385 876 422 l 781 -19 l 746 -19 l 746 78 q 725 135 746 135 q 701 125 714 135 q 674 97 689 115 q 422 -25 558 -25 z "},"H":{"ha":1111,"x_min":-14,"x_max":1219,"o":"m -3 44 l 103 44 q 150 82 140 44 l 374 907 q 376 922 376 918 q 347 944 376 944 l 242 944 l 253 989 l 664 989 l 653 944 l 547 944 q 500 907 511 944 l 399 533 l 828 533 l 929 907 q 932 922 932 918 q 903 944 932 944 l 797 944 l 808 989 l 1219 989 l 1208 944 l 1103 944 q 1056 907 1067 944 l 832 82 q 829 67 829 71 q 858 44 829 44 l 964 44 l 953 0 l 542 0 l 553 44 l 658 44 q 706 82 696 44 l 817 489 l 388 489 l 276 82 q 274 67 274 71 q 303 44 274 44 l 408 44 l 397 0 l -14 0 l -3 44 z "},"Ħ":{"ha":1133,"x_min":-3,"x_max":1231,"o":"m 8 44 l 114 44 q 161 82 151 44 l 331 706 l 161 706 l 174 756 l 343 756 l 385 907 q 388 922 388 918 q 358 944 388 944 l 253 944 l 264 989 l 675 989 l 664 944 l 558 944 q 511 907 522 944 l 469 756 l 899 756 l 940 907 q 943 922 943 918 q 914 944 943 944 l 808 944 l 819 989 l 1231 989 l 1219 944 l 1114 944 q 1067 907 1078 944 l 1025 756 l 1193 756 l 1181 706 l 1013 706 l 843 82 q 840 67 840 71 q 869 44 840 44 l 975 44 l 964 0 l 553 0 l 564 44 l 669 44 q 717 82 707 44 l 828 489 l 399 489 l 288 82 q 285 67 285 71 q 314 44 285 44 l 419 44 l 408 0 l -3 0 l 8 44 m 410 533 l 839 533 l 885 706 l 456 706 l 410 533 z "},"Ḫ":{"ha":1111,"x_min":-14,"x_max":1219,"o":"m -3 44 l 103 44 q 150 82 140 44 l 374 907 q 376 922 376 918 q 347 944 376 944 l 242 944 l 253 989 l 664 989 l 653 944 l 547 944 q 500 907 511 944 l 399 533 l 828 533 l 929 907 q 932 922 932 918 q 903 944 932 944 l 797 944 l 808 989 l 1219 989 l 1208 944 l 1103 944 q 1056 907 1067 944 l 832 82 q 829 67 829 71 q 858 44 829 44 l 964 44 l 953 0 l 542 0 l 553 44 l 658 44 q 706 82 696 44 l 817 489 l 388 489 l 276 82 q 274 67 274 71 q 303 44 274 44 l 408 44 l 397 0 l -14 0 l -3 44 m 414 -306 q 305 -260 340 -306 q 269 -154 269 -214 q 275 -111 269 -136 l 306 -111 q 304 -133 304 -118 q 333 -216 304 -182 q 429 -250 361 -250 q 556 -208 506 -250 q 628 -111 606 -165 l 658 -111 q 615 -194 649 -149 q 528 -273 581 -240 q 414 -306 475 -306 z "},"Ĥ":{"ha":1111,"x_min":-14,"x_max":1219,"o":"m 553 1081 q 797 1278 700 1153 l 853 1278 q 992 1081 885 1153 l 972 1058 q 887 1112 939 1071 q 803 1192 835 1153 q 674 1112 749 1153 q 561 1058 600 1071 l 553 1081 m -3 44 l 103 44 q 150 82 140 44 l 374 907 q 376 922 376 918 q 347 944 376 944 l 242 944 l 253 989 l 664 989 l 653 944 l 547 944 q 500 907 511 944 l 399 533 l 828 533 l 929 907 q 932 922 932 918 q 903 944 932 944 l 797 944 l 808 989 l 1219 989 l 1208 944 l 1103 944 q 1056 907 1067 944 l 832 82 q 829 67 829 71 q 858 44 829 44 l 964 44 l 953 0 l 542 0 l 553 44 l 658 44 q 706 82 696 44 l 817 489 l 388 489 l 276 82 q 274 67 274 71 q 303 44 274 44 l 408 44 l 397 0 l -14 0 l -3 44 z "},"Ḥ":{"ha":1111,"x_min":-14,"x_max":1219,"o":"m -3 44 l 103 44 q 150 82 140 44 l 374 907 q 376 922 376 918 q 347 944 376 944 l 242 944 l 253 989 l 664 989 l 653 944 l 547 944 q 500 907 511 944 l 399 533 l 828 533 l 929 907 q 932 922 932 918 q 903 944 932 944 l 797 944 l 808 989 l 1219 989 l 1208 944 l 1103 944 q 1056 907 1067 944 l 832 82 q 829 67 829 71 q 858 44 829 44 l 964 44 l 953 0 l 542 0 l 553 44 l 658 44 q 706 82 696 44 l 817 489 l 388 489 l 276 82 q 274 67 274 71 q 303 44 274 44 l 408 44 l 397 0 l -14 0 l -3 44 m 428 -281 q 376 -260 397 -281 q 356 -208 356 -240 q 376 -157 356 -178 q 428 -136 397 -136 q 480 -157 460 -136 q 500 -208 500 -178 q 480 -260 500 -240 q 428 -281 460 -281 z "},"I":{"ha":556,"x_min":-14,"x_max":664,"o":"m -3 44 l 103 44 q 150 82 140 44 l 374 907 q 376 924 376 918 q 347 944 376 944 l 242 944 l 253 989 l 664 989 l 653 944 l 547 944 q 500 907 510 944 l 276 82 q 274 67 274 71 q 303 44 274 44 l 408 44 l 397 0 l -14 0 l -3 44 z "},"Í":{"ha":556,"x_min":-14,"x_max":717,"o":"m 464 1075 l 611 1246 q 644 1275 629 1267 q 678 1283 660 1283 q 717 1243 717 1283 q 672 1179 717 1206 l 481 1058 l 464 1075 m -3 44 l 103 44 q 150 82 140 44 l 374 907 q 376 924 376 918 q 347 944 376 944 l 242 944 l 253 989 l 664 989 l 653 944 l 547 944 q 500 907 510 944 l 276 82 q 274 67 274 71 q 303 44 274 44 l 408 44 l 397 0 l -14 0 l -3 44 z "},"Ĭ":{"ha":556,"x_min":-14,"x_max":765,"o":"m 497 1058 q 377 1106 415 1058 q 339 1218 339 1153 q 346 1272 339 1244 l 385 1272 l 385 1261 q 417 1163 385 1204 q 515 1122 449 1122 q 642 1168 586 1122 q 726 1272 699 1214 l 765 1272 q 716 1176 753 1226 q 622 1092 679 1126 q 497 1058 565 1058 m -3 44 l 103 44 q 150 82 140 44 l 374 907 q 376 924 376 918 q 347 944 376 944 l 242 944 l 253 989 l 664 989 l 653 944 l 547 944 q 500 907 510 944 l 276 82 q 274 67 274 71 q 303 44 274 44 l 408 44 l 397 0 l -14 0 l -3 44 z "},"Î":{"ha":556,"x_min":-14,"x_max":706,"o":"m 267 1081 q 511 1278 414 1153 l 567 1278 q 706 1081 599 1153 l 686 1058 q 601 1112 653 1071 q 517 1192 549 1153 q 388 1112 463 1153 q 275 1058 314 1071 l 267 1081 m -3 44 l 103 44 q 150 82 140 44 l 374 907 q 376 924 376 918 q 347 944 376 944 l 242 944 l 253 989 l 664 989 l 653 944 l 547 944 q 500 907 510 944 l 276 82 q 274 67 274 71 q 303 44 274 44 l 408 44 l 397 0 l -14 0 l -3 44 z "},"Ȉ":{"ha":556,"x_min":-14,"x_max":664,"o":"m 251 1193 q 236 1217 242 1203 q 231 1243 231 1232 q 241 1276 231 1260 q 279 1292 251 1292 q 338 1240 321 1292 l 394 1071 l 374 1058 l 251 1193 m 465 1193 q 450 1217 456 1203 q 444 1243 444 1232 q 455 1276 444 1260 q 493 1292 465 1292 q 551 1240 535 1292 l 608 1071 l 588 1058 l 465 1193 m -3 44 l 103 44 q 150 82 140 44 l 374 907 q 376 924 376 918 q 347 944 376 944 l 242 944 l 253 989 l 664 989 l 653 944 l 547 944 q 500 907 510 944 l 276 82 q 274 67 274 71 q 303 44 274 44 l 408 44 l 397 0 l -14 0 l -3 44 z "},"Ï":{"ha":556,"x_min":-14,"x_max":733,"o":"m 378 1108 q 326 1129 347 1108 q 306 1181 306 1150 q 326 1233 306 1213 q 378 1253 347 1253 q 430 1233 410 1253 q 450 1181 450 1213 q 430 1129 450 1150 q 378 1108 410 1108 m 661 1108 q 610 1129 631 1108 q 589 1181 589 1150 q 610 1233 589 1213 q 661 1253 631 1253 q 713 1233 693 1253 q 733 1181 733 1213 q 713 1129 733 1150 q 661 1108 693 1108 m -3 44 l 103 44 q 150 82 140 44 l 374 907 q 376 924 376 918 q 347 944 376 944 l 242 944 l 253 989 l 664 989 l 653 944 l 547 944 q 500 907 510 944 l 276 82 q 274 67 274 71 q 303 44 274 44 l 408 44 l 397 0 l -14 0 l -3 44 z "},"Ḯ":{"ha":556,"x_min":-14,"x_max":725,"o":"m 453 1167 l 621 1293 q 686 1322 657 1322 q 715 1310 704 1322 q 725 1281 725 1297 q 664 1226 725 1249 l 463 1150 l 453 1167 m 356 1067 q 315 1084 332 1067 q 297 1125 297 1101 q 315 1166 297 1149 q 356 1183 332 1183 q 397 1166 379 1183 q 414 1125 414 1149 q 397 1084 414 1101 q 356 1067 379 1067 m 656 1067 q 615 1084 632 1067 q 597 1125 597 1101 q 615 1166 597 1149 q 656 1183 632 1183 q 697 1166 679 1183 q 714 1125 714 1149 q 697 1084 714 1101 q 656 1067 679 1067 m -3 44 l 103 44 q 150 82 140 44 l 374 907 q 376 924 376 918 q 347 944 376 944 l 242 944 l 253 989 l 664 989 l 653 944 l 547 944 q 500 907 510 944 l 276 82 q 274 67 274 71 q 303 44 274 44 l 408 44 l 397 0 l -14 0 l -3 44 z "},"İ":{"ha":556,"x_min":-14,"x_max":664,"o":"m 519 1108 q 468 1129 489 1108 q 447 1181 447 1150 q 468 1233 447 1213 q 519 1253 489 1253 q 572 1233 551 1253 q 592 1181 592 1213 q 572 1129 592 1150 q 519 1108 551 1108 m -3 44 l 103 44 q 150 82 140 44 l 374 907 q 376 924 376 918 q 347 944 376 944 l 242 944 l 253 989 l 664 989 l 653 944 l 547 944 q 500 907 510 944 l 276 82 q 274 67 274 71 q 303 44 274 44 l 408 44 l 397 0 l -14 0 l -3 44 z "},"Ị":{"ha":556,"x_min":-14,"x_max":664,"o":"m -3 44 l 103 44 q 150 82 140 44 l 374 907 q 376 924 376 918 q 347 944 376 944 l 242 944 l 253 989 l 664 989 l 653 944 l 547 944 q 500 907 510 944 l 276 82 q 274 67 274 71 q 303 44 274 44 l 408 44 l 397 0 l -14 0 l -3 44 m 139 -281 q 87 -260 107 -281 q 67 -208 67 -240 q 87 -157 67 -178 q 139 -136 107 -136 q 190 -157 169 -136 q 211 -208 211 -178 q 190 -260 211 -240 q 139 -281 169 -281 z "},"Ì":{"ha":556,"x_min":-14,"x_max":664,"o":"m 354 1193 q 339 1217 344 1203 q 333 1243 333 1232 q 344 1276 333 1260 q 382 1292 354 1292 q 440 1240 424 1292 l 497 1071 l 476 1058 l 354 1193 m -3 44 l 103 44 q 150 82 140 44 l 374 907 q 376 924 376 918 q 347 944 376 944 l 242 944 l 253 989 l 664 989 l 653 944 l 547 944 q 500 907 510 944 l 276 82 q 274 67 274 71 q 303 44 274 44 l 408 44 l 397 0 l -14 0 l -3 44 z "},"Ỉ":{"ha":556,"x_min":-14,"x_max":664,"o":"m -3 44 l 103 44 q 150 82 140 44 l 374 907 q 376 924 376 918 q 347 944 376 944 l 242 944 l 253 989 l 664 989 l 653 944 l 547 944 q 500 907 510 944 l 276 82 q 274 67 274 71 q 303 44 274 44 l 408 44 l 397 0 l -14 0 l -3 44 m 519 1113 q 574 1193 564 1144 q 576 1214 576 1207 q 561 1255 576 1239 q 514 1271 546 1271 q 458 1256 485 1271 q 429 1221 432 1240 q 429 1203 425 1207 q 433 1200 431 1201 q 436 1200 435 1199 q 442 1201 438 1199 q 448 1202 446 1203 q 453 1203 450 1201 q 472 1182 472 1200 q 460 1156 472 1167 q 429 1146 449 1146 q 405 1157 415 1146 q 394 1188 394 1168 q 435 1260 394 1231 q 524 1292 476 1290 q 601 1269 569 1290 q 632 1211 632 1249 q 601 1135 632 1165 q 511 1069 569 1106 l 463 1069 l 519 1113 z "},"Ȋ":{"ha":556,"x_min":-14,"x_max":694,"o":"m 289 1069 q 357 1161 314 1113 q 451 1244 400 1210 q 550 1278 503 1278 q 628 1244 596 1278 q 676 1162 660 1210 q 694 1069 692 1114 l 667 1058 q 621 1161 657 1122 q 529 1200 585 1200 q 418 1160 474 1200 q 317 1058 363 1121 l 289 1069 m -3 44 l 103 44 q 150 82 140 44 l 374 907 q 376 924 376 918 q 347 944 376 944 l 242 944 l 253 989 l 664 989 l 653 944 l 547 944 q 500 907 510 944 l 276 82 q 274 67 274 71 q 303 44 274 44 l 408 44 l 397 0 l -14 0 l -3 44 z "},"Ī":{"ha":556,"x_min":-14,"x_max":742,"o":"m 292 1142 l 306 1197 l 742 1197 l 728 1142 l 292 1142 m -3 44 l 103 44 q 150 82 140 44 l 374 907 q 376 924 376 918 q 347 944 376 944 l 242 944 l 253 989 l 664 989 l 653 944 l 547 944 q 500 907 510 944 l 276 82 q 274 67 274 71 q 303 44 274 44 l 408 44 l 397 0 l -14 0 l -3 44 z "},"Į":{"ha":556,"x_min":103,"x_max":781,"o":"m 324 -343 q 242 -316 278 -343 q 206 -235 206 -289 q 382 -7 206 -121 l 381 0 l 103 0 l 114 44 l 219 44 q 267 82 257 44 l 490 907 q 493 924 493 918 q 464 944 493 944 l 358 944 l 369 989 l 781 989 l 769 944 l 664 944 q 617 907 626 944 l 393 82 q 390 67 390 71 q 419 44 390 44 l 525 44 l 514 0 l 453 0 q 331 -98 379 -43 q 283 -206 283 -153 q 296 -242 283 -231 q 328 -254 308 -254 q 372 -239 351 -254 q 397 -221 388 -225 q 419 -217 406 -217 q 445 -228 436 -217 q 454 -256 454 -239 q 439 -295 454 -275 q 394 -329 424 -315 q 324 -343 365 -343 z "},"Ĩ":{"ha":556,"x_min":-14,"x_max":736,"o":"m 303 1125 q 338 1215 307 1178 q 422 1253 369 1253 q 547 1224 463 1253 q 647 1200 615 1200 q 688 1215 672 1200 q 708 1258 703 1231 l 736 1256 q 701 1165 732 1203 q 617 1128 669 1128 q 492 1157 576 1128 q 392 1181 424 1181 q 351 1165 367 1181 q 331 1122 336 1150 l 303 1125 m -3 44 l 103 44 q 150 82 140 44 l 374 907 q 376 924 376 918 q 347 944 376 944 l 242 944 l 253 989 l 664 989 l 653 944 l 547 944 q 500 907 510 944 l 276 82 q 274 67 274 71 q 303 44 274 44 l 408 44 l 397 0 l -14 0 l -3 44 z "},"J":{"ha":750,"x_min":19,"x_max":889,"o":"m 206 -25 q 69 25 119 -25 q 19 153 19 75 q 56 259 19 218 q 144 300 92 300 q 206 278 182 300 q 231 221 231 256 q 207 153 231 179 q 139 126 183 126 q 119 117 126 126 q 111 94 111 108 q 138 40 111 60 q 217 19 165 19 q 335 70 285 19 q 406 193 386 121 l 599 907 q 601 924 601 918 q 572 944 601 944 l 417 944 l 428 989 l 889 989 l 878 944 l 772 944 q 725 907 735 944 l 549 257 q 472 106 525 171 q 349 8 418 42 q 206 -25 279 -25 z "},"Ĵ":{"ha":750,"x_min":19,"x_max":903,"o":"m 464 1081 q 708 1278 611 1153 l 764 1278 q 903 1081 796 1153 l 883 1058 q 798 1112 850 1071 q 714 1192 746 1153 q 585 1112 660 1153 q 472 1058 511 1071 l 464 1081 m 206 -25 q 69 25 119 -25 q 19 153 19 75 q 56 259 19 218 q 144 300 92 300 q 206 278 182 300 q 231 221 231 256 q 207 153 231 179 q 139 126 183 126 q 119 117 126 126 q 111 94 111 108 q 138 40 111 60 q 217 19 165 19 q 335 70 285 19 q 406 193 386 121 l 599 907 q 601 924 601 918 q 572 944 601 944 l 417 944 l 428 989 l 889 989 l 878 944 l 772 944 q 725 907 735 944 l 549 257 q 472 106 525 171 q 349 8 418 42 q 206 -25 279 -25 z "},"K":{"ha":1050,"x_min":-14,"x_max":1172,"o":"m -3 44 l 103 44 q 150 82 140 44 l 374 907 q 376 924 376 918 q 347 944 376 944 l 242 944 l 253 989 l 664 989 l 653 944 l 547 944 q 500 907 510 944 l 389 494 l 803 806 q 869 862 849 840 q 889 908 889 883 q 867 936 889 928 q 814 944 846 944 l 781 944 l 792 989 l 1172 989 l 1161 944 q 1071 928 1117 944 q 960 864 1025 911 l 622 614 l 792 106 q 824 58 804 71 q 889 44 844 44 l 947 44 l 936 0 l 531 0 l 542 44 l 614 44 q 649 54 635 44 q 663 85 663 64 q 658 108 663 96 l 521 538 l 371 426 l 276 82 q 274 67 274 71 q 303 44 274 44 l 408 44 l 397 0 l -14 0 l -3 44 z "},"Ķ":{"ha":1050,"x_min":-14,"x_max":1172,"o":"m -3 44 l 103 44 q 150 82 140 44 l 374 907 q 376 924 376 918 q 347 944 376 944 l 242 944 l 253 989 l 664 989 l 653 944 l 547 944 q 500 907 510 944 l 389 494 l 803 806 q 869 862 849 840 q 889 908 889 883 q 867 936 889 928 q 814 944 846 944 l 781 944 l 792 989 l 1172 989 l 1161 944 q 1071 928 1117 944 q 960 864 1025 911 l 622 614 l 792 106 q 824 58 804 71 q 889 44 844 44 l 947 44 l 936 0 l 531 0 l 542 44 l 614 44 q 649 54 635 44 q 663 85 663 64 q 658 108 663 96 l 521 538 l 371 426 l 276 82 q 274 67 274 71 q 303 44 274 44 l 408 44 l 397 0 l -14 0 l -3 44 m 314 -321 q 443 -196 443 -268 q 431 -172 443 -181 q 410 -169 422 -169 q 372 -154 385 -169 q 358 -117 358 -139 q 376 -72 358 -89 q 421 -56 394 -56 q 475 -76 453 -56 q 497 -136 497 -97 q 448 -264 497 -212 q 325 -344 399 -315 l 314 -321 z "},"L":{"ha":944,"x_min":-14,"x_max":914,"o":"m -3 44 l 103 44 q 150 82 140 44 l 374 907 q 376 924 376 918 q 347 944 376 944 l 242 944 l 254 989 l 664 989 l 653 944 l 547 944 q 500 907 510 944 l 276 82 q 274 67 274 71 q 303 44 274 44 l 561 44 q 646 62 597 44 q 733 117 694 79 q 805 212 772 156 q 857 314 838 268 q 881 372 876 360 l 914 372 l 797 0 l -14 0 l -3 44 z "},"Ǉ":{"ha":1694,"x_min":-14,"x_max":1833,"o":"m -3 44 l 103 44 q 150 82 140 44 l 374 907 q 376 924 376 918 q 347 944 376 944 l 242 944 l 254 989 l 664 989 l 653 944 l 547 944 q 500 907 510 944 l 276 82 q 274 67 274 71 q 303 44 274 44 l 561 44 q 646 62 597 44 q 733 117 694 79 q 805 212 772 156 q 857 314 838 268 q 881 372 876 360 l 914 372 l 797 0 l -14 0 l -3 44 m 1150 -25 q 1014 25 1064 -25 q 964 153 964 75 q 1000 259 964 218 q 1089 300 1036 300 q 1151 278 1126 300 q 1175 221 1175 256 q 1151 153 1175 179 q 1083 126 1128 126 q 1063 117 1071 126 q 1056 94 1056 108 q 1083 40 1056 60 q 1161 19 1110 19 q 1280 70 1229 19 q 1350 193 1331 121 l 1543 907 q 1546 924 1546 918 q 1517 944 1546 944 l 1361 944 l 1372 989 l 1833 989 l 1822 944 l 1717 944 q 1669 907 1679 944 l 1493 257 q 1416 106 1469 171 q 1293 8 1363 42 q 1150 -25 1224 -25 z "},"Ĺ":{"ha":944,"x_min":-14,"x_max":914,"o":"m 461 1075 l 608 1246 q 642 1275 626 1267 q 675 1283 657 1283 q 714 1243 714 1283 q 669 1179 714 1206 l 478 1058 l 461 1075 m -3 44 l 103 44 q 150 82 140 44 l 374 907 q 376 924 376 918 q 347 944 376 944 l 242 944 l 254 989 l 664 989 l 653 944 l 547 944 q 500 907 510 944 l 276 82 q 274 67 274 71 q 303 44 274 44 l 561 44 q 646 62 597 44 q 733 117 694 79 q 805 212 772 156 q 857 314 838 268 q 881 372 876 360 l 914 372 l 797 0 l -14 0 l -3 44 z "},"Ľ":{"ha":936,"x_min":-14,"x_max":994,"o":"m 781 706 q 931 851 931 767 q 917 878 931 869 q 892 882 907 882 q 849 900 864 882 q 833 943 833 918 q 854 994 833 975 q 906 1014 875 1014 q 969 990 943 1014 q 994 921 994 967 q 938 772 994 832 q 794 678 881 711 l 781 706 m -3 44 l 103 44 q 150 82 140 44 l 374 907 q 376 924 376 918 q 347 944 376 944 l 242 944 l 254 989 l 664 989 l 653 944 l 547 944 q 500 907 510 944 l 276 82 q 274 67 274 71 q 303 44 274 44 l 561 44 q 646 62 597 44 q 733 117 694 79 q 805 212 772 156 q 857 314 838 268 q 881 372 876 360 l 914 372 l 797 0 l -14 0 l -3 44 z "},"Ļ":{"ha":944,"x_min":-14,"x_max":914,"o":"m -3 44 l 103 44 q 150 82 140 44 l 374 907 q 376 924 376 918 q 347 944 376 944 l 242 944 l 254 989 l 664 989 l 653 944 l 547 944 q 500 907 510 944 l 276 82 q 274 67 274 71 q 303 44 274 44 l 561 44 q 646 62 597 44 q 733 117 694 79 q 805 212 772 156 q 857 314 838 268 q 881 372 876 360 l 914 372 l 797 0 l -14 0 l -3 44 m 281 -321 q 410 -196 410 -268 q 397 -172 410 -181 q 376 -169 389 -169 q 338 -154 351 -169 q 325 -117 325 -139 q 343 -72 325 -89 q 388 -56 361 -56 q 442 -76 419 -56 q 464 -136 464 -97 q 415 -264 464 -212 q 292 -344 365 -315 l 281 -321 z "},"Ŀ":{"ha":944,"x_min":-14,"x_max":914,"o":"m -3 44 l 103 44 q 150 82 140 44 l 374 907 q 376 924 376 918 q 347 944 376 944 l 242 944 l 254 989 l 664 989 l 653 944 l 547 944 q 500 907 510 944 l 276 82 q 274 67 274 71 q 303 44 274 44 l 561 44 q 646 62 597 44 q 733 117 694 79 q 805 212 772 156 q 857 314 838 268 q 881 372 876 360 l 914 372 l 797 0 l -14 0 l -3 44 m 797 431 q 735 455 760 431 q 711 517 711 479 q 735 578 711 554 q 797 603 760 603 q 859 578 835 603 q 883 517 883 554 q 859 455 883 479 q 797 431 835 431 z "},"Ḷ":{"ha":944,"x_min":-14,"x_max":914,"o":"m -3 44 l 103 44 q 150 82 140 44 l 374 907 q 376 924 376 918 q 347 944 376 944 l 242 944 l 254 989 l 664 989 l 653 944 l 547 944 q 500 907 510 944 l 276 82 q 274 67 274 71 q 303 44 274 44 l 561 44 q 646 62 597 44 q 733 117 694 79 q 805 212 772 156 q 857 314 838 268 q 881 372 876 360 l 914 372 l 797 0 l -14 0 l -3 44 m 381 -281 q 329 -260 350 -281 q 308 -208 308 -240 q 329 -157 308 -178 q 381 -136 350 -136 q 433 -157 413 -136 q 453 -208 453 -178 q 433 -260 453 -240 q 381 -281 413 -281 z "},"ǈ":{"ha":453,"x_min":-14,"x_max":1422,"o":"m -3 44 l 103 44 q 150 82 140 44 l 374 907 q 376 924 376 918 q 347 944 376 944 l 242 944 l 254 989 l 664 989 l 653 944 l 547 944 q 500 907 510 944 l 276 82 q 274 67 274 71 q 303 44 274 44 l 561 44 q 646 62 597 44 q 733 117 694 79 q 805 212 772 156 q 857 314 838 268 q 881 372 876 360 l 914 372 l 797 0 l -14 0 l -3 44 m 1350 814 q 1299 835 1319 814 q 1278 886 1278 856 q 1299 938 1278 918 q 1350 958 1319 958 q 1402 938 1382 958 q 1422 886 1422 918 q 1402 835 1422 856 q 1350 814 1382 814 m 926 -344 q 847 -314 885 -344 q 810 -226 810 -283 q 835 -160 810 -187 q 893 -132 861 -132 q 932 -147 918 -132 q 946 -185 946 -161 q 914 -240 946 -221 q 897 -253 903 -247 q 892 -272 892 -260 q 935 -311 892 -311 q 1010 -280 975 -311 q 1065 -176 1044 -249 l 1081 -108 l 1100 -29 l 1228 442 q 1238 482 1229 450 q 1247 544 1247 514 q 1240 574 1247 561 q 1217 586 1232 586 q 1127 515 1172 586 q 1050 353 1082 443 l 1022 361 q 1115 550 1058 467 q 1244 633 1172 633 q 1314 601 1294 633 q 1333 531 1333 568 q 1318 425 1333 490 l 1185 -64 q 1126 -199 1165 -135 q 1035 -304 1088 -264 q 926 -344 983 -344 z "},"Ḻ":{"ha":944,"x_min":-14,"x_max":914,"o":"m -3 44 l 103 44 q 150 82 140 44 l 374 907 q 376 924 376 918 q 347 944 376 944 l 242 944 l 254 989 l 664 989 l 653 944 l 547 944 q 500 907 510 944 l 276 82 q 274 67 274 71 q 303 44 274 44 l 561 44 q 646 62 597 44 q 733 117 694 79 q 805 212 772 156 q 857 314 838 268 q 881 372 876 360 l 914 372 l 797 0 l -14 0 l -3 44 m 158 -233 l 172 -178 l 608 -178 l 594 -233 l 158 -233 z "},"Ł":{"ha":944,"x_min":-14,"x_max":914,"o":"m -3 44 l 103 44 q 150 82 140 44 l 244 432 l 125 372 l 108 417 l 261 493 l 374 907 q 376 924 376 918 q 347 944 376 944 l 242 944 l 254 989 l 664 989 l 653 944 l 547 944 q 500 907 510 944 l 408 567 l 628 678 l 644 633 l 392 506 l 276 82 q 274 67 274 71 q 303 44 274 44 l 561 44 q 646 62 597 44 q 733 117 694 79 q 805 212 772 156 q 857 314 838 268 q 881 372 876 360 l 914 372 l 797 0 l -14 0 l -3 44 z "},"M":{"ha":1242,"x_min":-14,"x_max":1350,"o":"m 483 944 l 456 944 l 244 175 q 236 117 236 144 q 306 44 236 44 l 372 44 l 361 0 l -14 0 l -3 44 l 64 44 q 142 81 110 44 q 190 175 175 118 l 389 907 q 392 924 392 918 q 363 944 392 944 l 242 944 l 253 989 l 606 989 l 606 218 l 1028 989 l 1350 989 l 1339 944 l 1233 944 q 1203 935 1214 944 q 1186 907 1192 926 l 963 82 q 960 68 960 71 q 992 44 960 44 l 1097 44 l 1086 0 l 672 0 l 683 44 l 789 44 q 836 82 826 44 l 1069 944 l 1049 944 l 518 -17 l 483 -17 l 483 944 z "},"Ṃ":{"ha":1242,"x_min":-14,"x_max":1350,"o":"m 483 944 l 456 944 l 244 175 q 236 117 236 144 q 306 44 236 44 l 372 44 l 361 0 l -14 0 l -3 44 l 64 44 q 142 81 110 44 q 190 175 175 118 l 389 907 q 392 924 392 918 q 363 944 392 944 l 242 944 l 253 989 l 606 989 l 606 218 l 1028 989 l 1350 989 l 1339 944 l 1233 944 q 1203 935 1214 944 q 1186 907 1192 926 l 963 82 q 960 68 960 71 q 992 44 960 44 l 1097 44 l 1086 0 l 672 0 l 683 44 l 789 44 q 836 82 826 44 l 1069 944 l 1049 944 l 518 -17 l 483 -17 l 483 944 m 483 -281 q 432 -260 453 -281 q 411 -208 411 -240 q 432 -157 411 -178 q 483 -136 453 -136 q 535 -157 515 -136 q 556 -208 556 -178 q 535 -260 556 -240 q 483 -281 515 -281 z "},"N":{"ha":1097,"x_min":-14,"x_max":1228,"o":"m 433 838 l 426 838 l 244 175 q 236 115 236 144 q 306 44 236 44 l 372 44 l 361 0 l -14 0 l -3 44 l 64 44 q 142 82 108 44 q 190 175 176 119 l 389 907 q 392 922 392 918 q 363 944 392 944 l 242 944 l 253 989 l 506 989 l 796 179 l 969 814 q 979 874 979 847 q 908 944 979 944 l 842 944 l 853 989 l 1228 989 l 1217 944 l 1150 944 q 1075 910 1110 944 q 1024 814 1040 875 l 796 -25 l 740 -25 l 433 838 z "},"Ǌ":{"ha":1847,"x_min":-14,"x_max":1986,"o":"m 433 838 l 426 838 l 244 175 q 236 115 236 144 q 306 44 236 44 l 372 44 l 361 0 l -14 0 l -3 44 l 64 44 q 142 82 108 44 q 190 175 176 119 l 389 907 q 392 922 392 918 q 363 944 392 944 l 242 944 l 253 989 l 506 989 l 796 179 l 969 814 q 979 874 979 847 q 908 944 979 944 l 842 944 l 853 989 l 1228 989 l 1217 944 l 1150 944 q 1075 910 1110 944 q 1024 814 1040 875 l 796 -25 l 740 -25 l 433 838 m 1303 -25 q 1167 25 1217 -25 q 1117 153 1117 75 q 1153 259 1117 218 q 1242 300 1189 300 q 1303 278 1279 300 q 1328 221 1328 256 q 1304 153 1328 179 q 1236 126 1281 126 q 1216 117 1224 126 q 1208 94 1208 108 q 1235 40 1208 60 q 1314 19 1263 19 q 1433 70 1382 19 q 1503 193 1483 121 l 1696 907 q 1699 924 1699 918 q 1669 944 1699 944 l 1514 944 l 1525 989 l 1986 989 l 1975 944 l 1869 944 q 1822 907 1832 944 l 1646 257 q 1569 106 1622 171 q 1446 8 1515 42 q 1303 -25 1376 -25 z "},"Ń":{"ha":1097,"x_min":-14,"x_max":1228,"o":"m 733 1075 l 881 1246 q 914 1275 899 1267 q 947 1283 929 1283 q 986 1243 986 1283 q 942 1179 986 1206 l 750 1058 l 733 1075 m 433 838 l 426 838 l 244 175 q 236 115 236 144 q 306 44 236 44 l 372 44 l 361 0 l -14 0 l -3 44 l 64 44 q 142 82 108 44 q 190 175 176 119 l 389 907 q 392 922 392 918 q 363 944 392 944 l 242 944 l 253 989 l 506 989 l 796 179 l 969 814 q 979 874 979 847 q 908 944 979 944 l 842 944 l 853 989 l 1228 989 l 1217 944 l 1150 944 q 1075 910 1110 944 q 1024 814 1040 875 l 796 -25 l 740 -25 l 433 838 z "},"Ň":{"ha":1097,"x_min":-14,"x_max":1228,"o":"m 721 1058 l 581 1258 l 601 1278 l 771 1144 l 1013 1278 l 1025 1258 l 776 1058 l 721 1058 m 433 838 l 426 838 l 244 175 q 236 115 236 144 q 306 44 236 44 l 372 44 l 361 0 l -14 0 l -3 44 l 64 44 q 142 82 108 44 q 190 175 176 119 l 389 907 q 392 922 392 918 q 363 944 392 944 l 242 944 l 253 989 l 506 989 l 796 179 l 969 814 q 979 874 979 847 q 908 944 979 944 l 842 944 l 853 989 l 1228 989 l 1217 944 l 1150 944 q 1075 910 1110 944 q 1024 814 1040 875 l 796 -25 l 740 -25 l 433 838 z "},"Ņ":{"ha":1097,"x_min":-14,"x_max":1228,"o":"m 433 838 l 426 838 l 244 175 q 236 115 236 144 q 306 44 236 44 l 372 44 l 361 0 l -14 0 l -3 44 l 64 44 q 142 82 108 44 q 190 175 176 119 l 389 907 q 392 922 392 918 q 363 944 392 944 l 242 944 l 253 989 l 506 989 l 796 179 l 969 814 q 979 874 979 847 q 908 944 979 944 l 842 944 l 853 989 l 1228 989 l 1217 944 l 1150 944 q 1075 910 1110 944 q 1024 814 1040 875 l 796 -25 l 740 -25 l 433 838 m 369 -321 q 499 -196 499 -268 q 486 -172 499 -181 q 465 -169 478 -169 q 427 -154 440 -169 q 414 -117 414 -139 q 432 -72 414 -89 q 476 -56 450 -56 q 531 -76 508 -56 q 553 -136 553 -97 q 503 -264 553 -212 q 381 -344 454 -315 l 369 -321 z "},"Ṅ":{"ha":1097,"x_min":-14,"x_max":1228,"o":"m 789 1108 q 738 1129 758 1108 q 717 1181 717 1150 q 738 1233 717 1213 q 789 1253 758 1253 q 841 1233 821 1253 q 861 1181 861 1213 q 841 1129 861 1150 q 789 1108 821 1108 m 433 838 l 426 838 l 244 175 q 236 115 236 144 q 306 44 236 44 l 372 44 l 361 0 l -14 0 l -3 44 l 64 44 q 142 82 108 44 q 190 175 176 119 l 389 907 q 392 922 392 918 q 363 944 392 944 l 242 944 l 253 989 l 506 989 l 796 179 l 969 814 q 979 874 979 847 q 908 944 979 944 l 842 944 l 853 989 l 1228 989 l 1217 944 l 1150 944 q 1075 910 1110 944 q 1024 814 1040 875 l 796 -25 l 740 -25 l 433 838 z "},"Ṇ":{"ha":1097,"x_min":-14,"x_max":1228,"o":"m 433 838 l 426 838 l 244 175 q 236 115 236 144 q 306 44 236 44 l 372 44 l 361 0 l -14 0 l -3 44 l 64 44 q 142 82 108 44 q 190 175 176 119 l 389 907 q 392 922 392 918 q 363 944 392 944 l 242 944 l 253 989 l 506 989 l 796 179 l 969 814 q 979 874 979 847 q 908 944 979 944 l 842 944 l 853 989 l 1228 989 l 1217 944 l 1150 944 q 1075 910 1110 944 q 1024 814 1040 875 l 796 -25 l 740 -25 l 433 838 m 469 -281 q 418 -260 439 -281 q 397 -208 397 -240 q 418 -157 397 -178 q 469 -136 439 -136 q 522 -157 501 -136 q 542 -208 542 -178 q 522 -260 542 -240 q 469 -281 501 -281 z "},"Ŋ":{"ha":1097,"x_min":-14,"x_max":1228,"o":"m 563 -331 q 476 -295 514 -331 q 439 -208 439 -260 q 461 -143 439 -171 q 519 -115 483 -115 q 567 -133 551 -115 q 582 -174 582 -151 q 576 -205 582 -189 q 561 -231 569 -221 q 550 -261 550 -244 q 557 -280 550 -274 q 575 -286 564 -286 q 663 -242 632 -286 q 713 -129 694 -199 l 740 -25 l 433 838 l 426 838 l 244 175 q 236 115 236 144 q 306 44 236 44 l 372 44 l 361 0 l -14 0 l -3 44 l 64 44 q 142 82 108 44 q 190 175 176 119 l 389 907 q 392 922 392 918 q 363 944 392 944 l 242 944 l 253 989 l 506 989 l 796 179 l 969 814 q 979 874 979 847 q 908 944 979 944 l 842 944 l 853 989 l 1228 989 l 1217 944 l 1150 944 q 1075 910 1110 944 q 1024 814 1040 875 l 769 -126 q 694 -277 743 -224 q 563 -331 644 -331 z "},"ǋ":{"ha":453,"x_min":-14,"x_max":1575,"o":"m 433 838 l 426 838 l 244 175 q 236 115 236 144 q 306 44 236 44 l 372 44 l 361 0 l -14 0 l -3 44 l 64 44 q 142 82 108 44 q 190 175 176 119 l 389 907 q 392 922 392 918 q 363 944 392 944 l 242 944 l 253 989 l 506 989 l 796 179 l 969 814 q 979 874 979 847 q 908 944 979 944 l 842 944 l 853 989 l 1228 989 l 1217 944 l 1150 944 q 1075 910 1110 944 q 1024 814 1040 875 l 796 -25 l 740 -25 l 433 838 m 1503 814 q 1451 835 1472 814 q 1431 886 1431 856 q 1451 938 1431 918 q 1503 958 1472 958 q 1555 938 1535 958 q 1575 886 1575 918 q 1555 835 1575 856 q 1503 814 1535 814 m 1079 -344 q 1000 -314 1038 -344 q 963 -226 963 -283 q 988 -160 963 -187 q 1046 -132 1014 -132 q 1085 -147 1071 -132 q 1099 -185 1099 -161 q 1067 -240 1099 -221 q 1050 -253 1056 -247 q 1044 -272 1044 -260 q 1088 -311 1044 -311 q 1163 -280 1128 -311 q 1218 -176 1197 -249 l 1233 -108 l 1253 -29 l 1381 442 q 1391 482 1382 450 q 1400 544 1400 514 q 1392 574 1400 561 q 1369 586 1385 586 q 1280 515 1325 586 q 1203 353 1235 443 l 1175 361 q 1268 550 1211 467 q 1397 633 1325 633 q 1467 601 1447 633 q 1486 531 1486 568 q 1471 425 1486 490 l 1338 -64 q 1279 -199 1318 -135 q 1188 -304 1240 -264 q 1079 -344 1136 -344 z "},"Ṉ":{"ha":1097,"x_min":-14,"x_max":1228,"o":"m 433 838 l 426 838 l 244 175 q 236 115 236 144 q 306 44 236 44 l 372 44 l 361 0 l -14 0 l -3 44 l 64 44 q 142 82 108 44 q 190 175 176 119 l 389 907 q 392 922 392 918 q 363 944 392 944 l 242 944 l 253 989 l 506 989 l 796 179 l 969 814 q 979 874 979 847 q 908 944 979 944 l 842 944 l 853 989 l 1228 989 l 1217 944 l 1150 944 q 1075 910 1110 944 q 1024 814 1040 875 l 796 -25 l 740 -25 l 433 838 m 247 -233 l 261 -178 l 697 -178 l 683 -233 l 247 -233 z "},"Ñ":{"ha":1097,"x_min":-14,"x_max":1228,"o":"m 572 1125 q 608 1215 576 1178 q 692 1253 639 1253 q 817 1224 732 1253 q 917 1200 885 1200 q 957 1215 942 1200 q 978 1258 972 1231 l 1006 1256 q 970 1165 1001 1203 q 886 1128 939 1128 q 761 1157 846 1128 q 661 1181 693 1181 q 621 1165 636 1181 q 600 1122 606 1150 l 572 1125 m 433 838 l 426 838 l 244 175 q 236 115 236 144 q 306 44 236 44 l 372 44 l 361 0 l -14 0 l -3 44 l 64 44 q 142 82 108 44 q 190 175 176 119 l 389 907 q 392 922 392 918 q 363 944 392 944 l 242 944 l 253 989 l 506 989 l 796 179 l 969 814 q 979 874 979 847 q 908 944 979 944 l 842 944 l 853 989 l 1228 989 l 1217 944 l 1150 944 q 1075 910 1110 944 q 1024 814 1040 875 l 796 -25 l 740 -25 l 433 838 z "},"O":{"ha":986,"x_min":128,"x_max":953,"o":"m 422 -25 q 267 25 333 -25 q 164 159 200 75 q 128 344 128 243 q 206 679 128 525 q 407 924 283 833 q 658 1014 531 1014 q 814 963 747 1014 q 917 828 881 913 q 953 642 953 743 q 875 308 953 461 q 674 65 797 154 q 422 -25 550 -25 m 433 19 q 631 117 551 19 q 758 344 711 214 q 808 550 796 450 q 819 722 819 650 q 774 906 819 843 q 647 969 729 969 q 449 872 529 969 q 322 644 369 775 q 273 439 285 539 q 261 267 261 339 q 306 83 261 146 q 433 19 351 19 z "},"Ó":{"ha":986,"x_min":128,"x_max":953,"o":"m 669 1075 l 817 1246 q 850 1275 835 1267 q 883 1283 865 1283 q 922 1243 922 1283 q 878 1179 922 1206 l 686 1058 l 669 1075 m 422 -25 q 267 25 333 -25 q 164 159 200 75 q 128 344 128 243 q 206 679 128 525 q 407 924 283 833 q 658 1014 531 1014 q 814 963 747 1014 q 917 828 881 913 q 953 642 953 743 q 875 308 953 461 q 674 65 797 154 q 422 -25 550 -25 m 433 19 q 631 117 551 19 q 758 344 711 214 q 808 550 796 450 q 819 722 819 650 q 774 906 819 843 q 647 969 729 969 q 449 872 529 969 q 322 644 369 775 q 273 439 285 539 q 261 267 261 339 q 306 83 261 146 q 433 19 351 19 z "},"Ŏ":{"ha":986,"x_min":128,"x_max":964,"o":"m 422 -25 q 267 25 333 -25 q 164 159 200 75 q 128 344 128 243 q 206 679 128 525 q 407 924 283 833 q 658 1014 531 1014 q 814 963 747 1014 q 917 828 881 913 q 953 642 953 743 q 875 308 953 461 q 674 65 797 154 q 422 -25 550 -25 m 433 19 q 631 117 551 19 q 758 344 711 214 q 808 550 796 450 q 819 722 819 650 q 774 906 819 843 q 647 969 729 969 q 449 872 529 969 q 322 644 369 775 q 273 439 285 539 q 261 267 261 339 q 306 83 261 146 q 433 19 351 19 m 696 1058 q 576 1106 614 1058 q 538 1218 538 1153 q 544 1272 538 1244 l 583 1272 l 583 1261 q 615 1163 583 1204 q 714 1122 647 1122 q 841 1168 785 1122 q 925 1272 897 1214 l 964 1272 q 915 1176 951 1226 q 821 1092 878 1126 q 696 1058 764 1058 z "},"Ô":{"ha":986,"x_min":128,"x_max":953,"o":"m 472 1081 q 717 1278 619 1153 l 772 1278 q 911 1081 804 1153 l 892 1058 q 806 1112 858 1071 q 722 1192 754 1153 q 594 1112 668 1153 q 481 1058 519 1071 l 472 1081 m 422 -25 q 267 25 333 -25 q 164 159 200 75 q 128 344 128 243 q 206 679 128 525 q 407 924 283 833 q 658 1014 531 1014 q 814 963 747 1014 q 917 828 881 913 q 953 642 953 743 q 875 308 953 461 q 674 65 797 154 q 422 -25 550 -25 m 433 19 q 631 117 551 19 q 758 344 711 214 q 808 550 796 450 q 819 722 819 650 q 774 906 819 843 q 647 969 729 969 q 449 872 529 969 q 322 644 369 775 q 273 439 285 539 q 261 267 261 339 q 306 83 261 146 q 433 19 351 19 z "},"Ố":{"ha":986,"x_min":128,"x_max":1113,"o":"m 422 -25 q 267 25 333 -25 q 164 159 200 75 q 128 344 128 243 q 206 679 128 525 q 407 924 283 833 q 658 1014 531 1014 q 814 963 747 1014 q 917 828 881 913 q 953 642 953 743 q 875 308 953 461 q 674 65 797 154 q 422 -25 550 -25 m 433 19 q 631 117 551 19 q 758 344 711 214 q 808 550 796 450 q 819 722 819 650 q 774 906 819 843 q 647 969 729 969 q 449 872 529 969 q 322 644 369 775 q 273 439 285 539 q 261 267 261 339 q 306 83 261 146 q 433 19 351 19 m 514 1096 q 725 1306 638 1161 l 781 1306 q 878 1096 793 1161 l 861 1078 q 726 1206 778 1128 q 522 1078 629 1126 l 514 1096 m 860 1206 l 1007 1376 q 1040 1406 1025 1397 q 1074 1414 1056 1414 q 1103 1402 1094 1414 q 1113 1374 1113 1390 q 1068 1310 1113 1338 l 876 1189 l 860 1206 z "},"Ộ":{"ha":986,"x_min":128,"x_max":953,"o":"m 422 -25 q 267 25 333 -25 q 164 159 200 75 q 128 344 128 243 q 206 679 128 525 q 407 924 283 833 q 658 1014 531 1014 q 814 963 747 1014 q 917 828 881 913 q 953 642 953 743 q 875 308 953 461 q 674 65 797 154 q 422 -25 550 -25 m 433 19 q 631 117 551 19 q 758 344 711 214 q 808 550 796 450 q 819 722 819 650 q 774 906 819 843 q 647 969 729 969 q 449 872 529 969 q 322 644 369 775 q 273 439 285 539 q 261 267 261 339 q 306 83 261 146 q 433 19 351 19 m 354 -281 q 302 -260 322 -281 q 282 -208 282 -240 q 302 -157 282 -178 q 354 -136 322 -136 q 406 -157 385 -136 q 426 -208 426 -178 q 406 -260 426 -240 q 354 -281 385 -281 m 458 1081 q 703 1278 606 1153 l 758 1278 q 897 1081 790 1153 l 878 1058 q 792 1112 844 1071 q 708 1192 740 1153 q 580 1112 654 1153 q 467 1058 506 1071 l 458 1081 z "},"Ồ":{"ha":986,"x_min":128,"x_max":953,"o":"m 422 -25 q 267 25 333 -25 q 164 159 200 75 q 128 344 128 243 q 206 679 128 525 q 407 924 283 833 q 658 1014 531 1014 q 814 963 747 1014 q 917 828 881 913 q 953 642 953 743 q 875 308 953 461 q 674 65 797 154 q 422 -25 550 -25 m 433 19 q 631 117 551 19 q 758 344 711 214 q 808 550 796 450 q 819 722 819 650 q 774 906 819 843 q 647 969 729 969 q 449 872 529 969 q 322 644 369 775 q 273 439 285 539 q 261 267 261 339 q 306 83 261 146 q 433 19 351 19 m 514 1096 q 725 1306 638 1161 l 781 1306 q 878 1096 793 1161 l 861 1078 q 726 1206 778 1128 q 522 1078 629 1126 l 514 1096 m 772 1394 q 753 1443 753 1417 q 764 1476 753 1460 q 803 1493 775 1493 q 836 1481 824 1493 q 858 1439 849 1468 l 914 1274 l 890 1260 l 772 1394 z "},"Ổ":{"ha":986,"x_min":128,"x_max":1004,"o":"m 422 -25 q 267 25 333 -25 q 164 159 200 75 q 128 344 128 243 q 206 679 128 525 q 407 924 283 833 q 658 1014 531 1014 q 814 963 747 1014 q 917 828 881 913 q 953 642 953 743 q 875 308 953 461 q 674 65 797 154 q 422 -25 550 -25 m 433 19 q 631 117 551 19 q 758 344 711 214 q 808 550 796 450 q 819 722 819 650 q 774 906 819 843 q 647 969 729 969 q 449 872 529 969 q 322 644 369 775 q 273 439 285 539 q 261 267 261 339 q 306 83 261 146 q 433 19 351 19 m 514 1096 q 725 1306 638 1161 l 781 1306 q 878 1096 793 1161 l 861 1078 q 726 1206 778 1128 q 522 1078 629 1126 l 514 1096 m 892 1328 q 946 1408 936 1360 q 949 1429 949 1422 q 933 1470 949 1454 q 886 1486 918 1486 q 831 1471 857 1486 q 801 1436 804 1456 q 801 1418 797 1422 q 805 1415 803 1417 q 808 1415 807 1414 q 814 1417 810 1414 q 820 1417 818 1418 q 825 1418 822 1417 q 844 1397 844 1415 q 833 1372 844 1382 q 801 1361 821 1361 q 777 1372 788 1361 q 767 1403 767 1383 q 808 1476 767 1446 q 896 1507 849 1506 q 973 1485 942 1506 q 1004 1426 1004 1464 q 973 1351 1004 1381 q 883 1285 942 1321 l 835 1285 l 892 1328 z "},"Ỗ":{"ha":986,"x_min":128,"x_max":972,"o":"m 422 -25 q 267 25 333 -25 q 164 159 200 75 q 128 344 128 243 q 206 679 128 525 q 407 924 283 833 q 658 1014 531 1014 q 814 963 747 1014 q 917 828 881 913 q 953 642 953 743 q 875 308 953 461 q 674 65 797 154 q 422 -25 550 -25 m 433 19 q 631 117 551 19 q 758 344 711 214 q 808 550 796 450 q 819 722 819 650 q 774 906 819 843 q 647 969 729 969 q 449 872 529 969 q 322 644 369 775 q 273 439 285 539 q 261 267 261 339 q 306 83 261 146 q 433 19 351 19 m 514 1096 q 725 1306 638 1161 l 781 1306 q 878 1096 793 1161 l 861 1078 q 726 1206 778 1128 q 522 1078 629 1126 l 514 1096 m 589 1328 q 618 1420 589 1382 q 700 1458 647 1458 q 753 1451 731 1458 q 807 1428 776 1443 q 852 1409 835 1415 q 892 1403 869 1403 q 926 1417 915 1403 q 942 1458 938 1431 l 972 1458 q 943 1366 972 1404 q 861 1328 914 1328 q 808 1335 831 1328 q 754 1358 785 1343 q 709 1377 726 1371 q 669 1383 692 1383 q 635 1369 646 1383 q 619 1328 624 1356 l 589 1328 z "},"Ȍ":{"ha":986,"x_min":128,"x_max":953,"o":"m 457 1193 q 442 1217 447 1203 q 436 1243 436 1232 q 447 1276 436 1260 q 485 1292 457 1292 q 543 1240 526 1292 l 600 1071 l 579 1058 l 457 1193 m 671 1193 q 656 1217 661 1203 q 650 1243 650 1232 q 660 1276 650 1260 q 699 1292 671 1292 q 757 1240 740 1292 l 814 1071 l 793 1058 l 671 1193 m 422 -25 q 267 25 333 -25 q 164 159 200 75 q 128 344 128 243 q 206 679 128 525 q 407 924 283 833 q 658 1014 531 1014 q 814 963 747 1014 q 917 828 881 913 q 953 642 953 743 q 875 308 953 461 q 674 65 797 154 q 422 -25 550 -25 m 433 19 q 631 117 551 19 q 758 344 711 214 q 808 550 796 450 q 819 722 819 650 q 774 906 819 843 q 647 969 729 969 q 449 872 529 969 q 322 644 369 775 q 273 439 285 539 q 261 267 261 339 q 306 83 261 146 q 433 19 351 19 z "},"Ö":{"ha":986,"x_min":128,"x_max":953,"o":"m 583 1108 q 532 1129 553 1108 q 511 1181 511 1150 q 532 1233 511 1213 q 583 1253 553 1253 q 635 1233 615 1253 q 656 1181 656 1213 q 635 1129 656 1150 q 583 1108 615 1108 m 867 1108 q 815 1129 836 1108 q 794 1181 794 1150 q 815 1233 794 1213 q 867 1253 836 1253 q 919 1233 899 1253 q 939 1181 939 1213 q 919 1129 939 1150 q 867 1108 899 1108 m 422 -25 q 267 25 333 -25 q 164 159 200 75 q 128 344 128 243 q 206 679 128 525 q 407 924 283 833 q 658 1014 531 1014 q 814 963 747 1014 q 917 828 881 913 q 953 642 953 743 q 875 308 953 461 q 674 65 797 154 q 422 -25 550 -25 m 433 19 q 631 117 551 19 q 758 344 711 214 q 808 550 796 450 q 819 722 819 650 q 774 906 819 843 q 647 969 729 969 q 449 872 529 969 q 322 644 369 775 q 273 439 285 539 q 261 267 261 339 q 306 83 261 146 q 433 19 351 19 z "},"Ọ":{"ha":986,"x_min":128,"x_max":953,"o":"m 422 -25 q 267 25 333 -25 q 164 159 200 75 q 128 344 128 243 q 206 679 128 525 q 407 924 283 833 q 658 1014 531 1014 q 814 963 747 1014 q 917 828 881 913 q 953 642 953 743 q 875 308 953 461 q 674 65 797 154 q 422 -25 550 -25 m 433 19 q 631 117 551 19 q 758 344 711 214 q 808 550 796 450 q 819 722 819 650 q 774 906 819 843 q 647 969 729 969 q 449 872 529 969 q 322 644 369 775 q 273 439 285 539 q 261 267 261 339 q 306 83 261 146 q 433 19 351 19 m 354 -281 q 302 -260 322 -281 q 282 -208 282 -240 q 302 -157 282 -178 q 354 -136 322 -136 q 406 -157 385 -136 q 426 -208 426 -178 q 406 -260 426 -240 q 354 -281 385 -281 z "},"Ò":{"ha":986,"x_min":128,"x_max":953,"o":"m 560 1193 q 544 1217 550 1203 q 539 1243 539 1232 q 549 1276 539 1260 q 588 1292 560 1292 q 646 1240 629 1292 l 703 1071 l 682 1058 l 560 1193 m 422 -25 q 267 25 333 -25 q 164 159 200 75 q 128 344 128 243 q 206 679 128 525 q 407 924 283 833 q 658 1014 531 1014 q 814 963 747 1014 q 917 828 881 913 q 953 642 953 743 q 875 308 953 461 q 674 65 797 154 q 422 -25 550 -25 m 433 19 q 631 117 551 19 q 758 344 711 214 q 808 550 796 450 q 819 722 819 650 q 774 906 819 843 q 647 969 729 969 q 449 872 529 969 q 322 644 369 775 q 273 439 285 539 q 261 267 261 339 q 306 83 261 146 q 433 19 351 19 z "},"Ỏ":{"ha":986,"x_min":128,"x_max":953,"o":"m 422 -25 q 267 25 333 -25 q 164 159 200 75 q 128 344 128 243 q 206 679 128 525 q 407 924 283 833 q 658 1014 531 1014 q 814 963 747 1014 q 917 828 881 913 q 953 642 953 743 q 875 308 953 461 q 674 65 797 154 q 422 -25 550 -25 m 433 19 q 631 117 551 19 q 758 344 711 214 q 808 550 796 450 q 819 722 819 650 q 774 906 819 843 q 647 969 729 969 q 449 872 529 969 q 322 644 369 775 q 273 439 285 539 q 261 267 261 339 q 306 83 261 146 q 433 19 351 19 m 735 1113 q 789 1193 779 1144 q 792 1214 792 1207 q 776 1255 792 1239 q 729 1271 761 1271 q 674 1256 700 1271 q 644 1221 647 1240 q 644 1203 640 1207 q 648 1200 646 1201 q 651 1200 650 1199 q 657 1201 653 1199 q 663 1202 661 1203 q 668 1203 665 1201 q 688 1182 688 1200 q 676 1156 688 1167 q 644 1146 664 1146 q 620 1157 631 1146 q 610 1188 610 1168 q 651 1260 610 1231 q 739 1292 692 1290 q 816 1269 785 1290 q 847 1211 847 1249 q 816 1135 847 1165 q 726 1069 785 1106 l 678 1069 l 735 1113 z "},"Ơ":{"ha":986,"x_min":128,"x_max":960,"o":"m 807 968 q 915 833 876 921 q 953 642 953 746 q 875 308 953 461 q 674 65 797 154 q 422 -25 550 -25 q 267 25 333 -25 q 164 159 200 75 q 128 344 128 243 q 206 679 128 525 q 407 924 283 833 q 658 1014 531 1014 q 767 992 715 1014 q 839 1031 817 999 q 872 1128 861 1063 l 960 1128 q 807 968 944 1000 m 758 344 q 808 550 796 450 q 819 722 819 650 q 774 906 819 843 q 647 969 729 969 q 449 872 529 969 q 322 644 369 775 q 273 439 285 539 q 261 267 261 339 q 306 83 261 146 q 433 19 351 19 q 631 117 551 19 q 758 344 711 214 z "},"Ớ":{"ha":986,"x_min":128,"x_max":960,"o":"m 807 968 q 915 833 876 921 q 953 642 953 746 q 875 308 953 461 q 674 65 797 154 q 422 -25 550 -25 q 267 25 333 -25 q 164 159 200 75 q 128 344 128 243 q 206 679 128 525 q 407 924 283 833 q 658 1014 531 1014 q 767 992 715 1014 q 839 1031 817 999 q 872 1128 861 1063 l 960 1128 q 807 968 944 1000 m 758 344 q 808 550 796 450 q 819 722 819 650 q 774 906 819 843 q 647 969 729 969 q 449 872 529 969 q 322 644 369 775 q 273 439 285 539 q 261 267 261 339 q 306 83 261 146 q 433 19 351 19 q 631 117 551 19 q 758 344 711 214 m 660 1075 l 807 1246 q 840 1275 825 1267 q 874 1283 856 1283 q 913 1243 913 1283 q 868 1179 913 1206 l 676 1058 l 660 1075 z "},"Ợ":{"ha":986,"x_min":128,"x_max":960,"o":"m 807 968 q 915 833 876 921 q 953 642 953 746 q 875 308 953 461 q 674 65 797 154 q 422 -25 550 -25 q 267 25 333 -25 q 164 159 200 75 q 128 344 128 243 q 206 679 128 525 q 407 924 283 833 q 658 1014 531 1014 q 767 992 715 1014 q 839 1031 817 999 q 872 1128 861 1063 l 960 1128 q 807 968 944 1000 m 758 344 q 808 550 796 450 q 819 722 819 650 q 774 906 819 843 q 647 969 729 969 q 449 872 529 969 q 322 644 369 775 q 273 439 285 539 q 261 267 261 339 q 306 83 261 146 q 433 19 351 19 q 631 117 551 19 q 758 344 711 214 m 354 -281 q 302 -260 322 -281 q 282 -208 282 -240 q 302 -157 282 -178 q 354 -136 322 -136 q 406 -157 385 -136 q 426 -208 426 -178 q 406 -260 426 -240 q 354 -281 385 -281 z "},"Ờ":{"ha":986,"x_min":128,"x_max":960,"o":"m 807 968 q 915 833 876 921 q 953 642 953 746 q 875 308 953 461 q 674 65 797 154 q 422 -25 550 -25 q 267 25 333 -25 q 164 159 200 75 q 128 344 128 243 q 206 679 128 525 q 407 924 283 833 q 658 1014 531 1014 q 767 992 715 1014 q 839 1031 817 999 q 872 1128 861 1063 l 960 1128 q 807 968 944 1000 m 758 344 q 808 550 796 450 q 819 722 819 650 q 774 906 819 843 q 647 969 729 969 q 449 872 529 969 q 322 644 369 775 q 273 439 285 539 q 261 267 261 339 q 306 83 261 146 q 433 19 351 19 q 631 117 551 19 q 758 344 711 214 m 569 1193 q 554 1217 560 1203 q 549 1243 549 1232 q 559 1276 549 1260 q 597 1292 569 1292 q 656 1240 639 1292 l 713 1071 l 692 1058 l 569 1193 z "},"Ở":{"ha":986,"x_min":128,"x_max":960,"o":"m 807 968 q 915 833 876 921 q 953 642 953 746 q 875 308 953 461 q 674 65 797 154 q 422 -25 550 -25 q 267 25 333 -25 q 164 159 200 75 q 128 344 128 243 q 206 679 128 525 q 407 924 283 833 q 658 1014 531 1014 q 767 992 715 1014 q 839 1031 817 999 q 872 1128 861 1063 l 960 1128 q 807 968 944 1000 m 758 344 q 808 550 796 450 q 819 722 819 650 q 774 906 819 843 q 647 969 729 969 q 449 872 529 969 q 322 644 369 775 q 273 439 285 539 q 261 267 261 339 q 306 83 261 146 q 433 19 351 19 q 631 117 551 19 q 758 344 711 214 m 735 1113 q 789 1193 779 1144 q 792 1214 792 1207 q 776 1255 792 1239 q 729 1271 761 1271 q 674 1256 700 1271 q 644 1221 647 1240 q 644 1203 640 1207 q 648 1200 646 1201 q 651 1200 650 1199 q 657 1201 653 1199 q 663 1202 661 1203 q 668 1203 665 1201 q 688 1182 688 1200 q 676 1156 688 1167 q 644 1146 664 1146 q 620 1157 631 1146 q 610 1188 610 1168 q 651 1260 610 1231 q 739 1292 692 1290 q 816 1269 785 1290 q 847 1211 847 1249 q 816 1135 847 1165 q 726 1069 785 1106 l 678 1069 l 735 1113 z "},"Ỡ":{"ha":986,"x_min":128,"x_max":960,"o":"m 807 968 q 915 833 876 921 q 953 642 953 746 q 875 308 953 461 q 674 65 797 154 q 422 -25 550 -25 q 267 25 333 -25 q 164 159 200 75 q 128 344 128 243 q 206 679 128 525 q 407 924 283 833 q 658 1014 531 1014 q 767 992 715 1014 q 839 1031 817 999 q 872 1128 861 1063 l 960 1128 q 807 968 944 1000 m 758 344 q 808 550 796 450 q 819 722 819 650 q 774 906 819 843 q 647 969 729 969 q 449 872 529 969 q 322 644 369 775 q 273 439 285 539 q 261 267 261 339 q 306 83 261 146 q 433 19 351 19 q 631 117 551 19 q 758 344 711 214 m 486 1125 q 522 1215 490 1178 q 606 1253 553 1253 q 731 1224 646 1253 q 831 1200 799 1200 q 871 1215 856 1200 q 892 1258 886 1231 l 919 1256 q 884 1165 915 1203 q 800 1128 853 1128 q 675 1157 760 1128 q 575 1181 607 1181 q 535 1165 550 1181 q 514 1122 519 1150 l 486 1125 z "},"Ő":{"ha":986,"x_min":128,"x_max":1006,"o":"m 556 1074 l 683 1258 q 717 1293 701 1283 q 751 1303 732 1303 q 780 1291 769 1303 q 790 1260 790 1279 q 751 1199 790 1228 l 574 1058 l 556 1074 m 771 1074 l 899 1258 q 932 1293 917 1283 q 967 1303 947 1303 q 995 1291 985 1303 q 1006 1260 1006 1279 q 967 1199 1006 1228 l 789 1058 l 771 1074 m 422 -25 q 267 25 333 -25 q 164 159 200 75 q 128 344 128 243 q 206 679 128 525 q 407 924 283 833 q 658 1014 531 1014 q 814 963 747 1014 q 917 828 881 913 q 953 642 953 743 q 875 308 953 461 q 674 65 797 154 q 422 -25 550 -25 m 433 19 q 631 117 551 19 q 758 344 711 214 q 808 550 796 450 q 819 722 819 650 q 774 906 819 843 q 647 969 729 969 q 449 872 529 969 q 322 644 369 775 q 273 439 285 539 q 261 267 261 339 q 306 83 261 146 q 433 19 351 19 z "},"Ȏ":{"ha":986,"x_min":128,"x_max":953,"o":"m 422 -25 q 267 25 333 -25 q 164 159 200 75 q 128 344 128 243 q 206 679 128 525 q 407 924 283 833 q 658 1014 531 1014 q 814 963 747 1014 q 917 828 881 913 q 953 642 953 743 q 875 308 953 461 q 674 65 797 154 q 422 -25 550 -25 m 433 19 q 631 117 551 19 q 758 344 711 214 q 808 550 796 450 q 819 722 819 650 q 774 906 819 843 q 647 969 729 969 q 449 872 529 969 q 322 644 369 775 q 273 439 285 539 q 261 267 261 339 q 306 83 261 146 q 433 19 351 19 m 481 1069 q 549 1161 506 1113 q 643 1244 592 1210 q 742 1278 694 1278 q 819 1244 788 1278 q 867 1162 851 1210 q 886 1069 883 1114 l 858 1058 q 813 1161 849 1122 q 721 1200 776 1200 q 610 1160 665 1200 q 508 1058 554 1121 l 481 1069 z "},"Ō":{"ha":986,"x_min":128,"x_max":953,"o":"m 497 1142 l 511 1197 l 947 1197 l 933 1142 l 497 1142 m 422 -25 q 267 25 333 -25 q 164 159 200 75 q 128 344 128 243 q 206 679 128 525 q 407 924 283 833 q 658 1014 531 1014 q 814 963 747 1014 q 917 828 881 913 q 953 642 953 743 q 875 308 953 461 q 674 65 797 154 q 422 -25 550 -25 m 433 19 q 631 117 551 19 q 758 344 711 214 q 808 550 796 450 q 819 722 819 650 q 774 906 819 843 q 647 969 729 969 q 449 872 529 969 q 322 644 369 775 q 273 439 285 539 q 261 267 261 339 q 306 83 261 146 q 433 19 351 19 z "},"Ṓ":{"ha":986,"x_min":128,"x_max":953,"o":"m 690 1163 l 792 1281 q 824 1312 810 1301 q 853 1322 838 1322 q 881 1310 871 1322 q 892 1285 892 1299 q 842 1228 892 1256 l 701 1150 l 690 1163 m 492 1078 l 506 1128 l 919 1128 l 906 1078 l 492 1078 m 422 -25 q 267 25 333 -25 q 164 159 200 75 q 128 344 128 243 q 206 679 128 525 q 407 924 283 833 q 658 1014 531 1014 q 814 963 747 1014 q 917 828 881 913 q 953 642 953 743 q 875 308 953 461 q 674 65 797 154 q 422 -25 550 -25 m 433 19 q 631 117 551 19 q 758 344 711 214 q 808 550 796 450 q 819 722 819 650 q 774 906 819 843 q 647 969 729 969 q 449 872 529 969 q 322 644 369 775 q 273 439 285 539 q 261 267 261 339 q 306 83 261 146 q 433 19 351 19 z "},"Ṑ":{"ha":986,"x_min":128,"x_max":953,"o":"m 676 1243 q 656 1288 656 1264 q 666 1311 656 1300 q 693 1322 676 1322 q 738 1279 718 1322 l 789 1158 l 772 1147 l 676 1243 m 492 1078 l 506 1128 l 919 1128 l 906 1078 l 492 1078 m 422 -25 q 267 25 333 -25 q 164 159 200 75 q 128 344 128 243 q 206 679 128 525 q 407 924 283 833 q 658 1014 531 1014 q 814 963 747 1014 q 917 828 881 913 q 953 642 953 743 q 875 308 953 461 q 674 65 797 154 q 422 -25 550 -25 m 433 19 q 631 117 551 19 q 758 344 711 214 q 808 550 796 450 q 819 722 819 650 q 774 906 819 843 q 647 969 729 969 q 449 872 529 969 q 322 644 369 775 q 273 439 285 539 q 261 267 261 339 q 306 83 261 146 q 433 19 351 19 z "},"Ǫ":{"ha":986,"x_min":128,"x_max":953,"o":"m 329 -343 q 247 -316 283 -343 q 211 -235 211 -289 q 364 -25 211 -132 l 363 -18 q 191 106 254 6 q 128 344 128 207 q 206 679 128 525 q 407 924 283 833 q 658 1014 531 1014 q 814 963 747 1014 q 917 828 881 913 q 953 642 953 743 q 876 310 953 464 q 675 66 799 157 q 418 -25 551 -25 q 325 -108 361 -65 q 289 -206 289 -150 q 301 -242 289 -231 q 333 -254 314 -254 q 378 -239 357 -254 q 402 -221 393 -225 q 425 -217 411 -217 q 451 -228 442 -217 q 460 -256 460 -239 q 444 -295 460 -275 q 400 -329 429 -315 q 329 -343 371 -343 m 433 19 q 631 117 551 19 q 758 344 711 214 q 808 550 796 450 q 819 722 819 650 q 774 906 819 843 q 647 969 729 969 q 449 872 529 969 q 322 644 369 775 q 273 439 285 539 q 261 267 261 339 q 306 83 261 146 q 433 19 351 19 z "},"Ø":{"ha":986,"x_min":61,"x_max":1022,"o":"m 61 8 l 176 133 q 128 344 128 224 q 206 679 128 525 q 407 924 283 833 q 658 1014 531 1014 q 784 983 728 1014 q 879 896 840 951 l 989 1014 l 1022 981 l 906 853 q 953 642 953 761 q 875 308 953 461 q 674 65 797 154 q 422 -25 550 -25 q 297 6 353 -25 q 201 92 242 36 l 94 -25 l 61 8 m 810 819 q 753 932 794 894 q 647 969 711 969 q 449 872 529 969 q 322 644 369 775 q 273 439 285 539 q 261 267 261 339 q 263 226 261 239 l 810 819 m 433 19 q 631 117 551 19 q 758 344 711 214 q 808 550 796 450 q 819 722 819 650 q 818 760 819 747 l 271 167 q 329 57 288 94 q 433 19 371 19 z "},"Ǿ":{"ha":986,"x_min":61,"x_max":1022,"o":"m 669 1075 l 817 1246 q 850 1275 835 1267 q 883 1283 865 1283 q 922 1243 922 1283 q 878 1179 922 1206 l 686 1058 l 669 1075 m 61 8 l 176 133 q 128 344 128 224 q 206 679 128 525 q 407 924 283 833 q 658 1014 531 1014 q 784 983 728 1014 q 879 896 840 951 l 989 1014 l 1022 981 l 906 853 q 953 642 953 761 q 875 308 953 461 q 674 65 797 154 q 422 -25 550 -25 q 297 6 353 -25 q 201 92 242 36 l 94 -25 l 61 8 m 810 819 q 753 932 794 894 q 647 969 711 969 q 449 872 529 969 q 322 644 369 775 q 273 439 285 539 q 261 267 261 339 q 263 226 261 239 l 810 819 m 433 19 q 631 117 551 19 q 758 344 711 214 q 808 550 796 450 q 819 722 819 650 q 818 760 819 747 l 271 167 q 329 57 288 94 q 433 19 371 19 z "},"Õ":{"ha":986,"x_min":128,"x_max":953,"o":"m 508 1125 q 544 1215 513 1178 q 628 1253 575 1253 q 753 1224 668 1253 q 853 1200 821 1200 q 893 1215 878 1200 q 914 1258 908 1231 l 942 1256 q 906 1165 938 1203 q 822 1128 875 1128 q 697 1157 782 1128 q 597 1181 629 1181 q 557 1165 572 1181 q 536 1122 542 1150 l 508 1125 m 422 -25 q 267 25 333 -25 q 164 159 200 75 q 128 344 128 243 q 206 679 128 525 q 407 924 283 833 q 658 1014 531 1014 q 814 963 747 1014 q 917 828 881 913 q 953 642 953 743 q 875 308 953 461 q 674 65 797 154 q 422 -25 550 -25 m 433 19 q 631 117 551 19 q 758 344 711 214 q 808 550 796 450 q 819 722 819 650 q 774 906 819 843 q 647 969 729 969 q 449 872 529 969 q 322 644 369 775 q 273 439 285 539 q 261 267 261 339 q 306 83 261 146 q 433 19 351 19 z "},"Ṍ":{"ha":986,"x_min":128,"x_max":953,"o":"m 661 1194 l 807 1297 q 864 1322 842 1322 q 892 1310 882 1322 q 903 1285 903 1299 q 838 1231 903 1250 l 669 1178 l 661 1194 m 483 1069 q 614 1161 507 1161 q 726 1142 651 1161 q 840 1122 801 1122 q 884 1133 869 1122 q 911 1165 899 1143 l 931 1158 q 800 1067 907 1067 q 688 1086 753 1067 q 574 1106 619 1106 q 530 1095 544 1106 q 503 1063 515 1085 l 483 1069 m 422 -25 q 267 25 333 -25 q 164 159 200 75 q 128 344 128 243 q 206 679 128 525 q 407 924 283 833 q 658 1014 531 1014 q 814 963 747 1014 q 917 828 881 913 q 953 642 953 743 q 875 308 953 461 q 674 65 797 154 q 422 -25 550 -25 m 433 19 q 631 117 551 19 q 758 344 711 214 q 808 550 796 450 q 819 722 819 650 q 774 906 819 843 q 647 969 729 969 q 449 872 529 969 q 322 644 369 775 q 273 439 285 539 q 261 267 261 339 q 306 83 261 146 q 433 19 351 19 z "},"Ṏ":{"ha":986,"x_min":128,"x_max":975,"o":"m 633 1208 q 594 1225 611 1208 q 578 1264 578 1242 q 594 1303 578 1288 q 633 1319 611 1319 q 673 1303 657 1319 q 689 1264 689 1288 q 673 1225 689 1242 q 633 1208 657 1208 m 919 1208 q 881 1225 897 1208 q 864 1264 864 1242 q 881 1303 864 1288 q 919 1319 897 1319 q 959 1303 943 1319 q 975 1264 975 1288 q 959 1225 975 1242 q 919 1208 943 1208 m 483 1069 q 614 1161 507 1161 q 726 1142 651 1161 q 840 1122 801 1122 q 884 1133 869 1122 q 911 1165 899 1143 l 931 1158 q 800 1067 907 1067 q 688 1086 753 1067 q 574 1106 619 1106 q 530 1095 544 1106 q 503 1063 515 1085 l 483 1069 m 422 -25 q 267 25 333 -25 q 164 159 200 75 q 128 344 128 243 q 206 679 128 525 q 407 924 283 833 q 658 1014 531 1014 q 814 963 747 1014 q 917 828 881 913 q 953 642 953 743 q 875 308 953 461 q 674 65 797 154 q 422 -25 550 -25 m 433 19 q 631 117 551 19 q 758 344 711 214 q 808 550 796 450 q 819 722 819 650 q 774 906 819 843 q 647 969 729 969 q 449 872 529 969 q 322 644 369 775 q 273 439 285 539 q 261 267 261 339 q 306 83 261 146 q 433 19 351 19 z "},"Œ":{"ha":1481,"x_min":128,"x_max":1528,"o":"m 422 -25 q 267 25 333 -25 q 164 159 200 75 q 128 344 128 243 q 205 662 128 506 q 406 916 282 818 q 658 1014 529 1014 q 761 1000 697 1014 q 847 988 811 988 l 1528 989 l 1464 672 l 1429 672 q 1432 695 1431 678 q 1433 739 1433 713 q 1396 900 1433 856 q 1283 944 1358 944 l 1056 944 q 1008 907 1018 944 l 907 533 l 1057 533 q 1144 563 1111 533 q 1194 633 1178 593 q 1225 731 1210 674 l 1260 731 l 1140 281 l 1106 281 q 1119 385 1119 342 q 1101 461 1119 433 q 1036 489 1082 489 l 896 489 l 785 82 q 782 67 782 71 q 811 44 782 44 l 1069 44 q 1154 62 1106 44 q 1242 117 1203 79 q 1313 212 1281 156 q 1365 314 1346 268 q 1389 372 1385 360 l 1422 372 l 1306 0 l 668 0 q 497 -17 575 0 q 422 -25 444 -25 m 433 19 q 609 99 535 19 q 714 292 683 178 l 801 610 q 821 744 821 679 q 778 906 821 843 q 647 969 735 969 q 452 872 529 969 q 322 633 375 774 q 274 432 286 536 q 261 256 261 328 q 433 19 261 19 z "},"P":{"ha":908,"x_min":-14,"x_max":958,"o":"m -3 44 l 103 44 q 150 82 140 44 l 374 907 l 376 924 q 347 944 376 944 l 242 944 l 254 989 l 728 989 q 894 931 831 989 q 958 769 958 874 q 908 615 958 686 q 763 499 857 543 q 547 456 669 456 l 378 456 l 276 82 q 275 67 275 76 q 281 49 275 54 q 303 44 288 44 l 458 44 l 447 0 l -14 0 l -3 44 m 576 500 q 681 526 631 500 q 767 600 732 553 q 810 691 794 639 q 825 794 825 743 q 788 908 825 871 q 697 944 751 944 l 547 944 q 500 907 510 944 l 390 500 l 576 500 z "},"Þ":{"ha":942,"x_min":-14,"x_max":908,"o":"m -3 44 l 103 44 q 150 82 140 44 l 374 907 q 376 924 376 918 q 347 944 376 944 l 242 944 l 254 989 l 714 989 l 703 944 l 547 944 q 516 936 526 944 q 500 907 506 928 l 472 803 l 678 803 q 844 749 779 810 q 908 583 908 689 q 858 428 908 500 q 713 313 807 357 q 497 269 619 269 l 328 269 l 276 82 l 274 65 q 303 44 274 44 l 458 44 l 447 0 l -14 0 l -3 44 m 526 314 q 631 340 581 314 q 717 414 682 367 q 760 505 744 453 q 775 608 775 557 q 738 722 775 685 q 647 758 701 758 l 497 758 q 450 721 460 758 l 340 314 l 526 314 z "},"Q":{"ha":986,"x_min":128,"x_max":953,"o":"m 589 -256 q 489 -223 528 -256 q 450 -126 450 -190 q 460 -56 450 -101 l 468 -21 q 422 -25 447 -25 q 267 25 333 -25 q 164 159 200 75 q 128 344 128 243 q 206 679 128 525 q 407 924 283 833 q 658 1014 531 1014 q 814 964 747 1014 q 917 828 881 914 q 953 639 953 743 q 893 347 953 481 q 744 125 833 213 q 572 7 656 38 l 572 -54 q 583 -147 572 -110 q 635 -183 594 -183 q 761 -14 714 -183 l 794 -24 q 708 -206 764 -156 q 589 -256 653 -256 m 339 53 q 321 114 321 78 q 358 221 321 188 q 447 254 394 254 q 532 203 500 254 q 571 63 564 151 q 753 327 688 147 q 819 722 819 507 q 774 906 819 843 q 647 969 729 969 q 448 871 536 969 q 310 610 360 772 q 261 267 261 449 q 333 53 261 111 l 339 53 m 432 19 q 478 25 450 19 l 489 76 q 493 113 493 93 q 481 185 493 156 q 428 215 468 215 q 378 190 396 215 q 360 114 360 164 q 380 43 360 67 q 432 19 400 19 z "},"R":{"ha":1000,"x_min":-14,"x_max":964,"o":"m 758 -17 q 667 13 703 -17 q 631 113 631 43 q 637 176 631 144 q 650 236 643 208 q 658 272 657 264 q 681 385 681 349 q 651 467 681 439 q 575 494 622 494 l 388 494 l 276 82 q 275 67 275 76 q 303 44 275 44 l 442 44 l 431 0 l -14 0 l -3 44 l 103 44 q 150 82 140 44 l 374 907 q 376 924 376 918 q 347 944 376 944 l 242 944 l 253 989 l 685 989 q 868 932 803 989 q 933 764 933 875 q 896 652 933 706 q 797 562 858 599 q 667 513 735 525 l 665 507 q 792 306 792 446 q 775 192 792 269 q 761 100 761 125 q 770 68 761 81 q 800 56 779 56 q 881 106 851 56 q 929 225 910 156 l 964 215 q 927 108 946 153 q 867 24 908 64 q 758 -17 825 -17 m 569 539 q 738 607 675 539 q 800 797 800 675 q 764 908 800 871 q 658 944 728 944 l 547 944 q 500 907 510 944 l 400 539 l 569 539 z "},"Ŕ":{"ha":1000,"x_min":-14,"x_max":964,"o":"m 619 1075 l 767 1246 q 800 1275 785 1267 q 833 1283 815 1283 q 872 1243 872 1283 q 828 1179 872 1206 l 636 1058 l 619 1075 m 758 -17 q 667 13 703 -17 q 631 113 631 43 q 637 176 631 144 q 650 236 643 208 q 658 272 657 264 q 681 385 681 349 q 651 467 681 439 q 575 494 622 494 l 388 494 l 276 82 q 275 67 275 76 q 303 44 275 44 l 442 44 l 431 0 l -14 0 l -3 44 l 103 44 q 150 82 140 44 l 374 907 q 376 924 376 918 q 347 944 376 944 l 242 944 l 253 989 l 685 989 q 868 932 803 989 q 933 764 933 875 q 896 652 933 706 q 797 562 858 599 q 667 513 735 525 l 665 507 q 792 306 792 446 q 775 192 792 269 q 761 100 761 125 q 770 68 761 81 q 800 56 779 56 q 881 106 851 56 q 929 225 910 156 l 964 215 q 927 108 946 153 q 867 24 908 64 q 758 -17 825 -17 m 569 539 q 738 607 675 539 q 800 797 800 675 q 764 908 800 871 q 658 944 728 944 l 547 944 q 500 907 510 944 l 400 539 l 569 539 z "},"Ř":{"ha":1000,"x_min":-14,"x_max":964,"o":"m 607 1058 l 467 1258 l 488 1278 l 657 1144 l 899 1278 l 911 1258 l 663 1058 l 607 1058 m 758 -17 q 667 13 703 -17 q 631 113 631 43 q 637 176 631 144 q 650 236 643 208 q 658 272 657 264 q 681 385 681 349 q 651 467 681 439 q 575 494 622 494 l 388 494 l 276 82 q 275 67 275 76 q 303 44 275 44 l 442 44 l 431 0 l -14 0 l -3 44 l 103 44 q 150 82 140 44 l 374 907 q 376 924 376 918 q 347 944 376 944 l 242 944 l 253 989 l 685 989 q 868 932 803 989 q 933 764 933 875 q 896 652 933 706 q 797 562 858 599 q 667 513 735 525 l 665 507 q 792 306 792 446 q 775 192 792 269 q 761 100 761 125 q 770 68 761 81 q 800 56 779 56 q 881 106 851 56 q 929 225 910 156 l 964 215 q 927 108 946 153 q 867 24 908 64 q 758 -17 825 -17 m 569 539 q 738 607 675 539 q 800 797 800 675 q 764 908 800 871 q 658 944 728 944 l 547 944 q 500 907 510 944 l 400 539 l 569 539 z "},"Ŗ":{"ha":1000,"x_min":-14,"x_max":964,"o":"m 758 -17 q 667 13 703 -17 q 631 113 631 43 q 637 176 631 144 q 650 236 643 208 q 658 272 657 264 q 681 385 681 349 q 651 467 681 439 q 575 494 622 494 l 388 494 l 276 82 q 275 67 275 76 q 303 44 275 44 l 442 44 l 431 0 l -14 0 l -3 44 l 103 44 q 150 82 140 44 l 374 907 q 376 924 376 918 q 347 944 376 944 l 242 944 l 253 989 l 685 989 q 868 932 803 989 q 933 764 933 875 q 896 652 933 706 q 797 562 858 599 q 667 513 735 525 l 665 507 q 792 306 792 446 q 775 192 792 269 q 761 100 761 125 q 770 68 761 81 q 800 56 779 56 q 881 106 851 56 q 929 225 910 156 l 964 215 q 927 108 946 153 q 867 24 908 64 q 758 -17 825 -17 m 569 539 q 738 607 675 539 q 800 797 800 675 q 764 908 800 871 q 658 944 728 944 l 547 944 q 500 907 510 944 l 400 539 l 569 539 m 314 -321 q 443 -196 443 -268 q 431 -172 443 -181 q 410 -169 422 -169 q 372 -154 385 -169 q 358 -117 358 -139 q 376 -72 358 -89 q 421 -56 394 -56 q 475 -76 453 -56 q 497 -136 497 -97 q 448 -264 497 -212 q 325 -344 399 -315 l 314 -321 z "},"Ȑ":{"ha":1000,"x_min":-14,"x_max":964,"o":"m 407 1193 q 392 1217 397 1203 q 386 1243 386 1232 q 397 1276 386 1260 q 435 1292 407 1292 q 493 1240 476 1292 l 550 1071 l 529 1058 l 407 1193 m 621 1193 q 606 1217 611 1203 q 600 1243 600 1232 q 610 1276 600 1260 q 649 1292 621 1292 q 707 1240 690 1292 l 764 1071 l 743 1058 l 621 1193 m 758 -17 q 667 13 703 -17 q 631 113 631 43 q 637 176 631 144 q 650 236 643 208 q 658 272 657 264 q 681 385 681 349 q 651 467 681 439 q 575 494 622 494 l 388 494 l 276 82 q 275 67 275 76 q 303 44 275 44 l 442 44 l 431 0 l -14 0 l -3 44 l 103 44 q 150 82 140 44 l 374 907 q 376 924 376 918 q 347 944 376 944 l 242 944 l 253 989 l 685 989 q 868 932 803 989 q 933 764 933 875 q 896 652 933 706 q 797 562 858 599 q 667 513 735 525 l 665 507 q 792 306 792 446 q 775 192 792 269 q 761 100 761 125 q 770 68 761 81 q 800 56 779 56 q 881 106 851 56 q 929 225 910 156 l 964 215 q 927 108 946 153 q 867 24 908 64 q 758 -17 825 -17 m 569 539 q 738 607 675 539 q 800 797 800 675 q 764 908 800 871 q 658 944 728 944 l 547 944 q 500 907 510 944 l 400 539 l 569 539 z "},"Ṛ":{"ha":1000,"x_min":-14,"x_max":964,"o":"m 758 -17 q 667 13 703 -17 q 631 113 631 43 q 637 176 631 144 q 650 236 643 208 q 658 272 657 264 q 681 385 681 349 q 651 467 681 439 q 575 494 622 494 l 388 494 l 276 82 q 275 67 275 76 q 303 44 275 44 l 442 44 l 431 0 l -14 0 l -3 44 l 103 44 q 150 82 140 44 l 374 907 q 376 924 376 918 q 347 944 376 944 l 242 944 l 253 989 l 685 989 q 868 932 803 989 q 933 764 933 875 q 896 652 933 706 q 797 562 858 599 q 667 513 735 525 l 665 507 q 792 306 792 446 q 775 192 792 269 q 761 100 761 125 q 770 68 761 81 q 800 56 779 56 q 881 106 851 56 q 929 225 910 156 l 964 215 q 927 108 946 153 q 867 24 908 64 q 758 -17 825 -17 m 569 539 q 738 607 675 539 q 800 797 800 675 q 764 908 800 871 q 658 944 728 944 l 547 944 q 500 907 510 944 l 400 539 l 569 539 m 414 -281 q 363 -260 383 -281 q 342 -208 342 -240 q 363 -157 342 -178 q 414 -136 383 -136 q 466 -157 446 -136 q 486 -208 486 -178 q 466 -260 486 -240 q 414 -281 446 -281 z "},"Ȓ":{"ha":1000,"x_min":-14,"x_max":964,"o":"m 444 1069 q 513 1161 469 1113 q 607 1244 556 1210 q 706 1278 658 1278 q 783 1244 751 1278 q 831 1162 815 1210 q 850 1069 847 1114 l 822 1058 q 776 1161 813 1122 q 685 1200 740 1200 q 574 1160 629 1200 q 472 1058 518 1121 l 444 1069 m 758 -17 q 667 13 703 -17 q 631 113 631 43 q 637 176 631 144 q 650 236 643 208 q 658 272 657 264 q 681 385 681 349 q 651 467 681 439 q 575 494 622 494 l 388 494 l 276 82 q 275 67 275 76 q 303 44 275 44 l 442 44 l 431 0 l -14 0 l -3 44 l 103 44 q 150 82 140 44 l 374 907 q 376 924 376 918 q 347 944 376 944 l 242 944 l 253 989 l 685 989 q 868 932 803 989 q 933 764 933 875 q 896 652 933 706 q 797 562 858 599 q 667 513 735 525 l 665 507 q 792 306 792 446 q 775 192 792 269 q 761 100 761 125 q 770 68 761 81 q 800 56 779 56 q 881 106 851 56 q 929 225 910 156 l 964 215 q 927 108 946 153 q 867 24 908 64 q 758 -17 825 -17 m 569 539 q 738 607 675 539 q 800 797 800 675 q 764 908 800 871 q 658 944 728 944 l 547 944 q 500 907 510 944 l 400 539 l 569 539 z "},"Ṟ":{"ha":1000,"x_min":-14,"x_max":964,"o":"m 758 -17 q 667 13 703 -17 q 631 113 631 43 q 637 176 631 144 q 650 236 643 208 q 658 272 657 264 q 681 385 681 349 q 651 467 681 439 q 575 494 622 494 l 388 494 l 276 82 q 275 67 275 76 q 303 44 275 44 l 442 44 l 431 0 l -14 0 l -3 44 l 103 44 q 150 82 140 44 l 374 907 q 376 924 376 918 q 347 944 376 944 l 242 944 l 253 989 l 685 989 q 868 932 803 989 q 933 764 933 875 q 896 652 933 706 q 797 562 858 599 q 667 513 735 525 l 665 507 q 792 306 792 446 q 775 192 792 269 q 761 100 761 125 q 770 68 761 81 q 800 56 779 56 q 881 106 851 56 q 929 225 910 156 l 964 215 q 927 108 946 153 q 867 24 908 64 q 758 -17 825 -17 m 569 539 q 738 607 675 539 q 800 797 800 675 q 764 908 800 871 q 658 944 728 944 l 547 944 q 500 907 510 944 l 400 539 l 569 539 m 192 -233 l 206 -178 l 642 -178 l 628 -233 l 192 -233 z "},"S":{"ha":861,"x_min":47,"x_max":872,"o":"m 432 -25 q 285 10 347 -25 q 193 74 222 44 q 169 94 179 88 q 151 101 160 101 q 110 63 129 101 q 79 -14 90 25 l 47 -14 l 158 425 l 190 425 q 183 351 183 383 q 219 188 183 264 q 314 65 254 111 q 443 19 374 19 q 621 68 560 19 q 682 211 682 117 q 654 302 682 267 q 569 372 626 338 l 408 471 q 285 576 324 521 q 246 722 246 632 q 330 941 246 868 q 550 1014 414 1014 q 649 988 600 1014 q 729 933 699 961 q 751 916 743 921 q 769 911 760 911 q 813 942 793 911 q 840 1003 832 972 l 872 1003 l 792 642 l 760 642 q 735 786 764 708 q 654 917 707 864 q 538 969 601 969 q 417 943 467 969 q 344 874 368 917 q 321 785 321 832 q 359 681 321 719 q 463 604 397 642 l 593 528 q 694 458 657 489 q 751 383 731 426 q 771 275 771 339 q 682 56 771 136 q 432 -25 593 -25 z "},"Ś":{"ha":861,"x_min":47,"x_max":872,"o":"m 575 1075 l 722 1246 q 756 1275 740 1267 q 789 1283 771 1283 q 828 1243 828 1283 q 783 1179 828 1206 l 592 1058 l 575 1075 m 432 -25 q 285 10 347 -25 q 193 74 222 44 q 169 94 179 88 q 151 101 160 101 q 110 63 129 101 q 79 -14 90 25 l 47 -14 l 158 425 l 190 425 q 183 351 183 383 q 219 188 183 264 q 314 65 254 111 q 443 19 374 19 q 621 68 560 19 q 682 211 682 117 q 654 302 682 267 q 569 372 626 338 l 408 471 q 285 576 324 521 q 246 722 246 632 q 330 941 246 868 q 550 1014 414 1014 q 649 988 600 1014 q 729 933 699 961 q 751 916 743 921 q 769 911 760 911 q 813 942 793 911 q 840 1003 832 972 l 872 1003 l 792 642 l 760 642 q 735 786 764 708 q 654 917 707 864 q 538 969 601 969 q 417 943 467 969 q 344 874 368 917 q 321 785 321 832 q 359 681 321 719 q 463 604 397 642 l 593 528 q 694 458 657 489 q 751 383 731 426 q 771 275 771 339 q 682 56 771 136 q 432 -25 593 -25 z "},"Ṥ":{"ha":861,"x_min":47,"x_max":872,"o":"m 613 1206 q 572 1223 589 1206 q 554 1264 554 1240 q 572 1305 554 1288 q 613 1322 589 1322 q 653 1305 636 1322 q 671 1264 671 1288 q 653 1223 671 1240 q 613 1206 636 1206 m 576 1076 l 739 1228 q 803 1261 775 1261 q 833 1249 822 1261 q 844 1219 844 1238 q 831 1183 844 1196 q 794 1158 817 1169 l 592 1058 l 576 1076 m 432 -25 q 285 10 347 -25 q 193 74 222 44 q 169 94 179 88 q 151 101 160 101 q 110 63 129 101 q 79 -14 90 25 l 47 -14 l 158 425 l 190 425 q 183 351 183 383 q 219 188 183 264 q 314 65 254 111 q 443 19 374 19 q 621 68 560 19 q 682 211 682 117 q 654 302 682 267 q 569 372 626 338 l 408 471 q 285 576 324 521 q 246 722 246 632 q 330 941 246 868 q 550 1014 414 1014 q 649 988 600 1014 q 729 933 699 961 q 751 916 743 921 q 769 911 760 911 q 813 942 793 911 q 840 1003 832 972 l 872 1003 l 792 642 l 760 642 q 735 786 764 708 q 654 917 707 864 q 538 969 601 969 q 417 943 467 969 q 344 874 368 917 q 321 785 321 832 q 359 681 321 719 q 463 604 397 642 l 593 528 q 694 458 657 489 q 751 383 731 426 q 771 275 771 339 q 682 56 771 136 q 432 -25 593 -25 z "},"Š":{"ha":861,"x_min":47,"x_max":872,"o":"m 563 1058 l 422 1258 l 443 1278 l 613 1144 l 854 1278 l 867 1258 l 618 1058 l 563 1058 m 432 -25 q 285 10 347 -25 q 193 74 222 44 q 169 94 179 88 q 151 101 160 101 q 110 63 129 101 q 79 -14 90 25 l 47 -14 l 158 425 l 190 425 q 183 351 183 383 q 219 188 183 264 q 314 65 254 111 q 443 19 374 19 q 621 68 560 19 q 682 211 682 117 q 654 302 682 267 q 569 372 626 338 l 408 471 q 285 576 324 521 q 246 722 246 632 q 330 941 246 868 q 550 1014 414 1014 q 649 988 600 1014 q 729 933 699 961 q 751 916 743 921 q 769 911 760 911 q 813 942 793 911 q 840 1003 832 972 l 872 1003 l 792 642 l 760 642 q 735 786 764 708 q 654 917 707 864 q 538 969 601 969 q 417 943 467 969 q 344 874 368 917 q 321 785 321 832 q 359 681 321 719 q 463 604 397 642 l 593 528 q 694 458 657 489 q 751 383 731 426 q 771 275 771 339 q 682 56 771 136 q 432 -25 593 -25 z "},"Ṧ":{"ha":861,"x_min":47,"x_max":872,"o":"m 628 1206 q 587 1223 604 1206 q 569 1264 569 1240 q 587 1305 569 1288 q 628 1322 604 1322 q 669 1305 651 1322 q 686 1264 686 1288 q 669 1223 686 1240 q 628 1206 651 1206 m 563 1058 l 419 1250 l 436 1265 l 603 1132 l 851 1267 l 864 1250 l 618 1058 l 563 1058 m 432 -25 q 285 10 347 -25 q 193 74 222 44 q 169 94 179 88 q 151 101 160 101 q 110 63 129 101 q 79 -14 90 25 l 47 -14 l 158 425 l 190 425 q 183 351 183 383 q 219 188 183 264 q 314 65 254 111 q 443 19 374 19 q 621 68 560 19 q 682 211 682 117 q 654 302 682 267 q 569 372 626 338 l 408 471 q 285 576 324 521 q 246 722 246 632 q 330 941 246 868 q 550 1014 414 1014 q 649 988 600 1014 q 729 933 699 961 q 751 916 743 921 q 769 911 760 911 q 813 942 793 911 q 840 1003 832 972 l 872 1003 l 792 642 l 760 642 q 735 786 764 708 q 654 917 707 864 q 538 969 601 969 q 417 943 467 969 q 344 874 368 917 q 321 785 321 832 q 359 681 321 719 q 463 604 397 642 l 593 528 q 694 458 657 489 q 751 383 731 426 q 771 275 771 339 q 682 56 771 136 q 432 -25 593 -25 z "},"Ş":{"ha":861,"x_min":47,"x_max":872,"o":"m 290 -331 q 213 -302 246 -331 q 181 -228 181 -274 q 198 -179 181 -200 q 240 -158 215 -158 q 273 -169 261 -158 q 285 -199 285 -179 q 251 -244 285 -233 q 240 -262 240 -250 q 252 -288 240 -279 q 296 -297 264 -297 q 368 -266 338 -297 q 399 -193 399 -235 q 379 -122 399 -154 q 354 -62 354 -82 q 365 -18 354 -40 q 258 24 303 -4 q 193 72 213 53 q 172 90 185 78 q 151 101 160 101 q 110 63 129 101 q 79 -14 90 25 l 47 -14 l 158 425 l 190 425 q 183 351 183 383 q 219 188 183 264 q 314 65 254 111 q 443 19 374 19 q 621 68 560 19 q 682 211 682 117 q 654 302 682 267 q 569 372 626 338 l 408 471 q 285 576 324 521 q 246 722 246 632 q 330 941 246 868 q 550 1014 414 1014 q 649 988 600 1014 q 729 933 699 961 q 751 916 743 921 q 769 911 760 911 q 813 942 793 911 q 840 1003 832 972 l 872 1003 l 792 642 l 760 642 q 735 786 764 708 q 654 917 707 864 q 538 969 601 969 q 417 943 467 969 q 344 874 368 917 q 321 785 321 832 q 359 681 321 719 q 463 604 397 642 l 593 528 q 694 458 657 489 q 751 383 731 426 q 771 275 771 339 q 682 56 771 136 q 432 -25 593 -25 q 406 -24 414 -25 l 403 -29 q 396 -53 396 -40 q 401 -75 396 -65 q 425 -97 407 -85 q 464 -135 450 -117 q 478 -182 478 -154 q 422 -288 478 -246 q 290 -331 367 -331 z "},"Ŝ":{"ha":861,"x_min":47,"x_max":872,"o":"m 350 1081 q 594 1278 497 1153 l 650 1278 q 789 1081 682 1153 l 769 1058 q 684 1112 736 1071 q 600 1192 632 1153 q 472 1112 546 1153 q 358 1058 397 1071 l 350 1081 m 432 -25 q 285 10 347 -25 q 193 74 222 44 q 169 94 179 88 q 151 101 160 101 q 110 63 129 101 q 79 -14 90 25 l 47 -14 l 158 425 l 190 425 q 183 351 183 383 q 219 188 183 264 q 314 65 254 111 q 443 19 374 19 q 621 68 560 19 q 682 211 682 117 q 654 302 682 267 q 569 372 626 338 l 408 471 q 285 576 324 521 q 246 722 246 632 q 330 941 246 868 q 550 1014 414 1014 q 649 988 600 1014 q 729 933 699 961 q 751 916 743 921 q 769 911 760 911 q 813 942 793 911 q 840 1003 832 972 l 872 1003 l 792 642 l 760 642 q 735 786 764 708 q 654 917 707 864 q 538 969 601 969 q 417 943 467 969 q 344 874 368 917 q 321 785 321 832 q 359 681 321 719 q 463 604 397 642 l 593 528 q 694 458 657 489 q 751 383 731 426 q 771 275 771 339 q 682 56 771 136 q 432 -25 593 -25 z "},"Ș":{"ha":861,"x_min":47,"x_max":872,"o":"m 432 -25 q 285 10 347 -25 q 193 74 222 44 q 169 94 179 88 q 151 101 160 101 q 110 63 129 101 q 79 -14 90 25 l 47 -14 l 158 425 l 190 425 q 183 351 183 383 q 219 188 183 264 q 314 65 254 111 q 443 19 374 19 q 621 68 560 19 q 682 211 682 117 q 654 302 682 267 q 569 372 626 338 l 408 471 q 285 576 324 521 q 246 722 246 632 q 330 941 246 868 q 550 1014 414 1014 q 649 988 600 1014 q 729 933 699 961 q 751 916 743 921 q 769 911 760 911 q 813 942 793 911 q 840 1003 832 972 l 872 1003 l 792 642 l 760 642 q 735 786 764 708 q 654 917 707 864 q 538 969 601 969 q 417 943 467 969 q 344 874 368 917 q 321 785 321 832 q 359 681 321 719 q 463 604 397 642 l 593 528 q 694 458 657 489 q 751 383 731 426 q 771 275 771 339 q 682 56 771 136 q 432 -25 593 -25 m 242 -321 q 371 -196 371 -268 q 358 -172 371 -181 q 338 -169 350 -169 q 299 -154 313 -169 q 286 -117 286 -139 q 304 -72 286 -89 q 349 -56 322 -56 q 403 -76 381 -56 q 425 -136 425 -97 q 376 -264 425 -212 q 253 -344 326 -315 l 242 -321 z "},"Ṡ":{"ha":861,"x_min":47,"x_max":872,"o":"m 629 1108 q 578 1129 599 1108 q 557 1181 557 1150 q 578 1233 557 1213 q 629 1253 599 1253 q 681 1233 661 1253 q 701 1181 701 1213 q 681 1129 701 1150 q 629 1108 661 1108 m 432 -25 q 285 10 347 -25 q 193 74 222 44 q 169 94 179 88 q 151 101 160 101 q 110 63 129 101 q 79 -14 90 25 l 47 -14 l 158 425 l 190 425 q 183 351 183 383 q 219 188 183 264 q 314 65 254 111 q 443 19 374 19 q 621 68 560 19 q 682 211 682 117 q 654 302 682 267 q 569 372 626 338 l 408 471 q 285 576 324 521 q 246 722 246 632 q 330 941 246 868 q 550 1014 414 1014 q 649 988 600 1014 q 729 933 699 961 q 751 916 743 921 q 769 911 760 911 q 813 942 793 911 q 840 1003 832 972 l 872 1003 l 792 642 l 760 642 q 735 786 764 708 q 654 917 707 864 q 538 969 601 969 q 417 943 467 969 q 344 874 368 917 q 321 785 321 832 q 359 681 321 719 q 463 604 397 642 l 593 528 q 694 458 657 489 q 751 383 731 426 q 771 275 771 339 q 682 56 771 136 q 432 -25 593 -25 z "},"Ṣ":{"ha":861,"x_min":47,"x_max":872,"o":"m 432 -25 q 285 10 347 -25 q 193 74 222 44 q 169 94 179 88 q 151 101 160 101 q 110 63 129 101 q 79 -14 90 25 l 47 -14 l 158 425 l 190 425 q 183 351 183 383 q 219 188 183 264 q 314 65 254 111 q 443 19 374 19 q 621 68 560 19 q 682 211 682 117 q 654 302 682 267 q 569 372 626 338 l 408 471 q 285 576 324 521 q 246 722 246 632 q 330 941 246 868 q 550 1014 414 1014 q 649 988 600 1014 q 729 933 699 961 q 751 916 743 921 q 769 911 760 911 q 813 942 793 911 q 840 1003 832 972 l 872 1003 l 792 642 l 760 642 q 735 786 764 708 q 654 917 707 864 q 538 969 601 969 q 417 943 467 969 q 344 874 368 917 q 321 785 321 832 q 359 681 321 719 q 463 604 397 642 l 593 528 q 694 458 657 489 q 751 383 731 426 q 771 275 771 339 q 682 56 771 136 q 432 -25 593 -25 m 339 -281 q 288 -260 308 -281 q 267 -208 267 -240 q 288 -157 267 -178 q 339 -136 308 -136 q 391 -157 371 -136 q 411 -208 411 -178 q 391 -260 411 -240 q 339 -281 371 -281 z "},"Ṩ":{"ha":861,"x_min":47,"x_max":872,"o":"m 629 1108 q 578 1129 599 1108 q 557 1181 557 1150 q 578 1233 557 1213 q 629 1253 599 1253 q 681 1233 661 1253 q 701 1181 701 1213 q 681 1129 701 1150 q 629 1108 661 1108 m 432 -25 q 285 10 347 -25 q 193 74 222 44 q 169 94 179 88 q 151 101 160 101 q 110 63 129 101 q 79 -14 90 25 l 47 -14 l 158 425 l 190 425 q 183 351 183 383 q 219 188 183 264 q 314 65 254 111 q 443 19 374 19 q 621 68 560 19 q 682 211 682 117 q 654 302 682 267 q 569 372 626 338 l 408 471 q 285 576 324 521 q 246 722 246 632 q 330 941 246 868 q 550 1014 414 1014 q 649 988 600 1014 q 729 933 699 961 q 751 916 743 921 q 769 911 760 911 q 813 942 793 911 q 840 1003 832 972 l 872 1003 l 792 642 l 760 642 q 735 786 764 708 q 654 917 707 864 q 538 969 601 969 q 417 943 467 969 q 344 874 368 917 q 321 785 321 832 q 359 681 321 719 q 463 604 397 642 l 593 528 q 694 458 657 489 q 751 383 731 426 q 771 275 771 339 q 682 56 771 136 q 432 -25 593 -25 m 339 -281 q 288 -260 308 -281 q 267 -208 267 -240 q 288 -157 267 -178 q 339 -136 308 -136 q 391 -157 371 -136 q 411 -208 411 -178 q 391 -260 411 -240 q 339 -281 371 -281 z "},"ẞ":{"ha":1083,"x_min":-44,"x_max":1183,"o":"m 556 -25 q 456 -3 503 -25 q 379 56 408 18 q 350 144 350 94 q 390 262 350 211 q 500 313 431 313 q 562 291 539 313 q 585 236 585 269 q 561 176 585 197 q 493 146 538 156 q 447 126 464 139 q 431 92 431 114 q 469 41 431 63 q 549 19 507 19 q 728 66 653 19 q 844 196 804 113 q 885 385 885 279 q 852 507 885 458 q 746 556 819 556 q 660 545 694 556 q 582 507 626 535 l 560 522 l 978 867 l 969 874 q 868 861 924 861 q 753 882 804 861 q 695 901 718 896 q 646 906 672 906 q 511 860 568 906 q 431 728 454 815 l 235 0 l -44 0 l -32 44 l 82 44 q 129 82 119 44 l 265 589 q 392 826 303 731 q 592 968 482 922 q 808 1014 703 1014 q 929 1006 865 1014 q 1033 997 996 997 q 1102 1001 1075 997 q 1164 1014 1129 1004 l 1183 986 l 714 599 l 715 594 q 778 600 747 600 q 963 536 900 600 q 1026 372 1026 472 q 971 171 1026 261 q 809 28 915 81 q 556 -25 703 -25 z "},"Ə":{"ha":972,"x_min":128,"x_max":939,"o":"m 408 -25 q 267 17 331 -25 q 165 134 203 58 q 128 310 128 210 q 137 397 128 343 q 160 508 146 451 l 788 508 q 802 626 799 589 q 806 717 806 663 q 767 901 806 833 q 621 969 729 969 q 471 925 543 969 q 344 808 399 881 q 260 653 289 736 l 217 668 q 374 915 267 815 q 644 1014 482 1014 q 804 963 738 1014 q 905 827 871 913 q 939 639 939 742 q 865 319 939 472 q 669 70 792 165 q 408 -25 546 -25 m 414 19 q 599 98 522 19 q 717 277 675 176 q 776 464 760 378 l 296 464 q 261 238 261 342 q 299 82 261 144 q 414 19 336 19 z "},"T":{"ha":958,"x_min":147,"x_max":1033,"o":"m 158 44 l 297 44 q 343 82 333 44 l 567 907 q 569 924 569 921 q 542 944 569 944 l 496 944 q 406 921 449 944 q 336 871 364 897 q 265 776 296 832 q 215 670 233 719 q 196 617 196 621 l 161 617 l 272 989 l 1033 989 l 946 617 l 911 617 q 916 642 913 622 q 924 694 919 661 q 928 761 928 728 q 885 904 928 864 q 789 944 843 944 l 743 944 q 693 907 701 944 l 469 82 q 468 67 468 76 q 474 50 468 56 q 494 44 481 44 l 633 44 l 622 0 l 147 0 l 158 44 z "},"Ŧ":{"ha":958,"x_min":147,"x_max":1033,"o":"m 158 44 l 297 44 q 343 82 333 44 l 456 494 l 258 494 l 269 544 l 468 544 l 567 907 q 569 924 569 921 q 542 944 569 944 l 496 944 q 406 921 449 944 q 336 871 364 897 q 265 776 296 832 q 215 670 233 719 q 196 617 196 621 l 161 617 l 272 989 l 1033 989 l 946 617 l 911 617 q 916 642 913 622 q 924 694 919 661 q 928 761 928 728 q 885 904 928 864 q 789 944 843 944 l 743 944 q 693 907 701 944 l 594 544 l 794 544 l 783 494 l 581 494 l 469 82 q 468 67 468 76 q 474 50 468 56 q 494 44 481 44 l 633 44 l 622 0 l 147 0 l 158 44 z "},"Ť":{"ha":958,"x_min":147,"x_max":1033,"o":"m 635 1058 l 494 1258 l 515 1278 l 685 1144 l 926 1278 l 939 1258 l 690 1058 l 635 1058 m 158 44 l 297 44 q 343 82 333 44 l 567 907 q 569 924 569 921 q 542 944 569 944 l 496 944 q 406 921 449 944 q 336 871 364 897 q 265 776 296 832 q 215 670 233 719 q 196 617 196 621 l 161 617 l 272 989 l 1033 989 l 946 617 l 911 617 q 916 642 913 622 q 924 694 919 661 q 928 761 928 728 q 885 904 928 864 q 789 944 843 944 l 743 944 q 693 907 701 944 l 469 82 q 468 67 468 76 q 474 50 468 56 q 494 44 481 44 l 633 44 l 622 0 l 147 0 l 158 44 z "},"Ţ":{"ha":958,"x_min":147,"x_max":1033,"o":"m 158 44 l 297 44 q 343 82 333 44 l 567 907 q 569 924 569 921 q 542 944 569 944 l 496 944 q 406 921 449 944 q 336 871 364 897 q 265 776 296 832 q 215 670 233 719 q 196 617 196 621 l 161 617 l 272 989 l 1033 989 l 946 617 l 911 617 q 916 642 913 622 q 924 694 919 661 q 928 761 928 728 q 885 904 928 864 q 789 944 843 944 l 743 944 q 693 907 701 944 l 469 82 q 468 67 468 76 q 474 50 468 56 q 494 44 481 44 l 633 44 l 622 0 l 147 0 l 158 44 m 233 -321 q 363 -196 363 -268 q 350 -172 363 -181 q 329 -169 342 -169 q 291 -154 304 -169 q 278 -117 278 -139 q 296 -72 278 -89 q 340 -56 314 -56 q 394 -76 372 -56 q 417 -136 417 -97 q 367 -264 417 -212 q 244 -344 318 -315 l 233 -321 z "},"Ț":{"ha":958,"x_min":147,"x_max":1033,"o":"m 158 44 l 297 44 q 343 82 333 44 l 567 907 q 569 924 569 921 q 542 944 569 944 l 496 944 q 406 921 449 944 q 336 871 364 897 q 265 776 296 832 q 215 670 233 719 q 196 617 196 621 l 161 617 l 272 989 l 1033 989 l 946 617 l 911 617 q 916 642 913 622 q 924 694 919 661 q 928 761 928 728 q 885 904 928 864 q 789 944 843 944 l 743 944 q 693 907 701 944 l 469 82 q 468 67 468 76 q 474 50 468 56 q 494 44 481 44 l 633 44 l 622 0 l 147 0 l 158 44 m 233 -321 q 363 -196 363 -268 q 350 -172 363 -181 q 329 -169 342 -169 q 291 -154 304 -169 q 278 -117 278 -139 q 296 -72 278 -89 q 340 -56 314 -56 q 394 -76 372 -56 q 417 -136 417 -97 q 367 -264 417 -212 q 244 -344 318 -315 l 233 -321 z "},"Ṭ":{"ha":958,"x_min":147,"x_max":1033,"o":"m 158 44 l 297 44 q 343 82 333 44 l 567 907 q 569 924 569 921 q 542 944 569 944 l 496 944 q 406 921 449 944 q 336 871 364 897 q 265 776 296 832 q 215 670 233 719 q 196 617 196 621 l 161 617 l 272 989 l 1033 989 l 946 617 l 911 617 q 916 642 913 622 q 924 694 919 661 q 928 761 928 728 q 885 904 928 864 q 789 944 843 944 l 743 944 q 693 907 701 944 l 469 82 q 468 67 468 76 q 474 50 468 56 q 494 44 481 44 l 633 44 l 622 0 l 147 0 l 158 44 m 333 -281 q 282 -260 303 -281 q 261 -208 261 -240 q 282 -157 261 -178 q 333 -136 303 -136 q 385 -157 365 -136 q 406 -208 406 -178 q 385 -260 406 -240 q 333 -281 365 -281 z "},"Ṯ":{"ha":958,"x_min":111,"x_max":1033,"o":"m 158 44 l 297 44 q 343 82 333 44 l 567 907 q 569 924 569 921 q 542 944 569 944 l 496 944 q 406 921 449 944 q 336 871 364 897 q 265 776 296 832 q 215 670 233 719 q 196 617 196 621 l 161 617 l 272 989 l 1033 989 l 946 617 l 911 617 q 916 642 913 622 q 924 694 919 661 q 928 761 928 728 q 885 904 928 864 q 789 944 843 944 l 743 944 q 693 907 701 944 l 469 82 q 468 67 468 76 q 474 50 468 56 q 494 44 481 44 l 633 44 l 622 0 l 147 0 l 158 44 m 111 -233 l 125 -178 l 561 -178 l 547 -233 l 111 -233 z "},"U":{"ha":1089,"x_min":181,"x_max":1222,"o":"m 501 -25 q 323 11 394 -25 q 216 108 251 47 q 181 244 181 169 q 193 331 181 278 l 349 907 q 351 922 351 918 q 322 944 351 944 l 217 944 l 228 989 l 639 989 l 628 944 l 522 944 q 492 935 503 944 q 475 907 481 926 l 310 293 q 297 214 297 240 q 356 71 297 122 q 513 19 415 19 q 713 93 638 19 q 817 275 788 167 l 965 817 q 974 875 974 850 q 958 924 974 904 q 903 944 942 944 l 836 944 l 847 989 l 1222 989 l 1211 944 l 1144 944 q 1067 908 1101 944 q 1018 814 1033 871 l 874 289 q 748 58 833 142 q 501 -25 663 -25 z "},"Ú":{"ha":1089,"x_min":181,"x_max":1222,"o":"m 739 1075 l 886 1246 q 919 1275 904 1267 q 953 1283 935 1283 q 992 1243 992 1283 q 947 1179 992 1206 l 756 1058 l 739 1075 m 501 -25 q 323 11 394 -25 q 216 108 251 47 q 181 244 181 169 q 193 331 181 278 l 349 907 q 351 922 351 918 q 322 944 351 944 l 217 944 l 228 989 l 639 989 l 628 944 l 522 944 q 492 935 503 944 q 475 907 481 926 l 310 293 q 297 214 297 240 q 356 71 297 122 q 513 19 415 19 q 713 93 638 19 q 817 275 788 167 l 965 817 q 974 875 974 850 q 958 924 974 904 q 903 944 942 944 l 836 944 l 847 989 l 1222 989 l 1211 944 l 1144 944 q 1067 908 1101 944 q 1018 814 1033 871 l 874 289 q 748 58 833 142 q 501 -25 663 -25 z "},"Ŭ":{"ha":1089,"x_min":181,"x_max":1222,"o":"m 772 1058 q 652 1106 690 1058 q 614 1218 614 1153 q 621 1272 614 1244 l 660 1272 l 660 1261 q 692 1163 660 1204 q 790 1122 724 1122 q 917 1168 861 1122 q 1001 1272 974 1214 l 1040 1272 q 991 1176 1028 1226 q 897 1092 954 1126 q 772 1058 840 1058 m 501 -25 q 323 11 394 -25 q 216 108 251 47 q 181 244 181 169 q 193 331 181 278 l 349 907 q 351 922 351 918 q 322 944 351 944 l 217 944 l 228 989 l 639 989 l 628 944 l 522 944 q 492 935 503 944 q 475 907 481 926 l 310 293 q 297 214 297 240 q 356 71 297 122 q 513 19 415 19 q 713 93 638 19 q 817 275 788 167 l 965 817 q 974 875 974 850 q 958 924 974 904 q 903 944 942 944 l 836 944 l 847 989 l 1222 989 l 1211 944 l 1144 944 q 1067 908 1101 944 q 1018 814 1033 871 l 874 289 q 748 58 833 142 q 501 -25 663 -25 z "},"Û":{"ha":1089,"x_min":181,"x_max":1222,"o":"m 542 1081 q 786 1278 689 1153 l 842 1278 q 981 1081 874 1153 l 961 1058 q 876 1112 928 1071 q 792 1192 824 1153 q 663 1112 738 1153 q 550 1058 589 1071 l 542 1081 m 501 -25 q 323 11 394 -25 q 216 108 251 47 q 181 244 181 169 q 193 331 181 278 l 349 907 q 351 922 351 918 q 322 944 351 944 l 217 944 l 228 989 l 639 989 l 628 944 l 522 944 q 492 935 503 944 q 475 907 481 926 l 310 293 q 297 214 297 240 q 356 71 297 122 q 513 19 415 19 q 713 93 638 19 q 817 275 788 167 l 965 817 q 974 875 974 850 q 958 924 974 904 q 903 944 942 944 l 836 944 l 847 989 l 1222 989 l 1211 944 l 1144 944 q 1067 908 1101 944 q 1018 814 1033 871 l 874 289 q 748 58 833 142 q 501 -25 663 -25 z "},"Ȕ":{"ha":1089,"x_min":181,"x_max":1222,"o":"m 526 1193 q 511 1217 517 1203 q 506 1243 506 1232 q 516 1276 506 1260 q 554 1292 526 1292 q 613 1240 596 1292 l 669 1071 l 649 1058 l 526 1193 m 740 1193 q 725 1217 731 1203 q 719 1243 719 1232 q 730 1276 719 1260 q 768 1292 740 1292 q 826 1240 810 1292 l 883 1071 l 863 1058 l 740 1193 m 501 -25 q 323 11 394 -25 q 216 108 251 47 q 181 244 181 169 q 193 331 181 278 l 349 907 q 351 922 351 918 q 322 944 351 944 l 217 944 l 228 989 l 639 989 l 628 944 l 522 944 q 492 935 503 944 q 475 907 481 926 l 310 293 q 297 214 297 240 q 356 71 297 122 q 513 19 415 19 q 713 93 638 19 q 817 275 788 167 l 965 817 q 974 875 974 850 q 958 924 974 904 q 903 944 942 944 l 836 944 l 847 989 l 1222 989 l 1211 944 l 1144 944 q 1067 908 1101 944 q 1018 814 1033 871 l 874 289 q 748 58 833 142 q 501 -25 663 -25 z "},"Ü":{"ha":1089,"x_min":181,"x_max":1222,"o":"m 653 1108 q 601 1129 622 1108 q 581 1181 581 1150 q 601 1233 581 1213 q 653 1253 622 1253 q 705 1233 685 1253 q 725 1181 725 1213 q 705 1129 725 1150 q 653 1108 685 1108 m 936 1108 q 885 1129 906 1108 q 864 1181 864 1150 q 885 1233 864 1213 q 936 1253 906 1253 q 988 1233 968 1253 q 1008 1181 1008 1213 q 988 1129 1008 1150 q 936 1108 968 1108 m 501 -25 q 323 11 394 -25 q 216 108 251 47 q 181 244 181 169 q 193 331 181 278 l 349 907 q 351 922 351 918 q 322 944 351 944 l 217 944 l 228 989 l 639 989 l 628 944 l 522 944 q 492 935 503 944 q 475 907 481 926 l 310 293 q 297 214 297 240 q 356 71 297 122 q 513 19 415 19 q 713 93 638 19 q 817 275 788 167 l 965 817 q 974 875 974 850 q 958 924 974 904 q 903 944 942 944 l 836 944 l 847 989 l 1222 989 l 1211 944 l 1144 944 q 1067 908 1101 944 q 1018 814 1033 871 l 874 289 q 748 58 833 142 q 501 -25 663 -25 z "},"Ụ":{"ha":1089,"x_min":181,"x_max":1222,"o":"m 501 -25 q 323 11 394 -25 q 216 108 251 47 q 181 244 181 169 q 193 331 181 278 l 349 907 q 351 922 351 918 q 322 944 351 944 l 217 944 l 228 989 l 639 989 l 628 944 l 522 944 q 492 935 503 944 q 475 907 481 926 l 310 293 q 297 214 297 240 q 356 71 297 122 q 513 19 415 19 q 713 93 638 19 q 817 275 788 167 l 965 817 q 974 875 974 850 q 958 924 974 904 q 903 944 942 944 l 836 944 l 847 989 l 1222 989 l 1211 944 l 1144 944 q 1067 908 1101 944 q 1018 814 1033 871 l 874 289 q 748 58 833 142 q 501 -25 663 -25 m 406 -281 q 353 -260 374 -281 q 333 -208 333 -240 q 353 -157 333 -178 q 406 -136 374 -136 q 457 -157 436 -136 q 478 -208 478 -178 q 457 -260 478 -240 q 406 -281 436 -281 z "},"Ù":{"ha":1089,"x_min":181,"x_max":1222,"o":"m 629 1193 q 614 1217 619 1203 q 608 1243 608 1232 q 619 1276 608 1260 q 657 1292 629 1292 q 715 1240 699 1292 l 772 1071 l 751 1058 l 629 1193 m 501 -25 q 323 11 394 -25 q 216 108 251 47 q 181 244 181 169 q 193 331 181 278 l 349 907 q 351 922 351 918 q 322 944 351 944 l 217 944 l 228 989 l 639 989 l 628 944 l 522 944 q 492 935 503 944 q 475 907 481 926 l 310 293 q 297 214 297 240 q 356 71 297 122 q 513 19 415 19 q 713 93 638 19 q 817 275 788 167 l 965 817 q 974 875 974 850 q 958 924 974 904 q 903 944 942 944 l 836 944 l 847 989 l 1222 989 l 1211 944 l 1144 944 q 1067 908 1101 944 q 1018 814 1033 871 l 874 289 q 748 58 833 142 q 501 -25 663 -25 z "},"Ủ":{"ha":1089,"x_min":181,"x_max":1222,"o":"m 501 -25 q 323 11 394 -25 q 216 108 251 47 q 181 244 181 169 q 193 331 181 278 l 349 907 q 351 922 351 918 q 322 944 351 944 l 217 944 l 228 989 l 639 989 l 628 944 l 522 944 q 492 935 503 944 q 475 907 481 926 l 310 293 q 297 214 297 240 q 356 71 297 122 q 513 19 415 19 q 713 93 638 19 q 817 275 788 167 l 965 817 q 974 875 974 850 q 958 924 974 904 q 903 944 942 944 l 836 944 l 847 989 l 1222 989 l 1211 944 l 1144 944 q 1067 908 1101 944 q 1018 814 1033 871 l 874 289 q 748 58 833 142 q 501 -25 663 -25 m 786 1113 q 840 1193 831 1144 q 843 1214 843 1207 q 828 1255 843 1239 q 781 1271 813 1271 q 725 1256 751 1271 q 696 1221 699 1240 q 696 1203 692 1207 q 699 1200 697 1201 q 703 1200 701 1199 q 708 1201 704 1199 q 715 1202 713 1203 q 719 1203 717 1201 q 739 1182 739 1200 q 727 1156 739 1167 q 696 1146 715 1146 q 672 1157 682 1146 q 661 1188 661 1168 q 702 1260 661 1231 q 790 1292 743 1290 q 867 1269 836 1290 q 899 1211 899 1249 q 867 1135 899 1165 q 778 1069 836 1106 l 729 1069 l 786 1113 z "},"Ư":{"ha":1089,"x_min":181,"x_max":1247,"o":"m 1247 1128 q 1188 1012 1239 1051 q 1060 964 1138 972 l 874 289 q 748 58 833 142 q 501 -25 663 -25 q 323 11 394 -25 q 216 108 251 47 q 181 244 181 169 q 193 331 181 278 l 349 907 q 351 922 351 918 q 322 944 351 944 l 217 944 l 228 989 l 639 989 l 628 944 l 522 944 q 492 935 503 944 q 475 907 481 926 l 310 293 q 297 214 297 240 q 356 71 297 122 q 513 19 415 19 q 713 93 638 19 q 817 275 788 167 l 965 817 q 974 875 974 850 q 958 924 974 904 q 903 944 942 944 l 836 944 l 847 989 l 1021 989 q 1117 1021 1089 989 q 1160 1128 1146 1053 l 1247 1128 z "},"Ứ":{"ha":1089,"x_min":181,"x_max":1247,"o":"m 1247 1128 q 1188 1012 1239 1051 q 1060 964 1138 972 l 874 289 q 748 58 833 142 q 501 -25 663 -25 q 323 11 394 -25 q 216 108 251 47 q 181 244 181 169 q 193 331 181 278 l 349 907 q 351 922 351 918 q 322 944 351 944 l 217 944 l 228 989 l 639 989 l 628 944 l 522 944 q 492 935 503 944 q 475 907 481 926 l 310 293 q 297 214 297 240 q 356 71 297 122 q 513 19 415 19 q 713 93 638 19 q 817 275 788 167 l 965 817 q 974 875 974 850 q 958 924 974 904 q 903 944 942 944 l 836 944 l 847 989 l 1021 989 q 1117 1021 1089 989 q 1160 1128 1146 1053 l 1247 1128 m 711 1075 l 858 1246 q 892 1275 876 1267 q 925 1283 907 1283 q 964 1243 964 1283 q 919 1179 964 1206 l 728 1058 l 711 1075 z "},"Ự":{"ha":1089,"x_min":181,"x_max":1247,"o":"m 1247 1128 q 1188 1012 1239 1051 q 1060 964 1138 972 l 874 289 q 748 58 833 142 q 501 -25 663 -25 q 323 11 394 -25 q 216 108 251 47 q 181 244 181 169 q 193 331 181 278 l 349 907 q 351 922 351 918 q 322 944 351 944 l 217 944 l 228 989 l 639 989 l 628 944 l 522 944 q 492 935 503 944 q 475 907 481 926 l 310 293 q 297 214 297 240 q 356 71 297 122 q 513 19 415 19 q 713 93 638 19 q 817 275 788 167 l 965 817 q 974 875 974 850 q 958 924 974 904 q 903 944 942 944 l 836 944 l 847 989 l 1021 989 q 1117 1021 1089 989 q 1160 1128 1146 1053 l 1247 1128 m 406 -281 q 353 -260 374 -281 q 333 -208 333 -240 q 353 -157 333 -178 q 406 -136 374 -136 q 457 -157 436 -136 q 478 -208 478 -178 q 457 -260 478 -240 q 406 -281 436 -281 z "},"Ừ":{"ha":1089,"x_min":181,"x_max":1247,"o":"m 1247 1128 q 1188 1012 1239 1051 q 1060 964 1138 972 l 874 289 q 748 58 833 142 q 501 -25 663 -25 q 323 11 394 -25 q 216 108 251 47 q 181 244 181 169 q 193 331 181 278 l 349 907 q 351 922 351 918 q 322 944 351 944 l 217 944 l 228 989 l 639 989 l 628 944 l 522 944 q 492 935 503 944 q 475 907 481 926 l 310 293 q 297 214 297 240 q 356 71 297 122 q 513 19 415 19 q 713 93 638 19 q 817 275 788 167 l 965 817 q 974 875 974 850 q 958 924 974 904 q 903 944 942 944 l 836 944 l 847 989 l 1021 989 q 1117 1021 1089 989 q 1160 1128 1146 1053 l 1247 1128 m 621 1193 q 606 1217 611 1203 q 600 1243 600 1232 q 610 1276 600 1260 q 649 1292 621 1292 q 707 1240 690 1292 l 764 1071 l 743 1058 l 621 1193 z "},"Ử":{"ha":1089,"x_min":181,"x_max":1247,"o":"m 1247 1128 q 1188 1012 1239 1051 q 1060 964 1138 972 l 874 289 q 748 58 833 142 q 501 -25 663 -25 q 323 11 394 -25 q 216 108 251 47 q 181 244 181 169 q 193 331 181 278 l 349 907 q 351 922 351 918 q 322 944 351 944 l 217 944 l 228 989 l 639 989 l 628 944 l 522 944 q 492 935 503 944 q 475 907 481 926 l 310 293 q 297 214 297 240 q 356 71 297 122 q 513 19 415 19 q 713 93 638 19 q 817 275 788 167 l 965 817 q 974 875 974 850 q 958 924 974 904 q 903 944 942 944 l 836 944 l 847 989 l 1021 989 q 1117 1021 1089 989 q 1160 1128 1146 1053 l 1247 1128 m 786 1113 q 840 1193 831 1144 q 843 1214 843 1207 q 828 1255 843 1239 q 781 1271 813 1271 q 725 1256 751 1271 q 696 1221 699 1240 q 696 1203 692 1207 q 699 1200 697 1201 q 703 1200 701 1199 q 708 1201 704 1199 q 715 1202 713 1203 q 719 1203 717 1201 q 739 1182 739 1200 q 727 1156 739 1167 q 696 1146 715 1146 q 672 1157 682 1146 q 661 1188 661 1168 q 702 1260 661 1231 q 790 1292 743 1290 q 867 1269 836 1290 q 899 1211 899 1249 q 867 1135 899 1165 q 778 1069 836 1106 l 729 1069 l 786 1113 z "},"Ữ":{"ha":1089,"x_min":181,"x_max":1247,"o":"m 1247 1128 q 1188 1012 1239 1051 q 1060 964 1138 972 l 874 289 q 748 58 833 142 q 501 -25 663 -25 q 323 11 394 -25 q 216 108 251 47 q 181 244 181 169 q 193 331 181 278 l 349 907 q 351 922 351 918 q 322 944 351 944 l 217 944 l 228 989 l 639 989 l 628 944 l 522 944 q 492 935 503 944 q 475 907 481 926 l 310 293 q 297 214 297 240 q 356 71 297 122 q 513 19 415 19 q 713 93 638 19 q 817 275 788 167 l 965 817 q 974 875 974 850 q 958 924 974 904 q 903 944 942 944 l 836 944 l 847 989 l 1021 989 q 1117 1021 1089 989 q 1160 1128 1146 1053 l 1247 1128 m 538 1125 q 573 1215 542 1178 q 657 1253 604 1253 q 782 1224 697 1253 q 882 1200 850 1200 q 922 1215 907 1200 q 943 1258 938 1231 l 971 1256 q 935 1165 967 1203 q 851 1128 904 1128 q 726 1157 811 1128 q 626 1181 658 1181 q 586 1165 601 1181 q 565 1122 571 1150 l 538 1125 z "},"Ű":{"ha":1089,"x_min":181,"x_max":1222,"o":"m 625 1074 l 753 1258 q 786 1293 771 1283 q 821 1303 801 1303 q 849 1291 839 1303 q 860 1260 860 1279 q 821 1199 860 1228 l 643 1058 l 625 1074 m 840 1074 l 968 1258 q 1001 1293 986 1283 q 1036 1303 1017 1303 q 1065 1291 1054 1303 q 1075 1260 1075 1279 q 1036 1199 1075 1228 l 858 1058 l 840 1074 m 501 -25 q 323 11 394 -25 q 216 108 251 47 q 181 244 181 169 q 193 331 181 278 l 349 907 q 351 922 351 918 q 322 944 351 944 l 217 944 l 228 989 l 639 989 l 628 944 l 522 944 q 492 935 503 944 q 475 907 481 926 l 310 293 q 297 214 297 240 q 356 71 297 122 q 513 19 415 19 q 713 93 638 19 q 817 275 788 167 l 965 817 q 974 875 974 850 q 958 924 974 904 q 903 944 942 944 l 836 944 l 847 989 l 1222 989 l 1211 944 l 1144 944 q 1067 908 1101 944 q 1018 814 1033 871 l 874 289 q 748 58 833 142 q 501 -25 663 -25 z "},"Ȗ":{"ha":1089,"x_min":181,"x_max":1222,"o":"m 564 1069 q 632 1161 589 1113 q 726 1244 675 1210 q 825 1278 778 1278 q 903 1244 871 1278 q 951 1162 935 1210 q 969 1069 967 1114 l 942 1058 q 896 1161 932 1122 q 804 1200 860 1200 q 693 1160 749 1200 q 592 1058 638 1121 l 564 1069 m 501 -25 q 323 11 394 -25 q 216 108 251 47 q 181 244 181 169 q 193 331 181 278 l 349 907 q 351 922 351 918 q 322 944 351 944 l 217 944 l 228 989 l 639 989 l 628 944 l 522 944 q 492 935 503 944 q 475 907 481 926 l 310 293 q 297 214 297 240 q 356 71 297 122 q 513 19 415 19 q 713 93 638 19 q 817 275 788 167 l 965 817 q 974 875 974 850 q 958 924 974 904 q 903 944 942 944 l 836 944 l 847 989 l 1222 989 l 1211 944 l 1144 944 q 1067 908 1101 944 q 1018 814 1033 871 l 874 289 q 748 58 833 142 q 501 -25 663 -25 z "},"Ū":{"ha":1089,"x_min":181,"x_max":1222,"o":"m 567 1142 l 581 1197 l 1017 1197 l 1003 1142 l 567 1142 m 501 -25 q 323 11 394 -25 q 216 108 251 47 q 181 244 181 169 q 193 331 181 278 l 349 907 q 351 922 351 918 q 322 944 351 944 l 217 944 l 228 989 l 639 989 l 628 944 l 522 944 q 492 935 503 944 q 475 907 481 926 l 310 293 q 297 214 297 240 q 356 71 297 122 q 513 19 415 19 q 713 93 638 19 q 817 275 788 167 l 965 817 q 974 875 974 850 q 958 924 974 904 q 903 944 942 944 l 836 944 l 847 989 l 1222 989 l 1211 944 l 1144 944 q 1067 908 1101 944 q 1018 814 1033 871 l 874 289 q 748 58 833 142 q 501 -25 663 -25 z "},"Ṻ":{"ha":1089,"x_min":181,"x_max":1222,"o":"m 678 1208 q 639 1225 656 1208 q 622 1264 622 1242 q 639 1303 622 1288 q 678 1319 656 1319 q 717 1303 701 1319 q 733 1264 733 1288 q 717 1225 733 1242 q 678 1208 701 1208 m 961 1208 q 922 1225 939 1208 q 906 1264 906 1242 q 922 1303 906 1288 q 961 1319 939 1319 q 1001 1303 985 1319 q 1017 1264 1017 1288 q 1001 1225 1017 1242 q 961 1208 985 1208 m 550 1081 l 564 1131 l 1000 1131 l 986 1081 l 550 1081 m 501 -25 q 323 11 394 -25 q 216 108 251 47 q 181 244 181 169 q 193 331 181 278 l 349 907 q 351 922 351 918 q 322 944 351 944 l 217 944 l 228 989 l 639 989 l 628 944 l 522 944 q 492 935 503 944 q 475 907 481 926 l 310 293 q 297 214 297 240 q 356 71 297 122 q 513 19 415 19 q 713 93 638 19 q 817 275 788 167 l 965 817 q 974 875 974 850 q 958 924 974 904 q 903 944 942 944 l 836 944 l 847 989 l 1222 989 l 1211 944 l 1144 944 q 1067 908 1101 944 q 1018 814 1033 871 l 874 289 q 748 58 833 142 q 501 -25 663 -25 z "},"Ų":{"ha":1089,"x_min":181,"x_max":1222,"o":"m 474 -343 q 392 -316 428 -343 q 356 -235 356 -289 q 504 -32 356 -128 l 501 -25 q 323 11 394 -25 q 216 108 251 47 q 181 244 181 169 q 193 331 181 278 l 349 907 q 351 922 351 918 q 322 944 351 944 l 217 944 l 228 989 l 639 989 l 628 944 l 522 944 q 492 935 503 944 q 475 907 481 926 l 310 293 q 297 214 297 240 q 356 71 297 122 q 513 19 415 19 q 712 93 638 19 q 817 275 786 167 l 965 817 q 974 875 974 850 q 958 924 974 904 q 903 944 942 944 l 836 944 l 847 989 l 1222 989 l 1211 944 l 1144 944 q 1067 908 1101 944 q 1018 814 1033 871 l 874 289 q 772 83 838 161 q 578 -28 706 6 q 512 -66 546 -36 q 456 -135 478 -96 q 433 -206 433 -174 q 446 -242 433 -231 q 478 -254 458 -254 q 522 -239 501 -254 q 547 -221 538 -225 q 569 -217 556 -217 q 595 -228 586 -217 q 604 -256 604 -239 q 589 -295 604 -275 q 544 -329 574 -315 q 474 -343 515 -343 z "},"Ů":{"ha":1089,"x_min":181,"x_max":1222,"o":"m 760 1047 q 665 1087 704 1047 q 625 1183 625 1126 q 664 1278 625 1239 q 760 1317 703 1317 q 856 1278 817 1317 q 894 1183 894 1239 q 855 1087 894 1126 q 760 1047 815 1047 m 760 1081 q 832 1110 803 1081 q 861 1183 861 1139 q 833 1255 861 1226 q 760 1283 804 1283 q 687 1255 715 1283 q 658 1183 658 1226 q 688 1110 658 1139 q 760 1081 717 1081 m 501 -25 q 323 11 394 -25 q 216 108 251 47 q 181 244 181 169 q 193 331 181 278 l 349 907 q 351 922 351 918 q 322 944 351 944 l 217 944 l 228 989 l 639 989 l 628 944 l 522 944 q 492 935 503 944 q 475 907 481 926 l 310 293 q 297 214 297 240 q 356 71 297 122 q 513 19 415 19 q 713 93 638 19 q 817 275 788 167 l 965 817 q 974 875 974 850 q 958 924 974 904 q 903 944 942 944 l 836 944 l 847 989 l 1222 989 l 1211 944 l 1144 944 q 1067 908 1101 944 q 1018 814 1033 871 l 874 289 q 748 58 833 142 q 501 -25 663 -25 z "},"Ũ":{"ha":1089,"x_min":181,"x_max":1222,"o":"m 578 1125 q 613 1215 582 1178 q 697 1253 644 1253 q 822 1224 738 1253 q 922 1200 890 1200 q 963 1215 947 1200 q 983 1258 978 1231 l 1011 1256 q 976 1165 1007 1203 q 892 1128 944 1128 q 767 1157 851 1128 q 667 1181 699 1181 q 626 1165 642 1181 q 606 1122 611 1150 l 578 1125 m 501 -25 q 323 11 394 -25 q 216 108 251 47 q 181 244 181 169 q 193 331 181 278 l 349 907 q 351 922 351 918 q 322 944 351 944 l 217 944 l 228 989 l 639 989 l 628 944 l 522 944 q 492 935 503 944 q 475 907 481 926 l 310 293 q 297 214 297 240 q 356 71 297 122 q 513 19 415 19 q 713 93 638 19 q 817 275 788 167 l 965 817 q 974 875 974 850 q 958 924 974 904 q 903 944 942 944 l 836 944 l 847 989 l 1222 989 l 1211 944 l 1144 944 q 1067 908 1101 944 q 1018 814 1033 871 l 874 289 q 748 58 833 142 q 501 -25 663 -25 z "},"Ṹ":{"ha":1089,"x_min":181,"x_max":1222,"o":"m 731 1194 l 876 1297 q 933 1322 911 1322 q 962 1310 951 1322 q 972 1285 972 1299 q 907 1231 972 1250 l 739 1178 l 731 1194 m 553 1069 q 683 1161 576 1161 q 796 1142 721 1161 q 910 1122 871 1122 q 953 1133 939 1122 q 981 1165 968 1143 l 1000 1158 q 869 1067 976 1067 q 757 1086 822 1067 q 643 1106 689 1106 q 599 1095 614 1106 q 572 1063 585 1085 l 553 1069 m 501 -25 q 323 11 394 -25 q 216 108 251 47 q 181 244 181 169 q 193 331 181 278 l 349 907 q 351 922 351 918 q 322 944 351 944 l 217 944 l 228 989 l 639 989 l 628 944 l 522 944 q 492 935 503 944 q 475 907 481 926 l 310 293 q 297 214 297 240 q 356 71 297 122 q 513 19 415 19 q 713 93 638 19 q 817 275 788 167 l 965 817 q 974 875 974 850 q 958 924 974 904 q 903 944 942 944 l 836 944 l 847 989 l 1222 989 l 1211 944 l 1144 944 q 1067 908 1101 944 q 1018 814 1033 871 l 874 289 q 748 58 833 142 q 501 -25 663 -25 z "},"V":{"ha":1044,"x_min":194,"x_max":1186,"o":"m 344 883 q 324 931 340 918 q 278 944 308 944 l 194 944 l 206 989 l 628 989 l 617 944 l 519 944 q 477 928 488 944 q 467 879 467 911 l 467 193 l 828 744 q 872 822 857 789 q 886 886 886 856 q 870 928 886 913 q 825 944 854 944 l 764 944 l 775 989 l 1186 989 l 1175 944 l 1121 944 q 1024 914 1068 944 q 954 843 979 883 l 379 -25 l 344 -25 l 344 883 z "},"W":{"ha":1497,"x_min":194,"x_max":1639,"o":"m 339 883 q 319 932 335 919 q 274 944 304 944 l 194 944 l 206 989 l 617 989 l 606 944 l 511 944 q 470 928 479 944 q 461 879 461 913 l 461 201 l 800 744 q 843 883 843 810 q 826 931 843 918 q 778 944 810 944 l 706 944 l 717 989 l 1128 989 l 1117 944 l 1038 944 q 984 921 1003 944 q 965 857 965 897 l 965 217 l 1296 738 q 1349 883 1349 819 q 1332 924 1349 904 q 1293 944 1315 944 l 1217 944 l 1228 989 l 1639 989 l 1628 944 l 1567 944 q 1485 915 1519 944 q 1424 840 1451 886 l 878 -25 l 843 -25 l 843 718 l 374 -25 l 339 -25 l 339 883 z "},"Ẃ":{"ha":1497,"x_min":194,"x_max":1639,"o":"m 911 1075 l 1058 1246 q 1092 1275 1076 1267 q 1125 1283 1107 1283 q 1164 1243 1164 1283 q 1119 1179 1164 1206 l 928 1058 l 911 1075 m 339 883 q 319 932 335 919 q 274 944 304 944 l 194 944 l 206 989 l 617 989 l 606 944 l 511 944 q 470 928 479 944 q 461 879 461 913 l 461 201 l 800 744 q 843 883 843 810 q 826 931 843 918 q 778 944 810 944 l 706 944 l 717 989 l 1128 989 l 1117 944 l 1038 944 q 984 921 1003 944 q 965 857 965 897 l 965 217 l 1296 738 q 1349 883 1349 819 q 1332 924 1349 904 q 1293 944 1315 944 l 1217 944 l 1228 989 l 1639 989 l 1628 944 l 1567 944 q 1485 915 1519 944 q 1424 840 1451 886 l 878 -25 l 843 -25 l 843 718 l 374 -25 l 339 -25 l 339 883 z "},"Ŵ":{"ha":1497,"x_min":194,"x_max":1639,"o":"m 714 1081 q 958 1278 861 1153 l 1014 1278 q 1153 1081 1046 1153 l 1133 1058 q 1048 1112 1100 1071 q 964 1192 996 1153 q 835 1112 910 1153 q 722 1058 761 1071 l 714 1081 m 339 883 q 319 932 335 919 q 274 944 304 944 l 194 944 l 206 989 l 617 989 l 606 944 l 511 944 q 470 928 479 944 q 461 879 461 913 l 461 201 l 800 744 q 843 883 843 810 q 826 931 843 918 q 778 944 810 944 l 706 944 l 717 989 l 1128 989 l 1117 944 l 1038 944 q 984 921 1003 944 q 965 857 965 897 l 965 217 l 1296 738 q 1349 883 1349 819 q 1332 924 1349 904 q 1293 944 1315 944 l 1217 944 l 1228 989 l 1639 989 l 1628 944 l 1567 944 q 1485 915 1519 944 q 1424 840 1451 886 l 878 -25 l 843 -25 l 843 718 l 374 -25 l 339 -25 l 339 883 z "},"Ẅ":{"ha":1497,"x_min":194,"x_max":1639,"o":"m 825 1108 q 774 1129 794 1108 q 753 1181 753 1150 q 774 1233 753 1213 q 825 1253 794 1253 q 877 1233 857 1253 q 897 1181 897 1213 q 877 1129 897 1150 q 825 1108 857 1108 m 1108 1108 q 1057 1129 1078 1108 q 1036 1181 1036 1150 q 1057 1233 1036 1213 q 1108 1253 1078 1253 q 1160 1233 1140 1253 q 1181 1181 1181 1213 q 1160 1129 1181 1150 q 1108 1108 1140 1108 m 339 883 q 319 932 335 919 q 274 944 304 944 l 194 944 l 206 989 l 617 989 l 606 944 l 511 944 q 470 928 479 944 q 461 879 461 913 l 461 201 l 800 744 q 843 883 843 810 q 826 931 843 918 q 778 944 810 944 l 706 944 l 717 989 l 1128 989 l 1117 944 l 1038 944 q 984 921 1003 944 q 965 857 965 897 l 965 217 l 1296 738 q 1349 883 1349 819 q 1332 924 1349 904 q 1293 944 1315 944 l 1217 944 l 1228 989 l 1639 989 l 1628 944 l 1567 944 q 1485 915 1519 944 q 1424 840 1451 886 l 878 -25 l 843 -25 l 843 718 l 374 -25 l 339 -25 l 339 883 z "},"Ẁ":{"ha":1497,"x_min":194,"x_max":1639,"o":"m 801 1193 q 786 1217 792 1203 q 781 1243 781 1232 q 791 1276 781 1260 q 829 1292 801 1292 q 888 1240 871 1292 l 944 1071 l 924 1058 l 801 1193 m 339 883 q 319 932 335 919 q 274 944 304 944 l 194 944 l 206 989 l 617 989 l 606 944 l 511 944 q 470 928 479 944 q 461 879 461 913 l 461 201 l 800 744 q 843 883 843 810 q 826 931 843 918 q 778 944 810 944 l 706 944 l 717 989 l 1128 989 l 1117 944 l 1038 944 q 984 921 1003 944 q 965 857 965 897 l 965 217 l 1296 738 q 1349 883 1349 819 q 1332 924 1349 904 q 1293 944 1315 944 l 1217 944 l 1228 989 l 1639 989 l 1628 944 l 1567 944 q 1485 915 1519 944 q 1424 840 1451 886 l 878 -25 l 843 -25 l 843 718 l 374 -25 l 339 -25 l 339 883 z "},"X":{"ha":1167,"x_min":14,"x_max":1231,"o":"m 26 44 l 86 44 q 188 72 143 44 q 279 150 233 99 l 581 479 l 401 875 q 380 916 389 903 q 353 937 371 929 q 306 944 336 944 l 211 944 l 222 989 l 656 989 l 644 944 l 582 944 q 549 931 565 944 q 532 896 532 917 q 536 875 532 886 l 671 579 l 881 808 q 902 842 896 824 q 908 886 908 860 q 838 944 908 944 l 786 944 l 797 989 l 1231 989 l 1219 944 l 1169 944 q 1003 872 1069 944 l 693 529 l 892 94 q 924 53 907 63 q 971 44 940 44 l 1056 44 l 1044 0 l 600 0 l 611 44 l 700 44 q 738 56 722 44 q 753 86 753 67 q 747 111 753 99 l 603 429 l 390 194 q 360 150 368 169 q 351 103 351 131 q 424 44 351 44 l 471 44 l 458 0 l 14 0 l 26 44 z "},"Y":{"ha":1000,"x_min":147,"x_max":1153,"o":"m 158 44 l 297 44 q 343 81 333 44 l 440 442 l 331 883 q 304 931 319 918 q 261 944 289 944 l 158 944 l 169 989 l 608 989 l 597 944 l 515 944 q 471 930 488 944 q 454 896 454 915 q 457 879 454 885 l 549 493 l 788 768 q 838 833 819 806 q 857 890 857 861 q 790 944 857 944 l 731 944 l 742 989 l 1153 989 l 1142 944 l 1076 944 q 911 843 997 944 l 571 457 l 469 81 q 467 64 467 69 q 494 44 467 44 l 633 44 l 622 0 l 147 0 l 158 44 z "},"Ý":{"ha":1000,"x_min":147,"x_max":1153,"o":"m 664 1075 l 811 1246 q 844 1275 829 1267 q 878 1283 860 1283 q 917 1243 917 1283 q 872 1179 917 1206 l 681 1058 l 664 1075 m 158 44 l 297 44 q 343 81 333 44 l 440 442 l 331 883 q 304 931 319 918 q 261 944 289 944 l 158 944 l 169 989 l 608 989 l 597 944 l 515 944 q 471 930 488 944 q 454 896 454 915 q 457 879 454 885 l 549 493 l 788 768 q 838 833 819 806 q 857 890 857 861 q 790 944 857 944 l 731 944 l 742 989 l 1153 989 l 1142 944 l 1076 944 q 911 843 997 944 l 571 457 l 469 81 q 467 64 467 69 q 494 44 467 44 l 633 44 l 622 0 l 147 0 l 158 44 z "},"Ŷ":{"ha":1000,"x_min":147,"x_max":1153,"o":"m 467 1081 q 711 1278 614 1153 l 767 1278 q 906 1081 799 1153 l 886 1058 q 801 1112 853 1071 q 717 1192 749 1153 q 588 1112 663 1153 q 475 1058 514 1071 l 467 1081 m 158 44 l 297 44 q 343 81 333 44 l 440 442 l 331 883 q 304 931 319 918 q 261 944 289 944 l 158 944 l 169 989 l 608 989 l 597 944 l 515 944 q 471 930 488 944 q 454 896 454 915 q 457 879 454 885 l 549 493 l 788 768 q 838 833 819 806 q 857 890 857 861 q 790 944 857 944 l 731 944 l 742 989 l 1153 989 l 1142 944 l 1076 944 q 911 843 997 944 l 571 457 l 469 81 q 467 64 467 69 q 494 44 467 44 l 633 44 l 622 0 l 147 0 l 158 44 z "},"Ÿ":{"ha":1000,"x_min":147,"x_max":1153,"o":"m 578 1108 q 526 1129 547 1108 q 506 1181 506 1150 q 526 1233 506 1213 q 578 1253 547 1253 q 630 1233 610 1253 q 650 1181 650 1213 q 630 1129 650 1150 q 578 1108 610 1108 m 861 1108 q 810 1129 831 1108 q 789 1181 789 1150 q 810 1233 789 1213 q 861 1253 831 1253 q 913 1233 893 1253 q 933 1181 933 1213 q 913 1129 933 1150 q 861 1108 893 1108 m 158 44 l 297 44 q 343 81 333 44 l 440 442 l 331 883 q 304 931 319 918 q 261 944 289 944 l 158 944 l 169 989 l 608 989 l 597 944 l 515 944 q 471 930 488 944 q 454 896 454 915 q 457 879 454 885 l 549 493 l 788 768 q 838 833 819 806 q 857 890 857 861 q 790 944 857 944 l 731 944 l 742 989 l 1153 989 l 1142 944 l 1076 944 q 911 843 997 944 l 571 457 l 469 81 q 467 64 467 69 q 494 44 467 44 l 633 44 l 622 0 l 147 0 l 158 44 z "},"Ẏ":{"ha":1000,"x_min":147,"x_max":1153,"o":"m 719 1108 q 668 1129 689 1108 q 647 1181 647 1150 q 668 1233 647 1213 q 719 1253 689 1253 q 772 1233 751 1253 q 792 1181 792 1213 q 772 1129 792 1150 q 719 1108 751 1108 m 158 44 l 297 44 q 343 81 333 44 l 440 442 l 331 883 q 304 931 319 918 q 261 944 289 944 l 158 944 l 169 989 l 608 989 l 597 944 l 515 944 q 471 930 488 944 q 454 896 454 915 q 457 879 454 885 l 549 493 l 788 768 q 838 833 819 806 q 857 890 857 861 q 790 944 857 944 l 731 944 l 742 989 l 1153 989 l 1142 944 l 1076 944 q 911 843 997 944 l 571 457 l 469 81 q 467 64 467 69 q 494 44 467 44 l 633 44 l 622 0 l 147 0 l 158 44 z "},"Ỵ":{"ha":1000,"x_min":147,"x_max":1153,"o":"m 158 44 l 297 44 q 343 81 333 44 l 440 442 l 331 883 q 304 931 319 918 q 261 944 289 944 l 158 944 l 169 989 l 608 989 l 597 944 l 515 944 q 471 930 488 944 q 454 896 454 915 q 457 879 454 885 l 549 493 l 788 768 q 838 833 819 806 q 857 890 857 861 q 790 944 857 944 l 731 944 l 742 989 l 1153 989 l 1142 944 l 1076 944 q 911 843 997 944 l 571 457 l 469 81 q 467 64 467 69 q 494 44 467 44 l 633 44 l 622 0 l 147 0 l 158 44 m 361 -281 q 309 -260 329 -281 q 289 -208 289 -240 q 309 -157 289 -178 q 361 -136 329 -136 q 413 -157 392 -136 q 433 -208 433 -178 q 413 -260 433 -240 q 361 -281 392 -281 z "},"Ỳ":{"ha":1000,"x_min":147,"x_max":1153,"o":"m 158 44 l 297 44 q 343 81 333 44 l 440 442 l 331 883 q 304 931 319 918 q 261 944 289 944 l 158 944 l 169 989 l 608 989 l 597 944 l 515 944 q 471 930 488 944 q 454 896 454 915 q 457 879 454 885 l 549 493 l 788 768 q 838 833 819 806 q 857 890 857 861 q 790 944 857 944 l 731 944 l 742 989 l 1153 989 l 1142 944 l 1076 944 q 911 843 997 944 l 571 457 l 469 81 q 467 64 467 69 q 494 44 467 44 l 633 44 l 622 0 l 147 0 l 158 44 m 576 1193 q 561 1217 567 1203 q 556 1243 556 1232 q 566 1276 556 1260 q 604 1292 576 1292 q 663 1240 646 1292 l 719 1071 l 699 1058 l 576 1193 z "},"Ỷ":{"ha":1000,"x_min":147,"x_max":1153,"o":"m 158 44 l 297 44 q 343 81 333 44 l 440 442 l 331 883 q 304 931 319 918 q 261 944 289 944 l 158 944 l 169 989 l 608 989 l 597 944 l 515 944 q 471 930 488 944 q 454 896 454 915 q 457 879 454 885 l 549 493 l 788 768 q 838 833 819 806 q 857 890 857 861 q 790 944 857 944 l 731 944 l 742 989 l 1153 989 l 1142 944 l 1076 944 q 911 843 997 944 l 571 457 l 469 81 q 467 64 467 69 q 494 44 467 44 l 633 44 l 622 0 l 147 0 l 158 44 m 742 1113 q 796 1193 786 1144 q 799 1214 799 1207 q 783 1255 799 1239 q 736 1271 768 1271 q 681 1256 707 1271 q 651 1221 654 1240 q 651 1203 647 1207 q 655 1200 653 1201 q 658 1200 657 1199 q 664 1201 660 1199 q 670 1202 668 1203 q 675 1203 672 1201 q 694 1182 694 1200 q 683 1156 694 1167 q 651 1146 671 1146 q 627 1157 638 1146 q 617 1188 617 1168 q 658 1260 617 1231 q 746 1292 699 1290 q 823 1269 792 1290 q 854 1211 854 1249 q 823 1135 854 1165 q 733 1069 792 1106 l 685 1069 l 742 1113 z "},"Ȳ":{"ha":1000,"x_min":147,"x_max":1153,"o":"m 492 1142 l 506 1197 l 942 1197 l 928 1142 l 492 1142 m 158 44 l 297 44 q 343 81 333 44 l 440 442 l 331 883 q 304 931 319 918 q 261 944 289 944 l 158 944 l 169 989 l 608 989 l 597 944 l 515 944 q 471 930 488 944 q 454 896 454 915 q 457 879 454 885 l 549 493 l 788 768 q 838 833 819 806 q 857 890 857 861 q 790 944 857 944 l 731 944 l 742 989 l 1153 989 l 1142 944 l 1076 944 q 911 843 997 944 l 571 457 l 469 81 q 467 64 467 69 q 494 44 467 44 l 633 44 l 622 0 l 147 0 l 158 44 z "},"Ỹ":{"ha":1000,"x_min":147,"x_max":1153,"o":"m 158 44 l 297 44 q 343 81 333 44 l 440 442 l 331 883 q 304 931 319 918 q 261 944 289 944 l 158 944 l 169 989 l 608 989 l 597 944 l 515 944 q 471 930 488 944 q 454 896 454 915 q 457 879 454 885 l 549 493 l 788 768 q 838 833 819 806 q 857 890 857 861 q 790 944 857 944 l 731 944 l 742 989 l 1153 989 l 1142 944 l 1076 944 q 911 843 997 944 l 571 457 l 469 81 q 467 64 467 69 q 494 44 467 44 l 633 44 l 622 0 l 147 0 l 158 44 m 493 1125 q 528 1215 497 1178 q 613 1253 560 1253 q 738 1224 653 1253 q 838 1200 806 1200 q 878 1215 863 1200 q 899 1258 893 1231 l 926 1256 q 891 1165 922 1203 q 807 1128 860 1128 q 682 1157 767 1128 q 582 1181 614 1181 q 542 1165 557 1181 q 521 1122 526 1150 l 493 1125 z "},"Z":{"ha":944,"x_min":50,"x_max":933,"o":"m 61 43 l 767 944 l 517 944 q 406 919 457 944 q 300 836 356 893 q 242 763 265 800 q 207 698 218 725 q 196 667 196 671 l 161 667 l 278 989 l 933 989 l 922 944 l 219 44 l 528 44 q 703 110 628 44 q 781 206 746 147 q 840 316 817 264 q 863 372 863 368 l 897 372 l 778 0 l 50 0 l 61 43 z "},"Ź":{"ha":944,"x_min":50,"x_max":933,"o":"m 578 1075 l 725 1246 q 758 1275 743 1267 q 792 1283 774 1283 q 831 1243 831 1283 q 786 1179 831 1206 l 594 1058 l 578 1075 m 61 43 l 767 944 l 517 944 q 406 919 457 944 q 300 836 356 893 q 242 763 265 800 q 207 698 218 725 q 196 667 196 671 l 161 667 l 278 989 l 933 989 l 922 944 l 219 44 l 528 44 q 703 110 628 44 q 781 206 746 147 q 840 316 817 264 q 863 372 863 368 l 897 372 l 778 0 l 50 0 l 61 43 z "},"Ž":{"ha":944,"x_min":50,"x_max":933,"o":"m 565 1058 l 425 1258 l 446 1278 l 615 1144 l 857 1278 l 869 1258 l 621 1058 l 565 1058 m 61 43 l 767 944 l 517 944 q 406 919 457 944 q 300 836 356 893 q 242 763 265 800 q 207 698 218 725 q 196 667 196 671 l 161 667 l 278 989 l 933 989 l 922 944 l 219 44 l 528 44 q 703 110 628 44 q 781 206 746 147 q 840 316 817 264 q 863 372 863 368 l 897 372 l 778 0 l 50 0 l 61 43 z "},"Ż":{"ha":944,"x_min":50,"x_max":933,"o":"m 633 1108 q 582 1129 603 1108 q 561 1181 561 1150 q 582 1233 561 1213 q 633 1253 603 1253 q 685 1233 665 1253 q 706 1181 706 1213 q 685 1129 706 1150 q 633 1108 665 1108 m 61 43 l 767 944 l 517 944 q 406 919 457 944 q 300 836 356 893 q 242 763 265 800 q 207 698 218 725 q 196 667 196 671 l 161 667 l 278 989 l 933 989 l 922 944 l 219 44 l 528 44 q 703 110 628 44 q 781 206 746 147 q 840 316 817 264 q 863 372 863 368 l 897 372 l 778 0 l 50 0 l 61 43 z "},"Ẓ":{"ha":944,"x_min":50,"x_max":933,"o":"m 61 43 l 767 944 l 517 944 q 406 919 457 944 q 300 836 356 893 q 242 763 265 800 q 207 698 218 725 q 196 667 196 671 l 161 667 l 278 989 l 933 989 l 922 944 l 219 44 l 528 44 q 703 110 628 44 q 781 206 746 147 q 840 316 817 264 q 863 372 863 368 l 897 372 l 778 0 l 50 0 l 61 43 m 333 -281 q 282 -260 303 -281 q 261 -208 261 -240 q 282 -157 261 -178 q 333 -136 303 -136 q 385 -157 365 -136 q 406 -208 406 -178 q 385 -260 406 -240 q 333 -281 365 -281 z "},"a":{"ha":744,"x_min":58,"x_max":707,"o":"m 214 -17 q 99 35 140 -17 q 58 174 58 88 q 83 337 58 258 q 140 465 108 415 q 253 588 189 542 q 385 633 318 633 q 463 603 428 633 q 513 511 497 574 l 518 508 l 549 617 l 640 617 l 522 179 q 503 68 503 101 q 508 40 503 49 q 528 31 514 31 q 606 92 565 31 q 679 253 646 154 l 707 244 q 619 60 671 138 q 503 -17 567 -17 q 422 125 422 -17 q 423 152 422 143 q 424 163 424 161 l 419 165 q 334 43 390 103 q 214 -17 278 -17 m 222 17 q 321 69 274 17 q 408 208 368 121 q 457 347 436 271 q 478 472 478 424 q 453 567 478 533 q 385 600 428 600 q 303 553 342 600 q 236 444 264 506 q 180 279 201 367 q 158 118 158 192 q 173 47 158 76 q 222 17 188 17 z "},"á":{"ha":744,"x_min":58,"x_max":707,"o":"m 428 722 l 575 893 q 608 922 593 914 q 642 931 624 931 q 672 919 663 931 q 681 890 681 907 q 636 826 681 854 l 444 706 l 428 722 m 214 -17 q 99 35 140 -17 q 58 174 58 88 q 83 337 58 258 q 140 465 108 415 q 253 588 189 542 q 385 633 318 633 q 463 603 428 633 q 513 511 497 574 l 518 508 l 549 617 l 640 617 l 522 179 q 503 68 503 101 q 508 40 503 49 q 528 31 514 31 q 606 92 565 31 q 679 253 646 154 l 707 244 q 619 60 671 138 q 503 -17 567 -17 q 422 125 422 -17 q 423 152 422 143 q 424 163 424 161 l 419 165 q 334 43 390 103 q 214 -17 278 -17 m 222 17 q 321 69 274 17 q 408 208 368 121 q 457 347 436 271 q 478 472 478 424 q 453 567 478 533 q 385 600 428 600 q 303 553 342 600 q 236 444 264 506 q 180 279 201 367 q 158 118 158 192 q 173 47 158 76 q 222 17 188 17 z "},"ă":{"ha":744,"x_min":58,"x_max":714,"o":"m 469 731 q 360 776 396 731 q 325 882 325 822 q 331 925 325 900 l 361 925 q 360 903 360 918 q 388 820 360 854 q 485 786 417 786 q 611 828 561 786 q 683 925 661 871 l 714 925 q 670 842 704 888 q 583 763 636 796 q 469 731 531 731 m 214 -17 q 99 35 140 -17 q 58 174 58 88 q 83 337 58 258 q 140 465 108 415 q 253 588 189 542 q 385 633 318 633 q 463 603 428 633 q 513 511 497 574 l 518 508 l 549 617 l 640 617 l 522 179 q 503 68 503 101 q 508 40 503 49 q 528 31 514 31 q 606 92 565 31 q 679 253 646 154 l 707 244 q 619 60 671 138 q 503 -17 567 -17 q 422 125 422 -17 q 423 152 422 143 q 424 163 424 161 l 419 165 q 334 43 390 103 q 214 -17 278 -17 m 222 17 q 321 69 274 17 q 408 208 368 121 q 457 347 436 271 q 478 472 478 424 q 453 567 478 533 q 385 600 428 600 q 303 553 342 600 q 236 444 264 506 q 180 279 201 367 q 158 118 158 192 q 173 47 158 76 q 222 17 188 17 z "},"ắ":{"ha":744,"x_min":58,"x_max":760,"o":"m 214 -17 q 99 35 140 -17 q 58 174 58 88 q 83 337 58 258 q 140 465 108 415 q 253 588 189 542 q 385 633 318 633 q 463 603 428 633 q 513 511 497 574 l 518 508 l 549 617 l 640 617 l 522 179 q 503 68 503 101 q 508 40 503 49 q 528 31 514 31 q 606 92 565 31 q 679 253 646 154 l 707 244 q 619 60 671 138 q 503 -17 567 -17 q 422 125 422 -17 q 423 152 422 143 q 424 163 424 161 l 419 165 q 334 43 390 103 q 214 -17 278 -17 m 222 17 q 321 69 274 17 q 408 208 368 121 q 457 347 436 271 q 478 472 478 424 q 453 567 478 533 q 385 600 428 600 q 303 553 342 600 q 236 444 264 506 q 180 279 201 367 q 158 118 158 192 q 173 47 158 76 q 222 17 188 17 m 490 731 q 381 776 417 731 q 346 882 346 822 q 351 925 346 900 l 382 925 q 381 903 381 918 q 409 820 381 854 q 506 786 438 786 q 632 828 582 786 q 704 925 682 871 l 735 925 q 691 842 725 888 q 604 763 657 796 q 490 731 551 731 m 507 946 l 654 1117 q 688 1146 672 1138 q 721 1154 703 1154 q 751 1142 742 1154 q 760 1114 760 1131 q 715 1050 760 1078 l 524 929 l 507 946 z "},"ặ":{"ha":744,"x_min":58,"x_max":735,"o":"m 214 -17 q 99 35 140 -17 q 58 174 58 88 q 83 337 58 258 q 140 465 108 415 q 253 588 189 542 q 385 633 318 633 q 463 603 428 633 q 513 511 497 574 l 518 508 l 549 617 l 640 617 l 522 179 q 503 68 503 101 q 508 40 503 49 q 528 31 514 31 q 606 92 565 31 q 679 253 646 154 l 707 244 q 619 60 671 138 q 503 -17 567 -17 q 422 125 422 -17 q 423 152 422 143 q 424 163 424 161 l 419 165 q 334 43 390 103 q 214 -17 278 -17 m 222 17 q 321 69 274 17 q 408 208 368 121 q 457 347 436 271 q 478 472 478 424 q 453 567 478 533 q 385 600 428 600 q 303 553 342 600 q 236 444 264 506 q 180 279 201 367 q 158 118 158 192 q 173 47 158 76 q 222 17 188 17 m 233 -281 q 181 -260 201 -281 q 161 -208 161 -240 q 181 -157 161 -178 q 233 -136 201 -136 q 285 -157 264 -136 q 306 -208 306 -178 q 285 -260 306 -240 q 233 -281 264 -281 m 490 731 q 381 776 417 731 q 346 882 346 822 q 351 925 346 900 l 382 925 q 381 903 381 918 q 409 820 381 854 q 506 786 438 786 q 632 828 582 786 q 704 925 682 871 l 735 925 q 691 842 725 888 q 604 763 657 796 q 490 731 551 731 z "},"ằ":{"ha":744,"x_min":58,"x_max":735,"o":"m 214 -17 q 99 35 140 -17 q 58 174 58 88 q 83 337 58 258 q 140 465 108 415 q 253 588 189 542 q 385 633 318 633 q 463 603 428 633 q 513 511 497 574 l 518 508 l 549 617 l 640 617 l 522 179 q 503 68 503 101 q 508 40 503 49 q 528 31 514 31 q 606 92 565 31 q 679 253 646 154 l 707 244 q 619 60 671 138 q 503 -17 567 -17 q 422 125 422 -17 q 423 152 422 143 q 424 163 424 161 l 419 165 q 334 43 390 103 q 214 -17 278 -17 m 222 17 q 321 69 274 17 q 408 208 368 121 q 457 347 436 271 q 478 472 478 424 q 453 567 478 533 q 385 600 428 600 q 303 553 342 600 q 236 444 264 506 q 180 279 201 367 q 158 118 158 192 q 173 47 158 76 q 222 17 188 17 m 490 731 q 381 776 417 731 q 346 882 346 822 q 351 925 346 900 l 382 925 q 381 903 381 918 q 409 820 381 854 q 506 786 438 786 q 632 828 582 786 q 704 925 682 871 l 735 925 q 691 842 725 888 q 604 763 657 796 q 490 731 551 731 m 410 1056 q 390 1104 390 1078 q 401 1138 390 1121 q 440 1154 413 1154 q 474 1142 461 1154 q 496 1100 486 1129 l 551 935 l 528 921 l 410 1056 z "},"ẳ":{"ha":744,"x_min":58,"x_max":735,"o":"m 214 -17 q 99 35 140 -17 q 58 174 58 88 q 83 337 58 258 q 140 465 108 415 q 253 588 189 542 q 385 633 318 633 q 463 603 428 633 q 513 511 497 574 l 518 508 l 549 617 l 640 617 l 522 179 q 503 68 503 101 q 508 40 503 49 q 528 31 514 31 q 606 92 565 31 q 679 253 646 154 l 707 244 q 619 60 671 138 q 503 -17 567 -17 q 422 125 422 -17 q 423 152 422 143 q 424 163 424 161 l 419 165 q 334 43 390 103 q 214 -17 278 -17 m 222 17 q 321 69 274 17 q 408 208 368 121 q 457 347 436 271 q 478 472 478 424 q 453 567 478 533 q 385 600 428 600 q 303 553 342 600 q 236 444 264 506 q 180 279 201 367 q 158 118 158 192 q 173 47 158 76 q 222 17 188 17 m 490 731 q 381 776 417 731 q 346 882 346 822 q 351 925 346 900 l 382 925 q 381 903 381 918 q 409 820 381 854 q 506 786 438 786 q 632 828 582 786 q 704 925 682 871 l 735 925 q 691 842 725 888 q 604 763 657 796 q 490 731 551 731 m 567 951 q 621 1032 611 983 q 624 1053 624 1046 q 608 1094 624 1078 q 561 1110 593 1110 q 506 1094 532 1110 q 476 1060 479 1079 q 476 1042 472 1046 q 480 1039 478 1040 q 483 1039 482 1038 q 489 1040 485 1038 q 495 1041 493 1042 q 500 1042 497 1040 q 519 1021 519 1039 q 508 995 519 1006 q 476 985 496 985 q 452 996 463 985 q 442 1026 442 1007 q 483 1099 442 1069 q 571 1131 524 1129 q 648 1108 617 1129 q 679 1050 679 1088 q 648 974 679 1004 q 558 908 617 944 l 510 908 l 567 951 z "},"ẵ":{"ha":744,"x_min":58,"x_max":761,"o":"m 214 -17 q 99 35 140 -17 q 58 174 58 88 q 83 337 58 258 q 140 465 108 415 q 253 588 189 542 q 385 633 318 633 q 463 603 428 633 q 513 511 497 574 l 518 508 l 549 617 l 640 617 l 522 179 q 503 68 503 101 q 508 40 503 49 q 528 31 514 31 q 606 92 565 31 q 679 253 646 154 l 707 244 q 619 60 671 138 q 503 -17 567 -17 q 422 125 422 -17 q 423 152 422 143 q 424 163 424 161 l 419 165 q 334 43 390 103 q 214 -17 278 -17 m 222 17 q 321 69 274 17 q 408 208 368 121 q 457 347 436 271 q 478 472 478 424 q 453 567 478 533 q 385 600 428 600 q 303 553 342 600 q 236 444 264 506 q 180 279 201 367 q 158 118 158 192 q 173 47 158 76 q 222 17 188 17 m 490 731 q 381 776 417 731 q 346 882 346 822 q 351 925 346 900 l 382 925 q 381 903 381 918 q 409 820 381 854 q 506 786 438 786 q 632 828 582 786 q 704 925 682 871 l 735 925 q 691 842 725 888 q 604 763 657 796 q 490 731 551 731 m 378 971 q 407 1063 378 1025 q 489 1101 436 1101 q 542 1094 519 1101 q 596 1071 565 1086 q 641 1052 624 1058 q 681 1046 658 1046 q 715 1060 704 1046 q 731 1101 726 1074 l 761 1101 q 732 1009 761 1047 q 650 971 703 971 q 597 978 619 971 q 543 1001 574 986 q 498 1020 515 1014 q 458 1026 481 1026 q 424 1013 435 1026 q 408 971 413 999 l 378 971 z "},"â":{"ha":744,"x_min":58,"x_max":707,"o":"m 269 724 q 481 933 393 789 l 536 933 q 633 724 549 789 l 617 706 q 482 833 533 756 q 278 706 385 754 l 269 724 m 214 -17 q 99 35 140 -17 q 58 174 58 88 q 83 337 58 258 q 140 465 108 415 q 253 588 189 542 q 385 633 318 633 q 463 603 428 633 q 513 511 497 574 l 518 508 l 549 617 l 640 617 l 522 179 q 503 68 503 101 q 508 40 503 49 q 528 31 514 31 q 606 92 565 31 q 679 253 646 154 l 707 244 q 619 60 671 138 q 503 -17 567 -17 q 422 125 422 -17 q 423 152 422 143 q 424 163 424 161 l 419 165 q 334 43 390 103 q 214 -17 278 -17 m 222 17 q 321 69 274 17 q 408 208 368 121 q 457 347 436 271 q 478 472 478 424 q 453 567 478 533 q 385 600 428 600 q 303 553 342 600 q 236 444 264 506 q 180 279 201 367 q 158 118 158 192 q 173 47 158 76 q 222 17 188 17 z "},"ấ":{"ha":744,"x_min":58,"x_max":892,"o":"m 214 -17 q 99 35 140 -17 q 58 174 58 88 q 83 337 58 258 q 140 465 108 415 q 253 588 189 542 q 385 633 318 633 q 463 603 428 633 q 513 511 497 574 l 518 508 l 549 617 l 640 617 l 522 179 q 503 68 503 101 q 508 40 503 49 q 528 31 514 31 q 606 92 565 31 q 679 253 646 154 l 707 244 q 619 60 671 138 q 503 -17 567 -17 q 422 125 422 -17 q 423 152 422 143 q 424 163 424 161 l 419 165 q 334 43 390 103 q 214 -17 278 -17 m 222 17 q 321 69 274 17 q 408 208 368 121 q 457 347 436 271 q 478 472 478 424 q 453 567 478 533 q 385 600 428 600 q 303 553 342 600 q 236 444 264 506 q 180 279 201 367 q 158 118 158 192 q 173 47 158 76 q 222 17 188 17 m 293 724 q 504 933 417 789 l 560 933 q 657 724 572 789 l 640 706 q 506 833 557 756 q 301 706 408 754 l 293 724 m 639 833 l 786 1004 q 819 1033 804 1025 q 853 1042 835 1042 q 883 1030 874 1042 q 892 1001 892 1018 q 847 938 892 965 l 656 817 l 639 833 z "},"ậ":{"ha":744,"x_min":58,"x_max":707,"o":"m 214 -17 q 99 35 140 -17 q 58 174 58 88 q 83 337 58 258 q 140 465 108 415 q 253 588 189 542 q 385 633 318 633 q 463 603 428 633 q 513 511 497 574 l 518 508 l 549 617 l 640 617 l 522 179 q 503 68 503 101 q 508 40 503 49 q 528 31 514 31 q 606 92 565 31 q 679 253 646 154 l 707 244 q 619 60 671 138 q 503 -17 567 -17 q 422 125 422 -17 q 423 152 422 143 q 424 163 424 161 l 419 165 q 334 43 390 103 q 214 -17 278 -17 m 222 17 q 321 69 274 17 q 408 208 368 121 q 457 347 436 271 q 478 472 478 424 q 453 567 478 533 q 385 600 428 600 q 303 553 342 600 q 236 444 264 506 q 180 279 201 367 q 158 118 158 192 q 173 47 158 76 q 222 17 188 17 m 233 -281 q 181 -260 201 -281 q 161 -208 161 -240 q 181 -157 161 -178 q 233 -136 201 -136 q 285 -157 264 -136 q 306 -208 306 -178 q 285 -260 306 -240 q 233 -281 264 -281 m 293 724 q 504 933 417 789 l 560 933 q 657 724 572 789 l 640 706 q 506 833 557 756 q 301 706 408 754 l 293 724 z "},"ầ":{"ha":744,"x_min":58,"x_max":707,"o":"m 214 -17 q 99 35 140 -17 q 58 174 58 88 q 83 337 58 258 q 140 465 108 415 q 253 588 189 542 q 385 633 318 633 q 463 603 428 633 q 513 511 497 574 l 518 508 l 549 617 l 640 617 l 522 179 q 503 68 503 101 q 508 40 503 49 q 528 31 514 31 q 606 92 565 31 q 679 253 646 154 l 707 244 q 619 60 671 138 q 503 -17 567 -17 q 422 125 422 -17 q 423 152 422 143 q 424 163 424 161 l 419 165 q 334 43 390 103 q 214 -17 278 -17 m 222 17 q 321 69 274 17 q 408 208 368 121 q 457 347 436 271 q 478 472 478 424 q 453 567 478 533 q 385 600 428 600 q 303 553 342 600 q 236 444 264 506 q 180 279 201 367 q 158 118 158 192 q 173 47 158 76 q 222 17 188 17 m 293 724 q 504 933 417 789 l 560 933 q 657 724 572 789 l 640 706 q 506 833 557 756 q 301 706 408 754 l 293 724 m 551 1022 q 532 1071 532 1044 q 543 1104 532 1088 q 582 1121 554 1121 q 615 1108 603 1121 q 638 1067 628 1096 l 693 901 l 669 888 l 551 1022 z "},"ẩ":{"ha":744,"x_min":58,"x_max":783,"o":"m 214 -17 q 99 35 140 -17 q 58 174 58 88 q 83 337 58 258 q 140 465 108 415 q 253 588 189 542 q 385 633 318 633 q 463 603 428 633 q 513 511 497 574 l 518 508 l 549 617 l 640 617 l 522 179 q 503 68 503 101 q 508 40 503 49 q 528 31 514 31 q 606 92 565 31 q 679 253 646 154 l 707 244 q 619 60 671 138 q 503 -17 567 -17 q 422 125 422 -17 q 423 152 422 143 q 424 163 424 161 l 419 165 q 334 43 390 103 q 214 -17 278 -17 m 222 17 q 321 69 274 17 q 408 208 368 121 q 457 347 436 271 q 478 472 478 424 q 453 567 478 533 q 385 600 428 600 q 303 553 342 600 q 236 444 264 506 q 180 279 201 367 q 158 118 158 192 q 173 47 158 76 q 222 17 188 17 m 293 724 q 504 933 417 789 l 560 933 q 657 724 572 789 l 640 706 q 506 833 557 756 q 301 706 408 754 l 293 724 m 671 956 q 725 1036 715 988 q 728 1057 728 1050 q 713 1098 728 1082 q 665 1114 697 1114 q 610 1099 636 1114 q 581 1064 583 1083 q 581 1046 576 1050 q 584 1043 582 1044 q 588 1043 586 1042 q 593 1044 589 1042 q 599 1045 597 1046 q 604 1046 601 1044 q 624 1025 624 1043 q 612 999 624 1010 q 581 989 600 989 q 556 1000 567 989 q 546 1031 546 1011 q 587 1103 546 1074 q 675 1135 628 1133 q 752 1113 721 1133 q 783 1054 783 1092 q 752 978 783 1008 q 663 913 721 949 l 614 913 l 671 956 z "},"ẫ":{"ha":744,"x_min":58,"x_max":751,"o":"m 214 -17 q 99 35 140 -17 q 58 174 58 88 q 83 337 58 258 q 140 465 108 415 q 253 588 189 542 q 385 633 318 633 q 463 603 428 633 q 513 511 497 574 l 518 508 l 549 617 l 640 617 l 522 179 q 503 68 503 101 q 508 40 503 49 q 528 31 514 31 q 606 92 565 31 q 679 253 646 154 l 707 244 q 619 60 671 138 q 503 -17 567 -17 q 422 125 422 -17 q 423 152 422 143 q 424 163 424 161 l 419 165 q 334 43 390 103 q 214 -17 278 -17 m 222 17 q 321 69 274 17 q 408 208 368 121 q 457 347 436 271 q 478 472 478 424 q 453 567 478 533 q 385 600 428 600 q 303 553 342 600 q 236 444 264 506 q 180 279 201 367 q 158 118 158 192 q 173 47 158 76 q 222 17 188 17 m 293 724 q 504 933 417 789 l 560 933 q 657 724 572 789 l 640 706 q 506 833 557 756 q 301 706 408 754 l 293 724 m 368 956 q 397 1048 368 1010 q 479 1086 426 1086 q 533 1078 510 1086 q 586 1056 556 1071 q 631 1037 614 1043 q 671 1031 649 1031 q 706 1044 694 1031 q 721 1086 717 1058 l 751 1086 q 722 994 751 1032 q 640 956 693 956 q 587 963 610 956 q 533 986 564 971 q 488 1005 506 999 q 449 1011 471 1011 q 414 997 425 1011 q 399 956 403 983 l 368 956 z "},"ȁ":{"ha":744,"x_min":58,"x_max":707,"o":"m 242 840 q 222 886 222 863 q 235 921 222 903 q 275 939 247 939 q 328 888 318 939 l 388 706 l 354 706 l 242 840 m 428 840 q 408 886 408 863 q 421 921 408 903 q 461 939 433 939 q 514 888 504 939 l 574 706 l 540 706 l 428 840 m 214 -17 q 99 35 140 -17 q 58 174 58 88 q 83 337 58 258 q 140 465 108 415 q 253 588 189 542 q 385 633 318 633 q 463 603 428 633 q 513 511 497 574 l 518 508 l 549 617 l 640 617 l 522 179 q 503 68 503 101 q 508 40 503 49 q 528 31 514 31 q 606 92 565 31 q 679 253 646 154 l 707 244 q 619 60 671 138 q 503 -17 567 -17 q 422 125 422 -17 q 423 152 422 143 q 424 163 424 161 l 419 165 q 334 43 390 103 q 214 -17 278 -17 m 222 17 q 321 69 274 17 q 408 208 368 121 q 457 347 436 271 q 478 472 478 424 q 453 567 478 533 q 385 600 428 600 q 303 553 342 600 q 236 444 264 506 q 180 279 201 367 q 158 118 158 192 q 173 47 158 76 q 222 17 188 17 z "},"ä":{"ha":744,"x_min":58,"x_max":707,"o":"m 353 761 q 306 781 326 761 q 286 828 286 801 q 306 875 286 856 q 353 894 326 894 q 400 875 381 894 q 419 828 419 856 q 400 781 419 801 q 353 761 381 761 m 614 761 q 567 781 588 761 q 547 828 547 801 q 567 875 547 856 q 614 894 588 894 q 661 875 642 894 q 681 828 681 856 q 661 781 681 801 q 614 761 642 761 m 214 -17 q 99 35 140 -17 q 58 174 58 88 q 83 337 58 258 q 140 465 108 415 q 253 588 189 542 q 385 633 318 633 q 463 603 428 633 q 513 511 497 574 l 518 508 l 549 617 l 640 617 l 522 179 q 503 68 503 101 q 508 40 503 49 q 528 31 514 31 q 606 92 565 31 q 679 253 646 154 l 707 244 q 619 60 671 138 q 503 -17 567 -17 q 422 125 422 -17 q 423 152 422 143 q 424 163 424 161 l 419 165 q 334 43 390 103 q 214 -17 278 -17 m 222 17 q 321 69 274 17 q 408 208 368 121 q 457 347 436 271 q 478 472 478 424 q 453 567 478 533 q 385 600 428 600 q 303 553 342 600 q 236 444 264 506 q 180 279 201 367 q 158 118 158 192 q 173 47 158 76 q 222 17 188 17 z "},"ạ":{"ha":744,"x_min":58,"x_max":707,"o":"m 214 -17 q 99 35 140 -17 q 58 174 58 88 q 83 337 58 258 q 140 465 108 415 q 253 588 189 542 q 385 633 318 633 q 463 603 428 633 q 513 511 497 574 l 518 508 l 549 617 l 640 617 l 522 179 q 503 68 503 101 q 508 40 503 49 q 528 31 514 31 q 606 92 565 31 q 679 253 646 154 l 707 244 q 619 60 671 138 q 503 -17 567 -17 q 422 125 422 -17 q 423 152 422 143 q 424 163 424 161 l 419 165 q 334 43 390 103 q 214 -17 278 -17 m 222 17 q 321 69 274 17 q 408 208 368 121 q 457 347 436 271 q 478 472 478 424 q 453 567 478 533 q 385 600 428 600 q 303 553 342 600 q 236 444 264 506 q 180 279 201 367 q 158 118 158 192 q 173 47 158 76 q 222 17 188 17 m 233 -281 q 181 -260 201 -281 q 161 -208 161 -240 q 181 -157 161 -178 q 233 -136 201 -136 q 285 -157 264 -136 q 306 -208 306 -178 q 285 -260 306 -240 q 233 -281 264 -281 z "},"à":{"ha":744,"x_min":58,"x_max":707,"o":"m 339 840 q 319 889 319 863 q 331 922 319 906 q 369 939 342 939 q 403 926 390 939 q 425 885 415 914 l 481 719 l 457 706 l 339 840 m 214 -17 q 99 35 140 -17 q 58 174 58 88 q 83 337 58 258 q 140 465 108 415 q 253 588 189 542 q 385 633 318 633 q 463 603 428 633 q 513 511 497 574 l 518 508 l 549 617 l 640 617 l 522 179 q 503 68 503 101 q 508 40 503 49 q 528 31 514 31 q 606 92 565 31 q 679 253 646 154 l 707 244 q 619 60 671 138 q 503 -17 567 -17 q 422 125 422 -17 q 423 152 422 143 q 424 163 424 161 l 419 165 q 334 43 390 103 q 214 -17 278 -17 m 222 17 q 321 69 274 17 q 408 208 368 121 q 457 347 436 271 q 478 472 478 424 q 453 567 478 533 q 385 600 428 600 q 303 553 342 600 q 236 444 264 506 q 180 279 201 367 q 158 118 158 192 q 173 47 158 76 q 222 17 188 17 z "},"ả":{"ha":744,"x_min":58,"x_max":707,"o":"m 214 -17 q 99 35 140 -17 q 58 174 58 88 q 83 337 58 258 q 140 465 108 415 q 253 588 189 542 q 385 633 318 633 q 463 603 428 633 q 513 511 497 574 l 518 508 l 549 617 l 640 617 l 522 179 q 503 68 503 101 q 508 40 503 49 q 528 31 514 31 q 606 92 565 31 q 679 253 646 154 l 707 244 q 619 60 671 138 q 503 -17 567 -17 q 422 125 422 -17 q 423 152 422 143 q 424 163 424 161 l 419 165 q 334 43 390 103 q 214 -17 278 -17 m 222 17 q 321 69 274 17 q 408 208 368 121 q 457 347 436 271 q 478 472 478 424 q 453 567 478 533 q 385 600 428 600 q 303 553 342 600 q 236 444 264 506 q 180 279 201 367 q 158 118 158 192 q 173 47 158 76 q 222 17 188 17 m 514 740 q 568 821 558 772 q 571 842 571 835 q 556 883 571 867 q 508 899 540 899 q 453 883 479 899 q 424 849 426 868 q 424 831 419 835 q 427 828 425 829 q 431 828 429 826 q 436 829 432 826 q 442 830 440 831 q 447 831 444 829 q 467 810 467 828 q 455 784 467 794 q 424 774 443 774 q 399 785 410 774 q 389 815 389 796 q 430 888 389 858 q 518 919 471 918 q 595 897 564 918 q 626 839 626 876 q 595 763 626 793 q 506 697 564 733 l 457 697 l 514 740 z "},"ȃ":{"ha":744,"x_min":58,"x_max":707,"o":"m 267 728 q 374 863 306 796 q 504 931 442 931 q 572 897 544 931 q 614 815 600 863 q 631 728 628 768 l 608 719 q 569 812 600 771 q 483 853 539 853 q 376 812 428 853 q 289 719 324 771 l 267 728 m 214 -17 q 99 35 140 -17 q 58 174 58 88 q 83 337 58 258 q 140 465 108 415 q 253 588 189 542 q 385 633 318 633 q 463 603 428 633 q 513 511 497 574 l 518 508 l 549 617 l 640 617 l 522 179 q 503 68 503 101 q 508 40 503 49 q 528 31 514 31 q 606 92 565 31 q 679 253 646 154 l 707 244 q 619 60 671 138 q 503 -17 567 -17 q 422 125 422 -17 q 423 152 422 143 q 424 163 424 161 l 419 165 q 334 43 390 103 q 214 -17 278 -17 m 222 17 q 321 69 274 17 q 408 208 368 121 q 457 347 436 271 q 478 472 478 424 q 453 567 478 533 q 385 600 428 600 q 303 553 342 600 q 236 444 264 506 q 180 279 201 367 q 158 118 158 192 q 173 47 158 76 q 222 17 188 17 z "},"ā":{"ha":744,"x_min":58,"x_max":707,"o":"m 250 758 l 264 814 l 700 814 l 686 758 l 250 758 m 214 -17 q 99 35 140 -17 q 58 174 58 88 q 83 337 58 258 q 140 465 108 415 q 253 588 189 542 q 385 633 318 633 q 463 603 428 633 q 513 511 497 574 l 518 508 l 549 617 l 640 617 l 522 179 q 503 68 503 101 q 508 40 503 49 q 528 31 514 31 q 606 92 565 31 q 679 253 646 154 l 707 244 q 619 60 671 138 q 503 -17 567 -17 q 422 125 422 -17 q 423 152 422 143 q 424 163 424 161 l 419 165 q 334 43 390 103 q 214 -17 278 -17 m 222 17 q 321 69 274 17 q 408 208 368 121 q 457 347 436 271 q 478 472 478 424 q 453 567 478 533 q 385 600 428 600 q 303 553 342 600 q 236 444 264 506 q 180 279 201 367 q 158 118 158 192 q 173 47 158 76 q 222 17 188 17 z "}}}
